<mxfile host="Electron" modified="2023-06-10T15:01:48.600Z" agent="Mozilla/5.0 (Windows NT 10.0; Win64; x64) AppleWebKit/537.36 (KHTML, like Gecko) draw.io/21.3.7 Chrome/112.0.5615.204 Electron/24.5.0 Safari/537.36" etag="vaGleJQ_gWm2TkeQrUAn" version="21.3.7" type="device">
  <diagram name="Page-1" id="VWNU2aT7XRJvbvOKpogt">
    <mxGraphModel dx="2876" dy="1171" grid="0" gridSize="10" guides="1" tooltips="1" connect="1" arrows="1" fold="1" page="1" pageScale="1" pageWidth="850" pageHeight="1100" background="#E6E6E6" math="0" shadow="0">
      <root>
        <mxCell id="0" />
        <mxCell id="1" parent="0" />
        <mxCell id="myNyhjmuBwBBh0yOWU_x-1" value="" style="shape=image;aspect=fixed;image=data:image/png,iVBORw0KGgoAAAANSUhEUgAAAV8AAAJ9CAYAAACSOXEhAAAAAXNSR0IArs4c6QAAAARnQU1BAACxjwv8YQUAAAAJcEhZcwAADsMAAA7DAcdvqGQAAFQOSURBVHhe7d0JnFPV3T7wXzIbswDDKpuAUlFQFEVfrSv616qtllK3um9YWrdaK619pSpoW1+1qHWrtS64S6WIS8VKi7jQIiIouIBFRllFdmaG2ZL873NyznAnk+Umk+QmN8+Xz+UuyWQyycmTc88991xfXV1dSIiIKKv8ek5ERFnE8CUicgHDl4jIBQxfIiIXMHyJiFzA8CUicgHDl4jIBQxfIiIXMHyJiFzA8CUicgHDl4jIBQxfIiIXMHyJiFzA8CUicgHDl4jIBRkZz/fNN9+Ut99+WxYvXiyzZs3SW0Uuv/xyGT16tJoqKyv1ViKiwpPW8F2wYIHcdtttbQI3lkcffVTOOussvUZEVFjS1uzwyCOPqBotgvfAAw9U4YowtsJdTV9++aVMmzZNzjnnHHX/Sy65RC677DJ1GxFRoUlLzRfBe/XVV6vl3/3ud3LuuedKz5491Xo0r776qpx55plq+aSTTpLp06erZSKiQtHhmi9qtyZ4Udv92c9+poIXNdp77rlHte1iQi0XtV/43ve+J5988olaRk0Z96P0MK93tAnvAb74CmFvA+XL/N3PP/+83toWtpv7mPJIlC0dDl+08cL1118vp5xyilqGa665Rv73f/9Xr4k888wzMnz4cNm4caNaHzRokGqGANzPBDNlDt4D7HFccMEFfL2JXNah8EWvBtPGiw80ahBmOz7oZhkfdDQvwIMPPqjmgBqwaQN+4okn1JzSA68r9kow4T3AXol5rfGeoWmIAUzkng6FL7qTwYknnqhqssbXX3+t5viwH3LIIaoZwrTxfvXVV2pu/OAHP1BzU4Om9KiurlZ7GpjwHqBnycMPP9y6t7Fo0SK59dZb1TIRZV+HDriddtppqhaFDzRqsQZqWmYdy3vssYeMHz9e3RfNE7/5zW/UbYBmCBPcaHezhzglz+x9oE/1HXfcoZYj3XLLLa1fdnh/EM6oBd93331qG74o582bJ6tXr25dx30A93vxxRfVbVu3bpWBAweqcoCQj4T2ZTw+dOnSRe39fPTRR/LZZ5/JPvvsI5deeqm6DQdszbb999+/9QsCP2MeGzV4lJ/t27er21C+0LsmFpQl85xjdWtEmy963QAe3/43oF38ueeeU88Lfye+zA4++GDVtGZeY0jnc0/mtaX816HwtTczmIJu4OCOaXow0Dzx9NNPtwvYeI9DyXESvggD8+H/4x//qELQHlaRzGPh/bF/ydrZAw7BhTb/yPcfUAZQ67Y/vwkTJsgDDzyglqPBfaPdbp57NPa/Bz+P4Iz0/vvvtz6uPXwRgmiWwfOMhC+QKVOmtJbhdD13p68teUfa+vlGuvvuu1W3M3zYADXeP//5z6zZ5gB7TQq1tmjw3iEgEB4333yzCjMTDmhOMrVavK+AGiTuA6+88kpr8OL9x+OYshAt0OwQbggb/F4D4WV/HAO9bMwB3Hjw83h+kVO0UMQXhz148bdGtpfHaq5J9bkn89qSd3QofM1BtA0bNqi5HWpg6Hb2zjvvqAKNpoZou0/2D0/v3r31ErkJAYL3DjUz1E7xXpq+2HjP8cWKmjNqlnhfTTkw97n33nvVHKHz+uuvq8fB42GvJx7cHwdeUcvD77WHGL64zeOYXXtYuXKlXkoPhJ4JXrwOaCc37eUmPPHFgvvZdeS5J/Paknd0KHxHjhyp5h988IGap2Lp0qVqjsIb78QMSh97LQptlZFGjBihl3YxbcQ4mIqaMHa3zWQOsKJNE7vsJrwuvvji1mYQwF6Pqc1F8+1vf7vN/e1NBfYvbhxDML744gu9FBtCFBWAyAnbI9lD1d51ElAjNszfbHTkuTt9bclbOhS+Rx11lJqj8OBDZ6AA48QJHCxAgTQTDvREdvI3tST0mLAXXsoce+0LB4mSgWDFrrR9sjcl2N/bqqoqvbQLDkTli8jyWF5erpcyI9FrS97SofDF7pHZLcKRchy0QOCi/QonTqB9zA4hjSPnaF7AkWYEsbkP+glT5uFLER9qMF0BnTBtnpjba4/2Cbvb9lre7Nmz9VIY7vPWW2/ptdxk3xOIbGdF+TaifbGkyulrS97S4QNuZjcSH2iEMcLUHGBAYUV7MAoPCjJqXCascRDB9P1FWxoPxKUXdmnxBWef8MVozjrEezRx4kS17ITZ5UZ7JwIc7yngfcXusX3Px5QJ3Bd7O7gPygJ2qSO/kHPNmDFj9JLIj3/8Y7UXh+eP18+8XnjtTG+RdEjmtSXv6HD4ouaEoDUQrjiwggMMqAWZXTeEK2rEOHBgPxiBb/tx48bpNUoXhJz9yD4mE3zmPUrmCw9hY0IVAY69F7y3eP/xxXvttde2hsZPf/pTFVCAvR3cBz9vaty5DMcdsEcG2OVHmcXzx+tnmgDQ2yGdTWTJvLbkHR0OX0DQmgDGBxzf5Kgp2L+x0asBtQj0/zUfQoTw73//+7QWZIoNrzeCBV+Aqexp4Og7DlKZYDXwuOj7at5HBBjC3f4lC9jDMbvYuQxhiLJq9tIMPHfU4NNZ6zWcvrbkHa4Mpo4CdtVVV7U7W4jyB75YURtDiMd7D/Gli6anRPfLVeb5ozaard44Tl9bym9pDV8DtYbIywghcNEdB7WGQw89lN3KiKigZSR8iYgovrS0+RIRUXIYvkRELmD4EhG5gOFLROQChi8RkQsYvkRELmD4EhG5gOFLROQChi8RkQsYvkRELmD4EhG5gOFLROQChi8RkQsYvkRELmD4EhG5gOFLROQChi8RkQsYvkRELmD4EhG5gOFLROSCtF1AMxQKtU5Esfh8vtYpF7DckhOZKLcdCl8U2EAgIMXFxa2T38/KNMUWDAalpaWldSoqKsp6ELPcUrIyUW5TDl88gbKyMjURpaqxsVFNCMBsYLmldEhHuU06fPENgJpD586d9RaijtuxY4eqSWSqBspyS5nQkXKb1E+gAOMXsQBTuqFMoWyhjKUbyy1lSkfKrePwRa0BU2Vlpd5ClF4oW6acpQvLLWVaquXWUfjiQZubm1lzoIxDGUNZS7YgR8NyS9mSSrl1FL44MlxaWqrXiDILZQ1lrqNYbimbki23CcMXSY4jxBUVFXoLUWahrKHMdaT2y3JL2ZZsuU0YvmhIRp82omxCmevIwTeWW3JDMuU2bvia2gN33SjbUOZSrf2y3JJbkim3CcMXbRglJSV6C1F2oMyh7KUaviy35IZkyq2jmm+2zj4iMlDmOlrzZbmlbEum3CYM31QKP1E6pFr+WG7JTU7LX8IDbizE5JaOlD2WW3KL07LH8KWcxfClfJS28CUiovRj+BIRuYDhS0TkgpwK36Y/3SP1Y4+XuuMPlYYJV0iorlbfQpSD6j4S+exikQX7irzVKTzN6yvy0ckim17VdyKKLmfCF8Hb/MIzEtqxQ60HFr0vO8efr5aJcs7KiSKLjhbZ8KzIzhV6o6Vli8jWOSIfnxYOYaIYciZ8W15/Wc1LL/yxlD/0lFoOrV8rgY8WqWWinIHgXXWnSLDBKrBWTXf360RGvSdytLU+9EGRyhHh+yGEF1sBTRRFzoSvqfH6hwy1arznqWWllk0PlEPQ1LDmvvByl/8RGTFTZI9brcDdP7ytz8VWEC8Q6XtZeH27FcoIa6IIOXnArXL2fL1ElGNW3RWu8RZ3s2q8v9oVupH2undXDXjjjPCcyCYnw5dyx/z58+Xll1+WWbNmyYYNG/TWsG3btsm//vUvdbu5z6pVq/StHrXDqslC1yNEenwvvBxL/8vDc7QJo8ZMZJOT4YveDuQ+BGlNTY2MHDlSunXrpoLY+Pjjj+Vvf/ub1NXVSe/evdWE4fRmz57t7QA2B9cq9gnP40EThLFhml4gCmOzA8W0ceNGNTr/7rvvLv369VM1XcD8vffeU6F86qmnyqGHHqqm4447To4//nh1fyKKj80OFNOee+6pgvadd96RBQsWyODBg9X2hQsXqlA+8MAD1bqd54MXvRug/rPwPJ71j+kFS5dv6wWisJwL34Ybr2OzQ47o2rWrqtligOi9995bjjzySLUdTQ39+/dXywWn86jwfMvsxO24ax4Iz8uHiHTi3gC1xZovxYUARpPCvvvuq7eEFexVIgbfaH1qOoV7PHx4YuwARv/euiXh5Z5jY/eKoIKVE+HbeOeteqm9xgem8DTjHIPg3bJli14rMAjR3fSZlzibDQEceSrxwkPC/XsBfYHRD5goguvhG5j3trTMCp/dFg3Ocmt68G69RrkAteB169ZF7dXQ0GDVCL0OfXhxVhsggLf/O7xsmBpvj1Os++oTMogiuB6+zTOe00uxIZxZ+80dOKg2aNAgmTt3rup+hhDGhO5nM2fObNMlzbOc1GbRHY3NDRSD+zXfRe/rpfiCH3KMh1yCbmWoAaMfMPr2Ylq0aJHqEXHAAQfoexUIjPNgRjXDROQAD7hRytDV7KyzzpKzzz5bfvjDH8p5552nDs516lQgAWS6nUWDg3Lo5UAUg+vh699rb70Un3/IXnqJcg3CFr0iCs5hK8MjmUWbjtza9gw3ogiuh2/p+Xr0pziKTzpVfLv10WtERPnP9fAtOvwoFa6xoGZcev44vUaUY+xtvfaJw0hSAjnR5lt23UTpNOVPUnzksXpLOHTLfnWTdLrzAdZ6KXdFa/dley854Kurq4t5kfmWlhbZsWNH4Z5KSq5as2aNdO7cWYqLi/UWZ1huyU1Oyy17OxARuYA13w5plmDTx9ZsuUigRiS4VnzBjSKhreIL1avb6yteV/f0+XxtJr/f3zpRdKz5Uj5yWm4ZvkkKWkEbanxXfM3viz+AQVVivnxKfcU/9FJsCOCioiI1MYx3YfhSPmKzQxqFglslUPu0BDdfLP5tl0hRwyNW8H6IW8J36KBgMCjNzc1qXARMWA6F0vPYRJSbGL5xBJtrJLj9dvFtPtUK3AfFH/xc35I5Joh37twpTU1Nap2IvIfNDlGEAt9IqO4x8Te9pLfEFvL3l1DRMGsaIr7igSJFfcTn72FNna1Xt9S6hy98P6smayYEKuaBQMBRDRe7LxjGEW3FhYTNDpSP2OabIjQvoFlBpCm8IYpg8WEipUeIr+xQ8RX101tTY0LYTPEggAtpEHOGL+UjtvkmKdj8uQS3XKGaF6IFL2q4gU7jJdTtRfFX3yn+irEdDl5AbRZvUllZmZSXl8et4Zp2YTZFEOU/hq8lWG8F6rZL9EG0tkL+PSRQ8WvxdX9eiqrOtwK3p74l/RC6CF+EMC7DHq3nA4IXAYzaHRHlr4IP38D2u8Vff6e1FNH64quQYPlVVug+KUUV39Mbswe1YYwWhhCOVhPGwThMRJSfCjp8g1tvkKKmF/TaLsGS4yVU/Yz4K8/SW9xjQjha+xFqv42NjXqNiPJJgYZvixW814i/Za5e3yVY8Qvxd705o80LyULNFzVgTJFwkI4BTJR/CjJ8g1uvs4K37eWLcEAt2OVBdSAtV5lacGQzBAOYKP8UXPiiqSEyeINF+4l0vV/8pSP0ltyFg3AI4MiDcQxgovxSUOGrDq5FNDUEiw4Sf/U9OdXMkAhqvghgjAVhhwDmQTii/FAw4YvuZJEH11Dj9VffYaVZmd6SX9A3OLIGjINw7IZGlPsKInxxAoW//g96LQxtvL4ut+Zt8BoI4Mg2YI4JQZT7CqPmW3u39V/bfryhqt/kVVNDLAheBHAkNj8Q5TbPhy/Gaog8c011JyvdT6/lPzQ9RHZDQ80XpyMTUW7ydPhidLLwIDm74ASKXO5Olip0Q4s8EYPjAhPlLm+Hb91j1v+23W9fhfiqrtQr3hNtUB7Wfolyk2fDFwOhR47HG+x0qSfaeWNB8EYOOYmeDzz4RpR7vFvz3TlNL4RhdLJcGKsh09D0EK37GRHlFk+GL6655m96Wa+FBTv9SC95X2TbL8KXbb9EucWT4Rusf9X6f1fYoE+vG8NCugXhG9n2y9ovUW7xZPj6mmbrpbBg6Sl6qXBE1n4TXaKIyAnsQcWaKDmeC99g8/J2Vxn2l5+slwpHZPjioBsPvFEqogVtookS81z4hhrf1UthuNill3s4xIJmh2gD7xAlwwQp5uYLHOUIzVhmwrq5zX5/is9z4etrbjtcJK4ynIytW9bIl1/M12vJ6+jPx4LHxGMng+FLqUJ4mskEbuDr9yX0n19K0cxvS8lTPaX0sTI1xzq243YTxPafp+g8dun4ZpGNx1nzXX9SqNs0q+Yb/yrDDQ075PWXJ8tnS2fJzp3b9FaRvv33k5NOvUkG7Xmo3hLb3Nl3y+L3/ypbNq/SW0SG7XeynHjqjVLdLbXXb/26T2TuG/fIp0tf01tEunXfXQ47cpwceuTFektsKPg7d+7Ua2EVFRV6Kffx0vHuMIGJuQreHWukaMH1UrzyObU9npY9fiSBQ26Tos79VZdHc+A38gCwlzktt54K32DTYvFv33UGmxq5rPvzei06BNzUP52lQhdhOXjPw6S6+wCp+eI/snjBNLV97Fl3yQGjTtM/0d7Mv06QRQuelz2+dYTsM/w70qm8i3rcf7/1sJSXd5ULf/K89Ok7XN/bGfO8YOQhZ6rntX7tx/LZx/+QdWuWyoGHnCVjzrhD3R4Pwtde+4g2EHuuYvhmnykrphkhsOZNKX3rQvHvXKe2OxEs7ytNR0+Vov6jVVkz5a1QArgww7dumlVI/qjXrHWM49D1Zr0W3UP3fFe2WrXVH134l3Y1XNSIpz50lgq7a37976g1WNR45/xjStQwNAGKMB5/zSwr+DrrW+LD773n94er5WjBbcL+5O9PSlgDxuhmeB8NDMCTbJi5heGbJpuXWtNHIrWrrRenXm+MDuGL/A1Y/wV2rJWylU+KL5j8CHmhks7S+J3XpWi3g1XzF4KX4duWt9p8AzV6ISxUNEQvRbfskzdUsB521KVRmxYQlmh2gPnvPqrmdgjJ/7z9iGoKiFYLRWie9P2bVVPEh++3v0pyLPPfeUTVuPGz0WrM+F34nW++MUVviS2ywKM2QwUisFPkv8+IfGGVva3LHQSvNVnzIIK3JSjFa/6eUvCCr3mHFP/7ynZtwLSLt8I3uFYvhPmKB+ql6Bp2bldNBXvv+x29pT0TyuvXfqLmdss+/ocKydEnXKu3tIfmCgTlf975i96SGNqO8TPxmjrwO/G7P1w4XW+JLrKJgR+AAvK5FbwIXcfCtV71Bf3NfClucN7UEE3x5g9EltzdGr7UlqfC1xf8Ri9pRX30QnQItwt//GzS7bEG2l8hXnjDPvudpGq/TnoroKkC98XPxGN+J9qm44ms+fJDUCBWvS5Su+vgbyIoFigZKB8tAZESBGcalHz+qGoGwuOaicK8VfMN7eqpAD5/D72UOlOzxIG0SOvXLlU9IhK15Zpw/9oK1kS+XvupmuMAWzz4nagd4yBcPAzfAoTmhq//rVeSYBUNVHpDdWulqHmz3tgxRTs+l9DGRWzuisJbNd9Q2zYtn9/ZAa5Y0Ld21ks3q4A94ODT9dZdUEPtVN5Vr8VW3W2AmicKSti6JVxb6dSpi5rHU919oGqzjofhW4C2rdALybBqpfg/ZIVkfceaG9r5ZiFrvVF4q+aLfr52vraX1kkEzQLovYAJvSAe+9MZ0scK3gvHPx+zdjvYQR/gVDjpW0wUVWOKtVYVkNaseYfekB6oSTN42/NY+HbMti2rVbcxTKhRYrd+5KjTEzYrEHkFGgfSnZMIXjY7tOex8G17FQcJJddNBrXNm2//Sq6f/LFc/JO/yuAhh8uM53+uasHoVkaUF8q664XUBPyVeik9AmW99RLZeSp8Q762p86GgqkFJmq6CGL0pz37okdULfj5J36sb22rJgPjOEC6xoeI3N0rlI7uBa1r/P7t8SAQAp12C6+kSaDbAXlzVmU2eesV8VXrhbBQcJNeSt3ew09QZ6+t/O+7qhuYHZolnGho2K7mffrtq+bxVHdz9pjQsHObOhgYD8O3ABWVi+z2bb2SBKtsoHiEyvtIo7/tZylVjeV7SKjHSJa7KLxV8/VHDB0ZWK8XOmYf3ae2cWfbmnSffvupUE7E9MXdzUF/4t36DVPzmi/idxVCMwhq5IkCneFboHY/UaTK+Re5VTKsfygffikp8sv2ihHhzR20fcA5rVfVZtlry1s1X3/b0ctCLV/ppeief2K8mhLBmXBqrmuwhumLi9OU48FoaaglOxndDH2CMRiPOYEjFpxdB4n6A0ce6OAHoIDsdY61KzVUrzhgFQ20DhQXF0lz90Okzt9L35Cauorh0rzP5WqMAzY7tOetV6RosF4I8wUS93fEcI2JzjwzQRhZczV9f//zTvtxHwwEM/oDjzz4DL0lMYxihlptvHbf/7zziArpRGfXRdZ8+SEoIGh++JYVwHta5RQhXBx7OFF8J4drvj4pKfZJRVmxbOx6nAQiD2I7FPBXyMZ9f6eGMLXXfPnlv0vRDTfcEHPYL9SaMCpWly6JO/zngpA0i6/x73oNGsVXHjv0OnfurcZR+HLlfNlv5Petb+gyfcsuOMPt7Tn3qeEmDz7MKsg2uD8K06IF06SxsVa+NfQYfUsY2oifn3qZVfg6yWnn3t/u8fHYX6/7VPr0axvqAwYeJAv/87Qs/fAl63mNUaOi2WFUs88/myNHHXdFu98ZCe+fnfkg5AOMTFZWVpb0F0a+lduMK+8t0n2EtVt1hEi/0QkmqzxZk6/f0RLoe5xsLBkuFZvfkeJg/EF57BqLe8rq4fdI+aDRUllZ2VrzLZTwdVpuPRW+vqIeIvVP6DVrPbRDQmUnxTzTDWeeoTAsWTxThV1d3SYJtDRJ3Y6N1m79G/LPWbfLv99+WB3UOuvCh6OGM3b7Ubv9dOksK8TfUy1njQ07ZP67j8nrL01Sg9+cP+4p6dlrT/0TYajVPjv1UqtW/brsMeTw1rPgAL+n1257yaL3p1kB/YJ6XiXFndTPvP7KLaq2jgGBxpxxp/6J6FDrbW5ue+IJhpTMFwzf7DLBaEISr3uwYndZV3WsBGrXSlXjF+r2eNZ3OUHW7fdHqdr9UKmqqlLlrdCGlHRabj12JQvrg7flCvEHPtRr1nrFL8RfMVavRYfwfPONu9qdqovdegw3eeiRl8Y90QIHv3BWHAZPt0NAnnjqb6IO3IOmjofuDg+eg7F+o7UHI2xfnHatarYwzHM65vhr9JbY8P7Za74oDBhMPV9wPN/sM81U+ALD1NjYKPX19bJ161ZpWjdfOn/9qnStWyRVzaukOLRTWnzlUluyu2yrPFB27PY9Ke17qFRXV6vmBhNAJoQKJXwLcjB1CNQ+JkUNj+g1qxAVHyb+6vg1RAMh+rUeOrKsvHNKo52ZdtquVk020QE2c+JGojPoENQ4+w6SOe0YHxz7ddvQ5IApXzB83WECGHOzF4Gy1NDQYO2F1ak5tuE2BCtqt/hSRxMD5ghdbMNtJnALJXihYMNXXTp+2yV6LSzU7cWCu4IxPjiR12/Lp0sIAcPXPfYAxoQvcbyuZjI1Y1OzxXtkpshmhkIKXnBabvPnk+iQv2SoBP176bWw4M5dF6AsFPiA2JkPCZETJjwxmXBFjRbNCWjLRbh07dpVzbFumhlwP9zf/vMUnSc/jaHS4/VSmL/pFb1UOCLDN/Iy8kROmPA0IWyC2DRhYTKBa0LX3J/i82T4+iu+Z/2/6833BddIoP5VveZ9CF6z22gk2gUiigVBmuxEiXkyfH3+agmWnqrXwvwNz+kl74us9SJ4+YGgdIgMWftEyfFuI2D5mXohzBdcKcG65/WadwUacMmWtgfaWOslyj2eDV9/yWCr9vt9vRbmb3hEQoGNes178LcV1f1KyndeIMUt4XZu0x5HRLnF059KX+XF1v+2M7pC9RKqvU+veI/626y/0RfaIqVNf5SyxglSwkovUU7ydvgW9ZJAp0v1Wpi/ebYE62foNe/A34S/rY2Sw8Xnz5/TiYkKief3R4uqzpVg0QF6Lcxf/wcJNi3Ra/kv2LRU/U12+JvxtxNRbiqMxsAqjIPQ9misr/ZWT7T/4m/w1d6i1wzrb1V/MxHlqoIIX3/JXmqAHTv0/Q1tn2ilV6Pekoes546/AX+LnRpMyPqbiSh3FUbN1+Kv+IEESsODnxv+wFIJbp2QnwFsPWc8d/wNdvgb8bcSUW4rmPCFoi7XSLC47eDj/sAHVoj9LK+aIPBc8Zzx3O3wt+FvJKLcV1DhC/7q31ohdbBeC1O1x21XqANXuU4dKLSea2SNF38T/jYiyg8FF76A8X0jAxjtpv7tP8npbmiqO9n2n7Zv41XB62zMYiLKDQUZviLFVljdrXbTI6luaNtuzqlmCNXMYD2nyO5kgL8Bfwv+JiLKHwUavmHYTY88CAc4WcG39ZycGAsCzwHPpd0JFBZ1cI1NDUR5qaDDF9RBuIrrrKWIUZlC9eLfea+ENp/vynCU+J343XgOeC5t+dRz5sE1ovxV8OEL6JoV7PpouzPhAKOhFdX/3grCsyRQ+2RGmyPw2Op3WL8LvxO/OxKeI54ru5MR5TfPXcOtowK1T+sLcO666m8kXJRTSo8QX9mh4ivqp7emJhRYK6HG+dave1f8Lf/RW6MpVeNUFNIpw7yGG+Wjgr2AZjqEAt9IqO4x8Te9pLfEFvL3l1DRMGsaIr7igSJFfcTn72FNna1XVw9qE2qSUHCHNW2y0n29hFq+El9ghTV92q7nQjQYGhMjtGGgoELC8KV8xPBNg2BzjcjOaVYIv2ytxXyZMsQXvhpH+ZlqbOJCxPClfOS03LLNNw6Enr/LLyXU/WVrl/+n7a6KnAn4Hfhd+J343YUavERex5pvkoLNyyXU+K74mt8Xf+Aja0tHa8RWDbdofwmVHCy+siOssB2qtxNrvpSP2OyQFc0SbPrYmi0XCdRYybxWfMFvrDzeJj7VPaw5fDcpkZCvwnq1qyXk72lVqfuJFFk1Wito/aX7qtupPYYv5SOGL+U9hi/lI6fllm2+REQuYPgSEbmA4UtE5AKGLxGRCxi+REQuYPgSEbmA4UtE5AKGLxGRCxi+REQuYPgSEbmA4UtE5AKO7ZDjZs6cKT7fruvLHXnkkdK9e3e95m0c2yF5zz77rHz++edyySWXyIABA2T16tWqvFRUVOh7xIf7P/roo7LXXnvJ2WefrbcmtnnzZnnnnXf0Wtj3v/99vVRYOLZDihB2Q4YMUfNccO2118rPf/7z1mnjxty5pD3lnuXLl8vUqVOlvr5eLR9zzDFy9dVX61sTw8/h5/Gz8UR+TlAu7eUUE8XH8M1xU6ZMUdPo0aP1FqLkVFdX66XM6dmzZ2tZJWcYvjluzJgxaho4cKDeQuTM0KFDZcGCBTJ58mS9JXPQtGHKKjnD8NXMbhR28wFzrJvdr9mzZ8u4cePUNkwPP/yw2kUD87PXXXdd631QCOfNmyeLFy9us+2ll3ZdlHPSpEmtjxXrPkSpQtk95JBD5I477tBbwm26CGOUNUxYNmXP3tSwatWqNvcz5T3R54ScY/g6gIMY48ePlzlz5ugtIrfddpvceOONei1sxowZrfdZunSpnH/++XLaaae12Ya2MISyHR4r8j4o7ETphOBFGzDadA0s28u1gW32+6GM3nnnnXqN0oHhq6HGuWLFitY2K8yxjrasiRMnyvDhw+W1115T25YsWSJjx45VYWsPUrTL4jbc54orrlDb8HPY9cO2W2+9VW1744031NzAY5n74HcACjs+LETpMm3aNDVH2TTl9Mknn1Tbopk7d666z/Tp09U6wviEE05Q2yI/J2jioOQwfBP44IMP1Nzv98tzzz2ndsVQA9i6dava/s0336g5oGuN6dJz2GGHqfnBBx/c2jVs1KhRah7pvPPOa70PCvH111+vlhcuXKjmROlw//33q/mZZ57ZWk4PP/xw9eUf6YILLlBd1WDkyJFqDqwQpA/DN4G6ujo1R3MAvvnNFG1XzQ41Zqci+2BWVVXpJaLMQ59Uyj6GbwKDBg1S82OPPbZ1Vw0Tdsmwno6ju3gsAwc1/vnPf6rlXr16qTlROqA2C6ZpC1CTfeKJJ/QaZRPDNwHscmG3DDVddFZHTwQcDEO7GQ64mR4PHYH2XTRn4LHxO/C70H6MXUKidDFnrKG8odKA3jk4AEfuYPg6gGA0AYyeCCi8aIZAG67T0zbjwUE5NGXgsfE7sI5uaETphOMJOHiGL3aUXxwwxjJP4HEHx3aIgHPUcaok2mwjx1DALhoOglVWVspBBx3Uenu0n0GNGPdHOJsDF5HbELDY5cNuIG778ssvVTOH/QCHgZ/DffBz6Qj8fMCxHZJnLydm3ZQ3bEd/dRwYRpmFTp06yYgRI9Qymr9QfiPLLZh+vKb8xfucmPsWag8Ip+WW4esie/iyq057DN/0MuXtyiuvbA3cWbNmqRow9uzYjzc9OLAOEbWBNl80ad13333qpCFMpunhmmuu0feibGHN10U4QQP9hI866qh2u27Emm8moOnBlDswzVyF0pSVDWx2oLzH8KV8xGYHIqIcxvAlInIBw5eIyAWOwjcUitksTJQR6ShzLLeUbcmUuYThi4s34gAGUTahzNkvHJoslltyQzLlNmH4YijFhoYGvUaUHShzKHupYrklNyRTbh3VfNE3kCibUOY6WvNluaVsS6bcxg1fPAhS3IxpS5QtKHMoe6kEMMstuSWZcpswfIuKitSDbdq0SW8lyiyUNZQ5lL1Uw5fllrIt2XLrqOZbWlqqRjDi0WPKNJQxlDWUOZS9VMOX5ZayKZVy66jmW1JSoqaVK1fqW4gyA2XMlLeO1nxZbilbUim3CQ+4IcXxgBj3s7GxUWpqavQtROmFsoUyhrKGMoeylyqWW8qWVMttwnuZWkRZWZm6sGNtba0sW7aMu3KUNihLKFMoWyhjKGup1noNllvKtI6W27ijmhn4JYFAQKU7ulLgl6E/W79+/aRv3776XkTJW7dunaxdu1bVGlCAMbRhOsIXWG4pU9JRbh2FL6Ag4+yNpqYmVYDRpQJTMBiU6upq6datmxpGDQ3OHf3QkDehDKH8YLjHLVu2yNatW9UuGi7LhAkFGeUHQ/Glqwyx3FJHZarcOg5fMDWJ5uZmVZtAYcaEZTw5FHIUaqJYUGhRSFFYUVNAwcWE5WQOViSD5ZY6KhPlNqnwBRRkFFRTmM2EAoxtLMQUDwoxCioKMgqtmbANt2Wq9slySx2RiXKbdPga9sJsn5vbiCKZAmoKsn2eqdCNxHJLycpUuU05fA0UWPtElAgKrH1yA8stJSvd5bbD4UtERMlLvRc7ERGljOFLROQChi8RkQsYvkRELmD4EhG5gOFLROQChi8RkQsYvkRELmD4EhG5gOFLROSCtJ1ezPPkicir0jmmg9Gh8EXQYlQoDLNmJoz0Q0TkJRj5DsOPmgmjmnU0iFMOXzwBDCSMiYiokGAgfkyocKYq6fDFNwBqvLj0ChFRIcOlhVADTmWPP6mfQPDiFzF4iYhEZSEy0QzInwzH4WsOpuGCcUREFIZMNPmYDEfhiwfF9a5Y4yUiag/ZiIxMJoAdhS96NOCqnUREFB0yElnpVMLwRZKjZ0NFRYXeQkREkZCRyEqntd+E4YuGZPRpIyKi+JCVTg++xQ1fU+tlkwMRUWLISqe134ThizaMkpISvYWIiGJBViIz0xK+SPGOnMVBRFQokJVpq/k6eRAiIgpzmpsJD7gxfImInHOamQxfIqI0cpqZcQfWQdsFBo7o37+/3kJElAOatops+lBkR014susxUqTzoPDcBWvWrFFnvCU6VsbwJaL8gMBdNlWk5kWRtW/qjQn0Gy1y6hy9kh1OwzdhswMRkatQs33zYpHHuonMu8Z58MKOlXoh9zB8iSh3vX+zyDN7WDXex/WGJPW1ar45is0ORJR7Ni0WmWPVdjGPxbTrRrbtomZci7bgL0UOv0tkhFVbziK2+RJRfkLgvnRsuI03EgJ3lFUbRltu58F6Ywzm50urw/MsYZsvEeWfWMFb2lVk9GMi51g12r0vShy8gNDNcvAmg+FLRLkBzQXRgnfwGJFzdeh6CMOXiNyHwEWPhsjgHXWTyIkv5nQNNlUMXyJy3xyrVht5sgSaGQ6+Wa94D8OXiNyFbmQ1M/WKhhqvx5oZIuVc+P7wo1Wyz7//K980tegtRORpCyNqtz0O8HSN18ip8EXwzvhmuyyrb5SR761gABN5HQ6yoT+uHdp4C0DOhK8JXuhc5Je1jS0MYCKvwxlsdkMvdNaNzANyInztwXvTHr3ktZGDGMBEXoeeDevm6hVt/+yejeYm18M3Mnhv3rO3HFFdkdUAXr16tUyePFmeffZZvSW7li9f3jp/6aWXWqd58+ap7USeFDlADtp6XRoG0g2uhu/dqza1Bu/Pdu+hgtcwAQwI4LM/Xq2WM6G+vl6mTp3aGoLZNHPmTDn55JPl4Ycflk8//VR+/vOft05vvPGGvheRB22MGLcBpwwXENfC97O6RrlxxQa1PLZXF7lhcE+1bIcAvmtoH7X8z811Kqy9qqqqSoYNGyZTpkyR66+/Xm8l8rDImi/DNzuuXL5OdgSC0q+sWH43pLf0Ko0+CMU1Vo34/3WvVMsIa6+1/44ZM0bmzp0rZ599tgwdOlStH3PMMfpWIg+LPJutgJocwJXwfXdrvarJwu+G7Cb7VJap5Vie3XeAav9FWP+2ZqPemn6rVq1Sbb9DhgxRE5oC0CQBkyZNUtvsTRNmG5oOsB3L48aNk+uuu671MdCObNqUzTb74+JnEbaYExUUXAbIrkB6ORiuhO8fvgo3HxzSpVy+26NKLceDWvFpvbuo5UfXblHzTJgzZ45q+zVuu+02ufPOO/WaM3iMGTNm6DWRiRMnqnCNfNynn35arxFRIXIlfOdvD9f6Du9aEbO5IdK4ft3UHLVf1JwzBU0AK1askOnTp6t1hKappTplHuOhhx7SW0Q9nv1xEcBEVLhcCV/0XoADO3dScydw8M34784mvZReF1xwgQwYMEAtjxy5q/0JzQZO2R/joIMOUnMwj2d/XKKChjF67eJdtcKDXDvgZmAcB0xe1L17d71ERO1EHmBrjDgA53GuhO/eFeEDbG9uqZMuxX41lkOipoSXN+7QSyKHdinXS9nTr18/NV+4cKGaAy6xBIMGhfsjE1ESekaEb2TXM49zJXyH694N0zdslysGhGuHZy5dFbcb2WNrw9+K6JrWo6RILWeT6f6FA2jowYDeCziwNnz4cNVFjIiSFNm7IXJYSY9zJXx/MbCHmuPg2aIdDeokC7QD9357mVz8yRq5Zvn6NkGMWrE5E+6M3l0dH6RLJwSsOfkBAWx6L/z617+Wiopd7dFE5NDgH+gFDW2+BdTu69rVixGyj68L12YxpkO1VZt9Zv02WbB9p9r20gED5dSenVXwnrz4SxXUaK54e9TgtIcvejPgoBpC1BwsA9OnF9tMwOJ+aHqorKxUB9RMu26ix7DXju3bNm/eLBs3bpSePXsmfCwiz3ndCmB7jRejmh37uF7JTzl/6XjUbI9aWKPaewFnsZ3fp1ou7Bu+VhNC9y9rt6imCQQvTrJ4er8BKpCJyCNqXrQCeKxe0U5flNdnu+V8+AIC+Jf//bq1BhwLTsa4a68+bbqbEZFHPDO47YDqCF4EcJ5yGr6udjVD88Fjw/vLp4d9Sy6yarymFwTgwBragh+3bn/vkD0ZvEReNTqimQHtvpGDrHuQqzVfIiJl3jUiS+7RK9qJM9oflMsDeVHzJSJScMFM+xlvg8d4fohJhi8Rua+0eteFM3HZeCxjm4ex2YGIcseOmrwfWpLNDkSUfwpoTF+GLxGRCxi+REQuYPgSEbmA4UtE5AKGLxGRCxi+REQuYPgSEbmA4UtE5AJH4RsKxTwJjoiItGSyMmH4+nw+dZoxERHFh6xEZjqRMHz9fr80NDToNSIiigVZicx0wlHNF9cUIyKi+JCVaan54kGQ4nV1dXoLERHFgqxEZjoJ4IThW1RUpB5s06ZNeisREUVCRiIrkZlpCV88WGlpqbq8OXs9EBG1h2xERiIr01rzLSkpUdPKlSv1LUREZCAbTU6mpeYLSHE8YKdOnaSxsVFqamr0LUREhExENiIjkZXITCcS3svUfsvKyqSqqkpqa2tl2bJlbIIgooKGDEQWIhORjchIp7VeiHsNNwO/JBAIqHRHVwr8MvRn69evn/Tt21ffi4ioMKxbt07Wrl2rarsI3oqKisyELyCAcfZGU1OTCl50qcAUDAalurpaunXrpi4ahwZnp7+ciCjXIfuQe7iY8JYtW2Tr1q2qaaGyslJNCGDkHi6YmUz2OQ5fMDXg5uZmVQtGCGPCMp4cwhlhTETkJQhbhCtCFjVcBC4mLCdzkM0uqfAFBDAC1oSwmRC82MbwJSKvQfgiYBHApleDCV3clsreftLha9hD2D43txEReYEJVhPA9nlHmlhTDl8DQWufiIi8CEFrnzqqw+FLRETJc9YbmIiI0orhS0TkAoYvEZELGL5ERC5g+BIRuYDhS0TkAoYvEZELGL5ERC5g+BIRuYDhS0TkgrSdXszxHYjIq9I5poPRofBF0GI0MwyzZiaM9ENE5CUYsRHD5poplfF7I6UcvngCGEgYExFRIcEFJDChwpmqpMMX3wCo8eKSQUREhQyXFkINOJU9/qR+AsGLX8TgJSISlYXIRHMhiWQ4Dl9zMA0XjCMiojBkosnHZDgKXzwortPGGi8RUXvIRmRkMgHsKHzRowFX7SQiouiQkchKpxKGL5IcPRsqKir0FiIiioSMRFY6rf0mDF80JKNPGxERxYesdHrwLW74mlovmxyIiBJDVjqt/SYMX7RhlJSU6C1ERBQLshKZmZbwRYp35CwOIqJCgaxMW83XyYMQEVGY09xMeMCN4UtE5JzTzGT4EhGlUdrCl4iI0o/hS0TkAoYvEZELGL5ERC5g+BIRuYDhS0TkAoYvEZELGL5ERC5g+BJR3sAJDE6mfMDwJaKcFxmuGDM32hR5v1wW99LxGJ0Hl0bu37+/3kJElD0mQO2BipCVTYvEt3GRSP06dbtU9JVQzwNFehyoLuOOKwqbCcw8G9asWaOu6ZZoNMjcCN+6j0RW3SWy4z2RnSvC24q7iVSNFOl/pfWCfi+8jYgKhj14Tc1Wltwjxcv/Iv7ty9VtkYJdhkrL0HEiI36mQtgEMWQrgPMnfFdOtJ7tfdar1qA3RFF9rMj+r+kVIvI6E7ytzQnffCBF714uRZs/UNsTCXQ/SAJHPCC+Xge1hjBkI4DzI3wRvKvuDC+X9hXZ7VyR3meKVO4vsv4x6694wKoVLwnf3uV/REa+FV4movwT2CmyzdqzbdxspWv865yZJoZAwJo2LpayRTeKL1Cvb3UmVNJZGo+bLkX9R6trqyF4Gb6ApoZFR4drvAjWvazaL0I30udXiax7OLy8+3Uie9waXiai/LHqdZGv/61X4kOlVzU1WFNzw3Yp++8j4m+p1bcmJ1jeVxq/966UdN29TVtwJjkNX/d6O6CNF8GLtt3dfxU9eGGve63bRoSXN84Iz9Ns9erVMnnyZHn22WfVen19vdqWDPwsHiPZnyPyNNR2P3vEefDq/xG+LYGgFK2dnXLwgn/nOil6/9eqImmaMszcbe6FLw6uQdcjEh9Q6395eI6DcagxpxnCdurUqbJ8ebgR/4477pBjjjlG5s2bp9adwM/iMfBY8QwZMkRNRAVhpVVhql2lVxxQtV609VpT3Top3f6xviF1pTXPS/CbheG24xwJXnAvfE2vhop9wvN4+lysFywbpumFzKuoqNBLRJS0zUtFtkbvlRCbVeu1/gVCQfFv6XjwGv4V0xxfVThbeJJFFDfddJPMnTtXRo4cqbcQUdI2J7eXilhUk6r5hqSo7ku1PR2Kvn6rteZrJre5F77o3QD1n4Xn8aDng9Hl23ohcyZNmqSaHUwzBMycOVPGjBmjmgwwv+uuu9Qy7mv36quvtt5v3LhxsnjxYrU9srkh2s8SeUptksc/dPpihoNtRc2b1eZ0KKr9L5sdWnUeFZ5vmZ24HRddzqDcCq9Ou4eXs2jKlCly7bXXytKl1m6UBfP77rtPLUfCdnO/OXPmyGmnndYmxIkKRktyXcMM9EJDFzN/qElv6TgctGOzgzH4Ruu3dwr3ePjwxNgBvPjoXX19e46N3SsiQ9B74f7771fLr732mqxYsUKWLFkiY8dazyWKK664ovU+F1xwgdq2cOFCtQ2TgWU0bxB5VnHqx0wQkkFfqV7ruGBRZU4FL7gXvgjR3c4PL7dsCQfwplfD68bCQ0S2614R6AvsQh9fBCcgVIcOHaqWcSDuvPPOU8uRTjnlFDXHfUybMWu+VJCqBuiF5KErblNRN73WcU2Ve2a8f2+y3D3ghj68OHECEMDbI/oCmhpvDyvQcBJGDmFPCKIEuqe2l+qzUsnv90ljWerhHamx++FtxnnIBe6GLzipzaI7WpabG4xhw4apOXo/2E+geOWVV/QSEUXVfT+R6vDeoiPIRWvCzG8lcEOVg26oDjXs/gOGb1wY5+GtTrumHICmBrTd4iAaekBcd911qjeDaQcmojj2GCtS5ewguc5e1eRQVOQTf2Vf2VKSRHjHsKXXKeLvNarN+A65EMK5Eb6m21k0OCiHXg4umjBhglx//fVqecaMGSqIzcE0IoqjqFxkn0tFdnPaRdQKRutfkVXzLSstltruR0uTpN7E11TSS2r3vVHKyspawzdXcDB1ixnLAe24AwYMUMvYhmVsw2nGAwcOVOs4eIbaMMZymDhxojoQh25okT8Dmzdvlo0bN7Y+LpiDb+bgHVHBcDCqWbhDAsbvDUlTc4vU1u+UulXvyYBVf5DiUKO6j1Mt/gpZvd+fpPJbJ0lVVZWUlpZmZWjJ/BpMPYchLE8++WTZb7/95NJLL5VevXpJTU2NCl6YPn06z4QjSiN0CVNdzYJBaWhoUBlU9+U70vuz30iXxmX6XvFtL9tbNuxzi1QOOlIFYadOnXJuVLPcCd9Ybbw5MIwkTrKI1sZ76623ytlnn63XiChdTADjxIjGxkapra2VTZs2Sfl//yy9N/1Nqpqjnz1XWzJANvT4oez81o+lR48eqsZrb3LIRrND/oXvf/YQadLXYzLQ3vutu9oOrOMS1IA//fRT2bBhg/Tu3VtGjRrV2pRAROllTohA7RdTc3Oz7Ny5U+XR9u3bRTYuktLtS6WkeaO6X3NJT2nqsp9IzwOlS5cuKvzKy8ulpKRE1Xiz0dxgsNmBiPKaCWDTBIFacFNTk5pQG8Yc2wA1W7TpopaLOSZss3cvy0bwAsOXiPKePYDNhMA1NWJ7+Joarr2JIdvBC07DN7f6+RIR2dhD1IQrmhJQs8VBtMrKSjVhGdvszQz2n81FDF8iynn2IMVkAjZyirxfLmP4ElHeiAzXWFM+YPgSEbmA4UtE5AKGLxGRCxi+REQuYPgSEbmA4UtE5AKGLxGRCxi+REQucBS+5vxqIiKKLZmsTBi+OFsEA+wQEVF8yEqnZ9glDF+cL43R5ImIKD5kJTLTCUc1X1ybjIiI4kNWpqXmiwdBitfV1ektREQUC7LSjK6WSMLwNYMU4/pJREQUHTISWWkGc0/EUc0XgxTjEujs9UBE1B6yERmJrExrzRejw2NauXKlvoWIiAxko8nJtNR8ASmOB8RlOnDRupqaGn0LEREhE5GNyEhkJTLTiYT3MrVfXBUU18DH9fOXLVvGJggiKmjIQGQhMhHZiIx0WuuFuFcvNvBLcJVQpDu6UuCXoT9bv379pG/fvvpeRESFYd26dbJ27VpV20XwVlRUZCZ8AQGMszdwrXwEL7pUYMLlm6urq6Vbt27qcslocHb6y4mIch2yD7m3Y8cO2bJli2zdulU1LUReORmXik8m+xyHL5gacHNzs6oFI4QxYRlPDuGMMCYi8hKELcIVIYsaLgIXE5aTOchml1T4AgIYAWtC2EwIXmxj+BKR1yB8EbAIYNOrwYQubktlbz/p8DXsIWyfm9uIiLzABKsJYPu8I02sKYevgaC1T0REXoSgtU8d1eHwJSKi5DnrDUxERGnF8CUicgHDl4jIBQxfIiIXMHyJiFzA8CUicgHDl4jIBQxfIiIXMHyJiFzA8CUickHaTi/m+A5E5FXpHNPB6FD4ImgxmhmGWTMTRvohIvISjNiIYXPNlMr4vZFSDl88AQwkjImIqJDgAhKYUOFMVdLhi28A1HhxySAiokKGSwuhBpzKHn9SP4HgxS9i8BIRicpCZKK5kEQyHIevOZiGC8YREVEYMtHkYzIchS8eFNdpY42XiKg9ZCMyMpkAdhS+6NGAq3YSEVF0yEhkpVMJwxdJjp4NFRUVegsREUVCRiIrndZ+E4YvGpLRp42IiOJDVjo9+BY3fE2tl00ORESJISud1n4Thi/aMEpKSvQWIiKKBVmJzExL+CLFO3IWBxFRoUBWpq3m6+RBiIgozGluJjzgxvAlInLOaWYyfImI0shpZsYdWAdtFxg4on///noLEVEOaNoqsulDkR014cmux0iRzoPCcxesWbNGnfGW6FgZw5eI8gMCd9lUkZoXRda+qTcm0G+0yKlz9Ep2OA3fhM0ORESuQs32zYtFHusmMu8a58ELO1bqhdzD8CWi3PX+zSLP7GHVeB/XG5LU16r55ig2OxBR7tm0WGSOVdvFPBbTrhvZtouacS3agr8UOfwukRFWbTmL2OZLRPkJgfvSseE23kgI3FFWbRhtuZ0H640xmJ8vrQ7Ps4RtvkSUf2IFb2lXkdGPiZxj1Wj3vihx8AJCN8vBmwyGLxHlBjQXRAvewWNEztWh6yEMXyJyHwIXPRoig3fUTSInvpjTNdhUMXyJyH1zrFpt5MkSaGY4+Ga94j0MXyJyF7qR1czUKxpqvB5rZoiUU+Hb9Kd7pH7s8VJ3/KHSMOEKCdXV6luIyLMWRtRuexzg6RqvkTPhi+BtfuEZCe3YodYDi96XnePPV8tE5FE4yIb+uHZo4y0AORO+La+/rOalF/5Yyh96Si2H1q+VwEeL1DIReRDOYLMbeqGzbmQekDPha2q8/iFDrRrveWpZqWXTA5EnoWfDurl6Rds/u2ejuSknD7hVzp6vl4jIsyIHyEFbr0vDQLohJ8OXiArAxohxG3DKcAHJyfBFbwci8rjImi/D131sdiAqAJFnsxVQkwOw2UGrr6+Xhx9+WIYMGaKmcePGyeTJk9XyzJm7OoBjecyYMWo75nfddZdanjRpkr6HyOLFi9XPm8eyP66xevXq1sfHhGXzM8uXL9f3IvIwXAbIrkB6ORg5M6RkrKaGTpPvlKLDj9JrmYHgvfrqq2XOnOiXG5kyZYoKWszvv/9+vbWtCy64QG666SaZPXu2jB8/Xm9tb8WKFSp4jznmGL2lvddee02GDh2q14g86iGfXtDGx4yivMIhJZMwb948FbyjR4+WBQsWqICcO3euDB8+XN8jXFM1wYtwxH2WLFkiY8eOVduMe+65R80R1LgPpuuvv15tM6ZNm6bmV1xxhXoM3OfJJ59U24ioMORE+Dbeeateaq/xgSkZP8343XffVfOzzz5bunfvrpYHDBgg55xzjlqGhQsXqjkC09RKKyoq5LzzdvVJRnPBJ598okIbNWXj3HPP1UthJsTPPPNM9Rhw+OGHtwtyIk/DGL128a5a4UGuh29g3tvSMit8dls0OMut6cG79Vp2mWCMJ9p9/P62L6uTxwHsqhAVjMgDbI0RB+A8zvXwbZ7xnF6KDeGcydrvyJHhQjBr1izV/guYv/zyri+FYcOGqTmaI9AEYbzyyit6KVxbRq136dKlqinDQDuwHdqHAc0XBh7ziSee0GtEBaBnlGuvFRD3a76L3tdL8QU/zNwYDyeccIIKzRkzZsiIESNUzwPM7Qfg0NSA0ESw4mDZddddp5oW7AfgUMNFjwU4//zz1TKmyANwaN6A2267TT0GHiveATgiT4rs3RA5rKTH5USbr9sQmg8++GBrjXTq1KkqjCPbYCdMmNB68AxBjSA2P2OYXhH4eYQ3psj7IMinT5+uDvDhMfBYWMZEVDAG/0AvaGjzLaB2X9fD17/X3nopPv+QvfRSZuCAGsIVvQ/QtGBvcqisrFRz9N89+eSTVe8E0+PBHHwz7bVoPujVq5f6eTwOHs8cfEMgA5o0vvrqK3nkkUdU7wpM9957r7z5Zni3y2kbMVFeQ80X12ez+8id4ztuKLrhhhtijlocDAalqalJunTporekn797T2mZ8w+9Fl3xSadK8Xe+q9fSDydOXHvttbJ+/XoJBAKqf/MLL7yg2mARmJdffrmsWrVKTjvtNHn//fdVGPt8PnnnnXdk4sSJ6jFQI8brdNFFF8mf//xn6d27tzrwhpotasIbNmyQn/3sZ6o543e/+53cfvvt6vXFtG7dOnUixmeffaZq26effrp6TCLPK+4ksuJ5vWLBiRd7WDXiij56Q/7BuRFlZWXtDrxHyomTLNDVLFaPB9SMO918u/h2y9ybgZroVVdd1VrzNBC8v/71r1U3MIh1ksWtt97a2o4b6yQLND2gZo1aLbqk/eIXv1Dd0uzQ7IAz5XDgjqhgPGPVgO0DqqMXxOn5O46305MscuYMNwya3vK356XlnfBBLoRuyQ9/JEWHHy2+yiq1LdPQQ+Gbb75RtdQ99thDDjrooNZ+vwaC89NPP1X3Qe121KhR7cJy8+bN8vbbb7feZ9CgQa09KgwEvvl9YO7DJgcqOOjl8PKxekXDNdzy9FJCeRe+RFTA5l0jsiR8dmirE2e0PyiXB3h6MRHlD9Ry7We84UCcx4eYZPgSkftKq3ddOBNNDljGNg9jswMR5Y4dNXk/tCSbHYgo/xTQmL4MXyIiFzB8iYhcwPAlInIBw5eIyAUMXyIiFzB8iYhcwPAlInIBw5eIyAWOwjcU8sb19ImIMimZrEwYvhg0HKcZExFRfMhKZKYTCcMXo7E3NDToNSIiigVZmegKFoajmq+5nDoREcWGrExLzRcPghSvq6vTW4iIKBZkJTLTSQAnDN+ioiL1YJs2bdJbiYgoEjISWYnMTEv44sFKS0tl48aN7PVARBQFshEZiaxMa823pKRETStXrtS3EBGRgWw0OZmWmi8gxfGAnTp1ksbGRqmpqdG3EBERMhHZiIxEViIznUh4L1P7LSsrk6qqKqmtrZVly5axCYKIChoyEFmITEQ2IiOd1noh7jXcDPySQCCg0h1dKfDL0J+tX79+0rdvX30vIqLCsG7dOlm7dq2q7SJ4KyoqMhO+gADG2RtNTU0qeNGlAlMwGJTq6mrp1q2bumgcGpyd/nIiolyH7EPu4WLCW7Zska1bt6qmhcrKSjUhgJF7uGBmMtnnOHzB1ICbm5tVLRghjAnLeHIIZ4QxEZGXIGwRrghZ1HARuJiwnMxBNrukwhcQwAhYE8JmQvBiG8OXiLwG4YuARQCbXg0mdHFbKnv7SYevYQ9h+9zcRkTkBSZYTQDb5x1pYk05fA0ErX0iIvIiBK196qgOhy8RESXPWW9gIiJKK4YvEZELGL5ERC5g+BIRuYDhS0TkAoYvEZELGL5ERC5g+BIRuYDhS0TkAoYvEZELGL5ERC5g+BIRuYDhS0TkAoYvEZELGL5ERC5g+BIRuYDhS0TkAoYvEZELGL5ERC5g+BIRuYDhS0TkAoYvEZELGL5ERC5g+BIRuYDhS0TkAoYvEZELGL5ERC5g+BIRuYDhS0TkAoYvEZELGL5ERC5g+BIRuYDhS0TkAoYvEZELGL5ERC5g+BIRuYDhS0TkAoYvEZELGL5ERC5g+BIRuYDhS0TkAoYvEZELGL5ERC5g+BIRuYDhS0TkAoYvEZELGL5ERC5g+BIRuYDhS0TkAoYvEZELGL5ERC5g+BIRuYDhS0TkAoYvEZELGL5ERC5g+BIRuYDhS0TkAoYvEZELGL5ERC5g+BIRuYDhS0TkAoYvEZELGL5ERC5g+BIRuYDhS0TkAoYvEZELGL5ERC5g+BIRuYDhS0TkAoYvEZELGL5ERC5g+BIRuYDhS0TkAoYvEZELGL5ERC5g+BIRucC3YcOGkF4mIqIsYc2XiMgFDF8iIhcwfImIXMDwJSJyAcOXiMgFDF8iIhcwfImIXMDwJSJyAcOXiMgFDF8iIhcwfImIXMDwJSJyAcOXiMgFDF8iIhfkzpCSoYD4m7aIr3m7+FrqxBdotLa16Btd5iuWUFGZhIorJVTSRYKl3axtRfpGIqLkuR6+vpZ68Test6YNekt+CHbqbU19rECu0FuIiJxzNXyL6r4U/851ei0/Bcv7SqBykF4jInLGlfBFbbeodoVqXvACNEcEqoawFkxEjmX9gJuveYcUb/vEM8EL+FvU32T9bURETmQ1fFHjLd6+LHcOpKWT9Tfhb8PfSESUSFbDF00Nngxew/rb1N9IRBlxww03yKZNm/Rafstam28mDq59+vmXcvn/3iOLP/6v3pK8P99+rZxxymi9lh48CEeUfgjdYcOGyQMPPCCnn3663pq/slLzVd3JMtCroaPBCz/+5RQV4umEv5XND5n1wQcfyP/93//pNfK6VatWyZQpU9TyQw89pN7/fJeVmm9R7RcZ6cfbbfj31fyN5+6Ug/cfqpbtOnp7R6AfcKBqT71G6VRfXy+XXXaZvPHGG/LWW2/JPvvso28hL5o6dapMmDBBr+1y5plnyu233y4VFfnZyyjzNV+cuZZnJ1Ckg/qbrb+d0u+vf/2rCl645ZZb1Jzy1wsvvCC9e/duM1155ZX6VpELL7xQFi5cqL5w4YQTTpBZs2bJfffdl7fBCxkPX5wyXKgK+W/PFOx+2mtBCGF8eCm/2A+aLVq0SC/tMm3aNLWHA7jv7rvvLj/5yU/U+tixY+Wggw5Sy/ks4+GLsRoKVSH/7Zli2nmxy3nzzTer5csvv9wzR8ALAd6rH/3oR3LuueeqGmxNTY3afscdd6hmJOPvf/+7OriGg2xvv/22CmDUfo899lh9j/yW+fD10MkUySrkvz0T8EFFjQiwW3rRRRepXVAwB2Mo9z3//PPy4Ycfqr2WCy64oLUJac8992zTfo8vVfMFO3nyZFUT/u1vfys9evRQ2/Jd5sMXo5O57IQfXacOrkVOmZYLf7tXoLb0hz/8QS3jA4kPKdr7fvGLX6htDz/8sKodUW777LPPWgMV790BBxyg9mLQpnvUUUep7agJ4z64zdwXYY22fi/JwgE3D59UkUgh/+1p9pe//EV9AFHTPeuss/RWUW1/JoBN7Yhy15NPPqnmeB+vuuoqVevFgbN//etfahsOtqF2i70a3Gav/aKt3zQvYc8n39/rzIdvDkBXsi2fvNRuovyAPp2m1ouDLpG7nePGjVO1JITz448/rrdSrkFY9u/fXy0jWH/5y1+qbaYrGd4/wF6M6dmA20z4oob8zTffqNozmp/y/b3OfPj6ivVCASrkvz1N8OE0wYsa7qhRo9SyHcLY1H7xQcWHk3IPmolQk8VBNDDt90899ZSaYzuaHwDhjPdx+fLlah3v76RJk2T+/Ply9NFHq214r/O5Bpzx8MUVIApVIf/t6WL69KJme84558Ts13nSSSepmhGw76/3bN++XcrLy1WfX9MjAr0jeJJFHBjrtlAV8t+eDvY+vePHj1ddjeL51a9+peYIa/b9zT2ooaKrIGq/gKaFnTt3ynnnnafWsd3s2eCLdODAgTJ0aPjMU9MUgTKBg61YPuWUU3iSRTy45lmhKuS/PR3+9Kc/qTk+iN/97nfVcjwIZ9SGAB/kfN0d9SoEJWqwgINrGKEMTUZnnHGGet+wdwOmiQH3R03XtPlu2LDrTFkvdDnLePiqi00WqEL+2zsKfXpR2wG06zmt4eCDbPr+4gNKueX8889Xc+yd4P3BiRY48IZaLLYhYNELAn2B0fMB7cAmfFFDTrT3k084sI6FA+vkFtRYx4wZ03r0uyMQ4l44FdVL7IFqN336dNXXF6EbCV+o+DLO52aGSFkJX3UFi60f6bX0OfaMazs8pCTMm3mvDNsrvePvtlTvz2u6pQjtgqaHQ0dhV3bmzJme+tDmO3N68f/8z/+osEXfX9R60fRw6KGHtvZmeOKJJ+SLL75QQW2C2Us4mDoHUyfKOhw4M00IaPs1TUx2ONMNX5oIa/R08NoXaNbCF4q3LvH8eAfo4dBSPUKvEVEi6JliekAYOMiKM9+8LKvhq5oftn1iJZRHT7v1FUtL1+FsbiCihDJ/hpsNQqmly94qpDwHwWv9bQxeInIiq+ELoZLOunbonRMQVFMD/ibrbyMiciKrzQ6RMnEQLtt4cI2IUuFq+IK6snHD+ry7zhv68QY79WEzAxGlxPXwbYULbTZtUZfeQY8INRB5rhyY8xWrQXLQvIBThtWZa74ifSMRUfJyJ3yJiApI1g+4ERERw5eIyBUMXyIiFzB8iYhcwPAlInIBw5eIyAVZDV9cjdQ+mWvwpwo/H+taXW+//bb6HdmG59PRv8uLMEA6hhFMlZOfjXefjvxuSgyX90fZx7yjUFYK4TOU1fDFIMkYONlMGFAZ1+VPFa7hHzkUnYErGCxdulSvZQ+eD54XtYWrEF9yySV6LTF8kO1frLiwYrwvU9xmv6x8sj9PqcOVKTD4/YYNG9Qcl31KBO8FxvE1cPUK8/78/e9/lylTpqhlL8t6swOu22QmXGFgwYIFHQpgyg9PPfWU+oBhjyQVn376qbpqbSy4DfeJJdHPU+pwpQkMho6Kx9NPP+0ofOPBxVLtwexVWT3DDR8+fDvaYfdi2LBh6sOBq5Fi9/CZZ55RVzk98MADZdGiRfKTn/xE3Xbvvfeq7f3795eLLrpIvvrqK1Wbxjcv7telSxd18T2MeI83D+tgHuv0009X64BaEX4GTjvttNbrfGGX5/HHH5c1a9ao3wMjRoxQlzDBY+JS1suXL1e3obBFPl9se+utt/hBt0HgYk/kpJNOUnP7hS3tr595X3E7rmIAgwcPVut47VEO/vWvf6n3w7xfqC1h26mnnqqudmzuG+vncfUE7BrjsjRgLxfmeYK9TFB8uL4arjiM9zdStM8ZKluodC1btkxdSggQ3hhA/ayzzlLruHwQrlxsKmbr169XZcT+vuC9RwXOfPZMVuA9xs/hc4oMOOecc3LywpuuH3BDqOLNw646ghi7prjuFq5yiqDGm1JXV6cCsXPnzmp7ZWVlmzahqqoqtR1vAgLamD17tnps3Pbmm2+2vpGYYx3b8Wb+6le/am2rwpVUAbftueee6lv966+/VtvMc8Ftxx13XNTnS+3hSrT4YGLX/7333mt97yJfP3w5YxuWjzjiCDVhGcxrj/fEfn03fPiwDbfhPhDv5/E+P/roo+p9x20oBwhd/F6zDfMlS5aon6PEzDX3cCVihK25ZD8+ZytWrGh9TfE5w+uMzw6uVrz33nur28x7hG3Dhw9XnzcEJ2COoMYFVVGGMOELG4+Dile0rMD7iZ/BdtxuvohzTU70djChNWfOHBk7dqx6gVFzRC3SXAYcH7B3331XvZB4k+zfZOb+eLHtH8wbb7xRfUvitkmTJsmECRPUdsyxju24HfdDTQjfpFu2bFG/F7fhcSOvsoqCg9swxXu+FIYPCmo42HPAHgler1deeUXdFvn6oQaK9xXLCGJMWLYzF1FEiOIDiC9Yc8FFI97P430ePXp06/XAsIzaLioB+KCiFg2odZEz+AzhApiodeLLzOzZ4HNmPg94vY8//nj1nuM9xh5J165d1ftj3iNsw/sQCe8R7oP3/rLLLpP58+erx8Fn0/7Zw/sHeByUOdxv3333zdkLb7oevqaR3bwBqNXadevWTc3xIuPNxe4IDtThQ52I/bFwAT47+3qvXr1k27Ztatn8PiPy+USK9Xwp7OWXX1aXgDdhiA8M2n+NRK9vNCgHCFGE+Pjx45O+sCK+7HEw1hyQRdmC5557Tj1HfIGjKYuSg5C7/fbbVQ3U1H7xeTWv9ZAhQ2S//fZT29MhVtlBuJs9YOxZpXqcIdNcDV+8KGijRc0T8Mbgg2mCFbWbadOmqWXcF7ut+IZDbQnfaolg99IUAjRb4FsTMMc64Hb0vMC368CBA9U3pnmzULOyB0WkyOeLnzPPl8Kv7YwZM2ThwoUq8MyEgMNrFfn64YvYvF/x4EOO5gv87LHHHqu3OoO2wR07dqiDOqhpY48K5Qq/95NPPlHb/vjHP7bb46Ho8BnFF5V530xlCl+I5vOG1xTTbrvt1lrJ6ihTdvD78bvRxIEvecBzQDBj7wXZYtrxc03Ww9fUgDChLRDtRWa3AG8MajL4MOB2c1AE0A6E3QkcSUXzg9MPHdqK8Fj4YKHGBDj4ggNq2I7HxIEefBhRYPB8Jk+erG67+uqr1TwWPN/zzjuv9fnm6pvsFhx4RLte5MEONA/hvcfrhw8Haid4/W655RZ1ENUJlBN8CUfbTY0HIdCnTx/1vuN3opaLL1lMeE5ot8SeFWu+zuA9xGfJvJ5o1zWfW3zOcBAM283nw8mXqxP4vfisooKFkLfXgvE7UKaQFfgso705F+XseL54AaPtTsbaHk8qj5Xs70nledEubrx+0X4n38fUxXrtMvWaYo/JfLHjd+ALAMeEzO/K9feSg6kTUd5B0wKaLLH3g1o1mre+853v5NWBUoYvEeUlNBWh1wOgDRhNEfmE4UtE5IKc6OdLRFRoGL5ERC5g+BIRuYDhS0TkAoYvEZELGL5ERC5g+BIRuYDhS0TkAoYvEZELGL5ERC5g+BIRucCPsTiJiCg7kLkTf3Oj/H/MDEwYwV3gQAAAAABJRU5ErkJggg==;imageBorder=none;strokeWidth=2;movable=1;resizable=1;rotatable=1;deletable=1;editable=1;locked=0;connectable=1;" parent="1" vertex="1">
          <mxGeometry x="-630" y="110" width="351" height="637" as="geometry" />
        </mxCell>
        <mxCell id="myNyhjmuBwBBh0yOWU_x-2" value="" style="shape=image;aspect=fixed;image=data:image/png,iVBORw0KGgoAAAANSUhEUgAAAWEAAAJ8CAYAAAAvXxAPAAAAAXNSR0IArs4c6QAAAARnQU1BAACxjwv8YQUAAAAJcEhZcwAADsMAAA7DAcdvqGQAAFziSURBVHhe7d0JnBXVnf/9X9PIvgmyqAgKCi4gqMGdqBPMaFTcnhgddRyXjM/8jck/iRqTx6AyJjGjL824ZBQjyuBuVMQtEYwriBpEDIqAggIKssm+NvRzP6frtNXXe7vvfm53f9+8iq696tY99atfnVpuRXWCiYhIEC2ivyIiEoCCsIhIQArCIiIBKQiLiASkICwiEpCCsIhIQArCIiIBKQiLiASkICwiEpCCsIhIQArCIiIBKQiLiASkICwiEpCCsIhIQArCIiIBKQiLiASkICwiElBJgvDNN99sJ598sm3YsCHqIyIiKHoQJgBfeeWV9txzz9kDDzwQ9RURERQ1CPsAjJtuusnOO+881y7Nw09+8hPX3H333VGf8vfggw9aRUXFNxqRYilaEE4OwP/xH/9h7du3d93SPNx2222u+fDDD6M+IiW2dIrZsyPMnjy0pvnHH6IB5aMoQVgBWBqr7373u/aPf/zDNf/6r/8a9ZVGafVHZs+fWNPe60izrgeYvTOq7AJxwYOwArA0Zt27d7dBgwa5pkuXLlFfaZQ+fsRs2zqzkyebHZkIvMfeZ/a9F8wG/99ohPJQUZ0QtedNAVg+/fRTu/XWW107VRE45JBD7KijjnLt//3f/+3+YuLEifbSSy/Z6tWrXcA79NBD7bTTTqtTZqhTxsiRI23p0qX29ttvu+499tjDLrjgAhc0/XzQuXNnO+uss1wQ9RjGOPjpT39qY8eOtTVr1rjuVMv0WLb/DAXcTaRU5o4ze/nfzE5IfPd9T4l6JiErnvdQTfugy8y+eMWs2xCz1jsnph9fE8A9Muu/Jc6OvvecWZvudacl0z74/6vpny2CcCEkgi6lNOdm2rRp0ZykMUucxqf8fn2D9evXVydO9VMOP+mkk6qXLVvmxkOqcXyTCO5p5xMvTw888EDKcXzDfBYsWBCN/bUf//jHteNII/XEsOrquxLfH3/fvzXqGXn536qr7+1Y83fKT6qrHxlY0037pkQZZLo590cjJ/z19Jr5gHH8uH5aPyxLRb9FTZqXDh06WCJ4ucYjE473+9WvfmX/+7//69rvuusuV//69NNPu/G4lfGGG25ww5IxPbc5JgK1654+fbqbD930jy/zP//zP6O2b/r1r3/9jfn47F2amDMSZ07H3W/WqpPZ1J+aPbqv2eblNc2cRP9ho2uqKaiuOPX1aKIEMtq9TjebdWdNN+MveCpRmH9d0/6PxBnddx6smc5Pu/ydmguB2YqCcUHEs+FEQY/6SnPly0IiOEZ9ql3G6fsnAm/Ut8bkyZNrh/nM1HfH50EmTfZKf/7S7VHu/DS+fzwTTl4m8/XDkrPh+DBpApa88XX2+unEmkw3Gdksw/HV7Jpx+OuzXfhpUzUMy1JBM+ErrrjC1QWDTGTUqFGuXcSbMuXrTOGJJ56ovZeYxmfHSATQqK0Gdbce9be+jpm/8frcgQMHRm2JxGXBgqjta9Qtx/3Lv/xL1Gb2/vvvR23SJCRnpb0SZaZLIhNeNcusddeafsnjbFsbtSQw7u7fMXv7V2bzHzfb//+t6e+nPTJx9kR9c7zpeXjNsCwUvDpCgVgyRdD19xLTxINwqcQD+Lp166I2aRImn1Vzj/Bnz9RUIXChjotrvY6uCcjdh5m9enFNP4ZP/b+J9jnRxJHBP6mphnDt0V0VftoP7zLrvE/NRb+1n5gtn57Thbmi1AkrEEs6e++9d9RmNm3atMT5W3XKJn53QyFx90bczJkzo7a66yZNwIjHzLYmMtu/JM5+xvWouVOi35lm37quZjh3OezUyezR/WqGL52ayH6/PpNyCLAE3CE1d33Vik97d0XN/cetc7ylMVHgi0Z1xM2b/+7j9bngDgj6U5/L3RSg/pa6W8pMnJ8Hw+J8fW3yvOP1v37e8X4sm7pnhsX7sy7JVCfchFAfnA53QtDkijrjPBT17ojkjLgxvUNAiufGG290d0JwV8LgwYPduxm4q4J3i3Cfub+ntxi4+2LEiBFuufF3mdx5Z3QVXJomqhDSoQohl/t7PeqO81D0W9R8IOYR0DPOOCPqK80ZVQ1//vOf69xSBgJzIjv9xsWzQuKWuDhuU6Na5LDDDov6iJRWQZ+YE8kW75jmLgYy4T333DPqW1i8Gc1nvb64z5o1q6jLFMlU0TNhkfpwdwKZcamDYYhliqSiICwiEpCCsIhIQKoTFhEJSJmwiEhACsIiIgEpCIuIBKQgLCISkIKwiEhACsIiIgEpCIuIBKQgLCISkIKwiEhACsIiIgEpCIuIBKQgLCISkIKwiEhACsIiIgEpCIuIBKQgLCISkIKwiEhACsIiIgEpCIuIBKQgLCISkIKwiEhACsIiIgEpCIuIBKQgLCISkIKwiEhACsIiIgEpCIuIBKQgLCISkIKwiEhACsIiIgEpCIuIBKQgLCISkIKwiEhACsIiIgEpCBfBqlWrbOPGjVGXiEh6FdUJUXtOnn76aZs5c6Zr33XXXe3MM8+0rl27uu7m6J577rEbb7zRtb/wwgs2YMAA1y4ikkpemfDDDz9sY8eOtSFDhrhmyZIldtVVV0VDm5+5c+e6APzqq6+6ZuHChXbFFVdEQ0VEvimvTPjUU0+1iy66yP31Fi9ebL179466mpfJkyfbpZdeap988onrJihPnz7dzjnnHNctIpIsryBMlrf77ru7wNOuXbuo79eoG33iiSdchtyxY0c76aSTak/PyaK7d+9uCxYscMOpyjj33HNr5xOv5hg5cqQNHTrUtVPX+uCDD9bO87jjjqsdxgGAzPzII4+0qVOnuuEXXHDBN6pHCI7PPfecrVu3zi33xBNPrD1wvPfeezZx4kTXvs8++7gDjF+n+tZ59OjRLvN9+eWX3TI95uGDMOv3+OOP1y73mGOOsUceecRGjRrlhotI85NXdcR5551nr7zyigsyBCiCrkewvPDCC239+vWuqqJXr14u2BEAMW/ePBe8O3To4Ia/9dZbdvPNN7thZJTPPPOMjRgxwgWxO+64w82PhmURAP08qYMm4ILh48aNc90MZ95t2rRxwzyWz3r45bJ+BG4Q+K+99lq3TIaRxRIgmS/qW2e6+/TpU9tOA6YB2+ayyy5zAZhhzOPKK6906ysizRiZcD5WrlxZPWHChOqLL764ul+/ftVTpkxx/R966KHq66+/3rV79LvllltcO8Po9mbMmOGmj8+P9jjGp3/cpEmTqhOZsmufM2eOm8eGDRtcdyo///nPq8eMGRN11WB8mvj6g34sj2WgvnUG6023R7ffBiyTZccljy8izU/et6hxqs8p+5/+9Ce7+uqr7fzzz3f9yQDJ8vr371/bXHPNNS4T9OJVGL59xYoVdvzxx7usctiwYa7KgyoCMM9TTjnFtXuMN2vWrNoMG/H5JnvqqadcNUAc41NVAKoyPPozf59pI906N4Tsffjw4VFXjf322y9qE5HmKq8g7AOX54Mb/X19LLdpxRsu5DWE4EY1wDvvvOMCF1UOnM4zz/nz50dj1fBVBZleDBw0aJCru03mA2ryZ1q7dq2rnsgXdcC+jtubPXt21CYizVXOQZjskDpO/hIgCV7clkWQIyByEY5MmIDHxbhddtnF1bHGM8l0qJulXpgs22ePBFvmSf0ww+gm+33ggQfsRz/6UUbzBQeB22+/vTa75i/12awzB40//OEP7rMwf9aDzDk5g80F9dBsj1tvvdWtN/P2ddEi0nzlHIQ5bSeg/f73v3fVBmTBXKi688473XAC7/jx413AoyqCcahOSL5Qlkrfvn3dXQN+Oqo5CJLxeQ4ePNgFtoEDB7qLZZmi6uTss8922TXz50KcD+BUfXTq1Ml9FubPxUHu7sg0y64P8+BMgOoYLsiR0V9++eXRUBFprvJ+Yg5kwgTXdNkow3N5iq6++ZKt5hsc082DLHjz5s0Ff/KP+cY/C9kwgZ76dBFpngoShKVhVKGQ3ZOFc7GP+mCqI37xi1/UuRgoIs2LgnAJkfm+/vrrrp6Z+uf4Qygi0jwpCIuIBJT3fcIiIpI7BWERkYAUhEVEAlIQFhEJSEFYRCQgBWERkYAUhEVEAlIQFhEJSEFYRCQgBWERkYAUhEVEAlIQFhEJSEFYRCQgBWERkYAUhEVEAlIQFhEJSEFYRCQgBWERkYAUhEVEAlIQFhEJSEFYRCQgBWERkYAUhEVEAqqoTojaRUSarHShrqKiImoLQ0FYRJqseHjLJAiHCMgKwiLS5Piwxt94+44dO1y716JFi9rAy994e6mUfRDeuHGjvffee9auXTsbOnRo1FdEJDUfeH3jAu/ccdZi4XPWYtW71mLjF268He12sx1dD7YdfU4yG3BBbUCON6WQ14W5/v37uwCZjP5z586Nuur38MMP29SpU6Mus0suuaTOPEeNGmVPPvmkPfDAA67/qlWroiG5Gz16tC1evNi185dlFmK+IhJWPPhu377ddsweay0f7W+tpvy7tVz0tLXYsCgx0nbX0E4/NywxDuMyTXwepZD33RHXXnttXgFs3rx5tnz58qjL7Oyzz7ZddtnFtRPIn3rqKbv55ptd8/LLL9u4cePcsHwwDzJsdO3a1U455RRr06aN6xaRxikePAmmFVN/bK2mXprIfGsSrvowDuMyTakDcV7VEWS8p59+umsnSHr0f+GFF2zAgAGum4DnM8/kfmPGjLGBAwfaMccc44YReHv37u0C+0cffWSXXnqpm5efhgDNcM9n3PSjysJj3ozv5+WHrVixwk488US7++67bd9993VBmHH9eoHxGY9pkpfl5+fnHV+miBTQ1jVmy942WzPPbPOKRJStW58bRxRLhMzEKIkATPXDor9aq6/+Hg3NztYBl5oddZtVVlaWpGoi7yBMgCSQHnLIIXbOOefU6U9gI8Bddtll1r17dzcM1113nQtiBMO4Tz75pHbaRx55JGXWe8stt9ipp57qAuFvf/tbl0nvs88+7u/111/v6o2pbpg+fbpbJ/6ybLJd/OxnP3N/ccEFF7jMm/Vg2aBq5Pzzz3cHF+bJPK644goXbOMHndWrV7u/t912mwKxSKGteNfss2frDbxxhLFE/E1ksYm/K2ZYmy8S0+Zh8xF3WYt9L3SBOH7xrhgK8rDGr371Kxc0k+uHCbQE4Msvv9z+9Kc/ueawww5zQZgATeAjEBJYfRD0qAv2GTDDaBjPu+OOO2z33Xe3p59+2mXhN910k5sn3QsXLnR1zczjzjvvrK3uIHj75TBvhseR6RKAX331VTdP5rF27Vp78MEHozHMhg8f7obxWfr06WOTJk2KhohIQRCAP52YRQAmC64JxFWJLLjVstdqBuSh1cwbrKqqys3TN8VSkCDMKT1ZaHL9MFnwrFmzbMSIEVEfs3PPPdfV7cbHywVZ8kknnRR11VRzkJHOnDnTZb0+O6XKgGw2E7Nnz3YHBV8FwTzOO+88e+utt1w39ttvv6jNbMiQIW55IlIgVEGQAWeFIGnuLoiKle9Zi6q1Uf/cUUdcMXecm2cxAzAK9tgy1QCc2lNFUJ/Nmze7v43lQhjZfJcuXaIuESkq6oAzzIDrSATK7YnJKtfOi3rkr3Lx8+4iXbEVLAjD1wl7ZKfHHXec3XPPPS6Y0VCNQLaZbz3q1Vdf7eqifUY9efJkN3+y7rFjx7osHFQxZHpHBVUNjMu8wDyYF/1FpAS4CJcFklRXFZFouCBXuWWJ618IlatmlOROiYIGYVA/PGjQoKir5iLckiVLbPDgwa4BF7ryRbUGd1UMGzbMXTCjTpqAfOSRR7qMnLst6E+g9hfTGkK1yhNPPOHmxbTM4zvf+Y6rSxaREuAuiGwlYiM3ROzYUW2VVeujnvmr3LzUVUckP2VXaCV7Yo4stVh3EaSbdz7LLOb6ikga00cngmrmQc9lwon/qrZX28YtW63LnP+ib83AfFVU2uqzam5VbdmyZdFuVSt4JpxOMQNaunnns0wFYJEA2tQ8qJWrqsoOUVv+qlr3jNqKq2RBWESkQZ33iVqyRzDb0rJHTUcBbOk02N0jXGwKwiJSPnocalaRZViqSASyxCQVLSpsU9v+Uc/8beoxwlU/FDsQKwiLSPlo1dms78lRR8OooqWWlqZlZaVVdRlsWyvyr5LY2qqXVfU/r05dcDHqg6EgLCLlZZeDzfYcSWob9chAIkBWJkZv1aqlrWp/eNQzd6v6/SQxr1buseVi00vdRaQ8ZfgCH3eHROIft6ht2bbd1qzbbC2/+Kv1qPogGiM7y3r8wKoOu8U6d+5srVu3rvOe4WLIKwgvXbo0avtax44drX379lFXdpjf+vXrbe+99476fO3jjz+2Dh06WK9evaI+xbd161bbtm1b7eeh+80333TtBx54oO28886uvRA2bNhgO+20kzv6FgLvz+AtdJ06dbKDDz64YPOdMWOGewgn+TtO3lYN+eqrr+z999937YXYlvWVHWn6CGPcz8vDFZs2bXLPDLR99xfWa8Xj0RiZWbrL923Twb93zwy0bdu2/F/gwwt13n777ToND2bkimk//PDDqKsu+ucz70xNnDix9uDywQcf2EsvveTa8corr7i/vDiIdeHAkCuWwbI8lsPyCoEAN2HCBPeqTo7k+SDo0ni81GjdunVR19eSt1VDxo8f795uF3+7Xj7qKzvSPBAoCZq8EoFXDWw86Eab3+fXtimDOyYYh3GZhmmZh3+VZbHlXSc8cuTIOk1TykQOOOAAO+GEE6KumkejeUqPz1iozNLjybyDDjoo6soPAWnPPfd0b3ljnoVe11SSt1V9OEjwSPj+++/vmkKeUUjz5KsLaLiYxn3+ZLMtD7jE5n7rRZu72y/ty3ZH2abK7ladCHs0tNOPYYzDuEzDtKW4IOdVXsdzxTniNY7HH3981PU1djKG8dTZO++847K+3XbbrbaSm1NlXhc5Z86c2nEIboz35Zdf2sqVK92panw6xqWOZtddd3Wnvm+88YYb57PPPqs9dYgjy/TzTh4nefnM06/zp59+6l7ozqktp9e8+pJTbIYxHcueP3++ez0mWRzzBdkiy2KeLId1ja8nn4X14PV4vM+Ct699/vnn7vP26NHDZXG83Ij5pft8DW1XTJs2zb1SdNmyZW7eDGP6VOsHthPzfffdd938CN4ewxYsWOD6L1q0yH1HLJ/txfjMi3VnfozHtuINdH4949vX4+yBz8aBgtNGxmWadOvH8Ndff91l2smf10/DNmI5bFvWUZqneLCkCoFyQgJCUN3R9UBb2/1E+7Lnv9jnvS62Jbv90L7qfYFt63O6te19hHXr1s1Vd5IBlzIAI+9MmB013rDTbNmyxe1onAofeuihtmbNmtpTeQIZp8q8dY1hBCTG9fxL2BkGft4oGf2o62QcdmDml4x58i5gxmFcTn+RavkELgIt3T179nTvuGBn5rSbYOaHgWG0EyT8aTnTMx/6M18OIvDrTn8+03PPPeemYd7Mh2UxjPmzHD+/+HR8PtadOuP6tqvHvPv161c7bwJg8vrx+dkOYH7Ml2HJAYx+zIuGds+PTwD229VvKzB/zhYYh++Ag4rH+vh3iPhlsn4c1Oj268fnpaE9vnxfJx//TFS7UP8tEg+eBFMO6Fyn4hd5uJ7E/tS3b1/X0E4/hjEO45Y6ACPvIMxOEG/iF2Y41eRD0t+/mYws7Xvf+547VWbYySfXvSeQdwT76XiBDhkOGZBHezy78plofByPHZz5HH744e70l3FSLZ8fEuWISTdfBPOMnyL7YWAY7QR2j+mZD/19FYBfTz4D/flM/v3HzNtntwyLVxekmo73FhNwvFTb1WPerJufN99H8vrx+eMv4PfbiSaObuZFEx+WarvGUWdOxsvZxBFHHFHn87E+/jtjHqwv60cgBePSzuelYV5kKNhrr73cgQypPpMIfAAlG6YhsJLhUo4Itr5M0x7Pfv34pQzAyDsIsxPEm/gOl058HO4IiEu+kJTuHQ6czvqG7IkNmqnkoIB4tpaL5M+B5HXP9CJZ8nQUGLLPfMTXj4JHVUCxHHvssS4TpoqFrD6TbcvZg/8+OWvwB1mqaHx/xom/LjX+mTIpd9J8+EAaD8ZUT1Bm4g39koMvTSnlHYSztccee7hTSr9jUrcYxx0WVGmAbIp6TZ85gXZOfdlJyTi5IER9TjwDr0/y8jmtPfroo/PaiZnenyYzXzJD1pN193dQcGrNZ2tIqumoE43X1WYref1YD24zKxbWnWydC7Vk9Q39igrrB75PGg6oHND5jgm8rCv92QZ+OyR/Jt8uEhcPrJk0IeQdhK+66qo6Tfx2plQImpyCXnPNNW58X4/osQNSD8iw559/3k477bQ6AZJ2fgeO34hjHObzxRdfREMbxs5MfVB8+fm+tJ27Aqif9evDxSXWk3XnM9D/scceyyhb95+PwMt09957r1s/glKukteP+my+h2IgIFJFwQ+g3nfffe4A2dC6s35c+GP9aMigmQ/T8dnZBvSn/tnXt9OfC6T0v+uuu1w/kfqkCro0oQV7Yo6drL7ss6HhyGSc+uQ7fbJ088t1OaVav2LJdnn1jZ9uWKk/k0ih6bFlEZGASl4nLCIiX1MQFhEJSEFYRCQgBWERkYAUhEVEAlIQFhEJSEFYRCQgBWERkYAUhEVEAlIQFhEJSEFYRCQgBWERkYAUhEVEAlIQFhEJSEFYRCQgBWERkYAUhEVEAsr5lzX4yXQ/Kb/TFG9HumENtcdlOq+4dNMk9/fS9UchpqGb9mznlW1/ZDIN7fHh2U6Tbnwkj5dqmnh/1DdNunbQ7dtFQuMX33OVcxBu6Ac9RUSaC35AOFf6jTkRkYBUJywiEpCCsIhIQArCIiIBKQiLiASkICwiEpCCsIhIQArCIiIBKQiLiASkICwiEpCCsIhIQArCIiIBKQiLiASkICwiEpCCsIhIQArCIiIBKQiLiARU1CA8d+5c27hxY9RVeKtWrbLFixdHXdmpb93oz3ARkWLLOQg//fTT1r9//5TN6NGj3TgnnnhizkEyE6+//rqNHTs26spOfetGf4aLiBRbzkH41FNPtU8++cQ1t9xyi11wwQW13aNGjYrGEhGR+pSkTpjMMvn033fzN56R+n6pqgN8/+RqhFTz8aiySDcsrr55iIgUS0F+6JOqiZkzZ34jA6Zq4vTTT3ftq1evtuXLl9t9991nXbt2rTNs3rx5dtNNN7n2K6+80vbZZx83fpcuXVzVRrt27dzfhQsXun6Mz3yojnjmmWfcdH369LFx48bZDTfcYOecc47rN3XqVDv//PPdcpjmkEMOsSuuuMLNj+W/8MILNmDAAPfz/ddee22d5T711FMuqxcRKSqCcL4mTJhQff3110ddX+vXr58b5jHOQw895NrjwzZs2OCakSNHVk+ZMsX1wy233FI9ZswY1874jIM5c+a4v0zPNPH+fjzfvmjRIjeMfj//+c/rzI9x/HInTZrk+oNxGC4iUmxFr47Yb7/9ojazIUOGuIzU88PITKkGmDVrlk2ePNllvTQffPCBLVmyxI1DnTMZ7j333OO6PbJbpgdZLZjX7Nmz3TS9e/d2/RjnvPPOs7feest1e365I0aMiPqYHXPMMVGbiEhxlaROOBtnn312bXPVVVfZRRdd5PpT1XHnnXdahw4dcr7rgnpfqhpERMpF2QRhstjjjjvOXn31VddOBks2S/0xwZN6Z9rJhqnjTb44l2z48OGujpjMGgRtbmejf5xfrs+wme8jjzzi2kVEiq2sMuHrrrvOVT9w0Wzw4MHuYt/mzZtdQzv9GNapU6faaoZ0CNhPPPGEC6hMQxXDd77zHXdrXTKWSzWFX+6uu+4aDRERKa6C3B1RaGSjvp43WX3D0sl0mlzmLSKSj7IMwiIizUXZXZgTEWlOFIRFRAJSEBYRCUhBWEQkIAVhEZGAChKEly5dajNmzLCPP/7YNmzYEPUtjK+++ipqq4vlsMx8MH2q9d26dWvOn4NtwPYohnTrW5/61qeY65qL5O+az/viiy+6FzcVUj7fby7854qX2VTbnm76S/OSVxCmMD/66KPubWSLFi2yDz/80K6//vqMCxIF0hfKdH73u9+lDBTr1q2zhx9+OOrKTPLymJ75JOOdFS+99FLUVT/WbeLEiVGXuW3g33dRaOnWtz71rU8x1zUT8e+D7ch37bFuvFp03333deVs2rRp0ZDc8B35cpTN91sIvgzHy2yqbU83/ctB8r4ixZNXEP7LX/5ivXr1sgsvvNBGjhzpml/+8pf2/PPPFyx74RWTLKOUDjjgADvhhBOiLikFvmO+a48DOY+U84rSbt26RX0Lo9Tfb4gyLI1H5XU8s5sDTrFee+019x6HysrKqK9Z27ZtrVWrVi6LGThwoMtg2rdv7/qDjIT+/F2wYIHLEMii/bjvvvuuffbZZ+6xY6Yh0Pfo0cO1E9h5t8ScOXNs27Zt7t0Sxx9/vJtvfBhPviU/epxqeZMmTXLjsUym88thPN4lzKPRfE7GSzVf1pfHqT///HP78ssv3fSsB5kb05NxsW34LH4+/GV527dvt+7du6dd71TbIt36It186O7cubPrZr3eeOMNe//999124N3JBLj4Z0rG+vLeZj4L833nnXfqLBesK+/mIItjPIaxTMSnZ5m77bab2ybJ3wfzfOWVV2rLxqeffuqmZRifjTLkH1VP91nJ3Fg/thnvrmadmI7txvxWrFhh69evd2XHf7/x6ZhffN1ZD/+Z49+Dx3rMnz+/zvJ5pJ7yT9UDn4dH4X0Z5jt/8803XZmNfy8e24JytHLlytrvyG8vpPvcHt8vGX7ytk43XbrPl2pfkeLJOROmUO+5556uwCXjS2Znx7Jly2zLli2uHb7/oYceav369XMN7WQ+FATa2TkoiGB8pqcgTZgwwYYOHerGYVyPYRRuP4wDQHKVSPLyPOZNNzvJ+PHjXT9OG1lvsMy9997bjbN27VpX0D0KJ++a6NmzpxvODg+Cx4EHHmj777+/jRkzxnWzHD4LOynjso3SrXe6bYFU65u8bZgPgTEZL6oH43AAmD59uutOh0DCMlgHpuHz++8jjm3F+vrPfMcdd7jPnDw94usQ/z789vHD2KZ+GNvffx/Jn5XpfHUFn5t+VGG8/fbbbhq+Ez8/viu+s/j3G5+OeTJvlgHWh8/MML43v709DmAcYMA60M68wPZo3bq1a0+1zdLhO+G7YZnw2yuTMs5wlslw/rL965su3eejO9W+IsWRcxDu2LGjbdq0Ker6Jp9lpMPpGV88De0UaLIAgjsBih0vjl+/+N73vudOTxn/5JNPjobUDOPU1R8QaE+uW0tensdOSffhhx/uMieO/nG77767K7RkUEcccUSdg87OO+9cmz0wj/jy6eYzHH300e4zeQQphjFtuvWub1ukWt9U2+bJJ5+MpqjBeGQ9vMiIcViPk046KRqaGjss74D268y08fdDx6X6zKmmZx1YF7pTfR+gm23qh7GNveTPynZg+/F5+dz0YxjjgGF+fsyH7R6XajqW4dVXPgjwBHzKB8GOpMRPywuhOChli+8k1fZKV1biCN5k5vykFwec+sqYl+rz0Z3uu5HCyzkIExw4anO0TcZpDztfNigwZ511lmvniJx8lIcvSNhpp52ithoc0bmw4S92UJAL4dhjj3WBhYJLVhLPhAsh1Xpnsi2SxbeNz8iT1zX55UQ+U6tP8jjZvuAoeXoOMPluw/hnjYuXiXTjpBKfjvdV15dcJCMIE/hoyBr5fHxfbKfkgJ+J+rZ3Q2Wcbl7VSlXMvffe685GUKx9Qwoj5yDMjn7GGWfYs88+W5sdsHNRL0Y96be+9S3Xr02bNrVfPtlCukyKeVAAOSKTjSQf5ffYYw93WuV3YNo9hnG6xwWXgw46yO0IZDWFwA5FoeWiI1kJWUahpFvvhrZFsuRtwyk22Wg8EJEFkl37gM4Oyim7xzL9TutxoGUc35/vr6EqjLhU05Mh55NdJX9W5gk+ry8TDItns/VJno71JVvMFN8X1wRo+FyUFaqgyERzEd9efFd8Z3x3mZRxxqcfGTRJENu6mPuGFEZed0cQJChsjz32mPsVjGuuucZV5PPjmj4bGzZsmNshGE59G7+KkQo7AFkft7xxdwV1WHEUIk4pWQbzWrNmTTTEXOHi1MkP4+JEqgw9W6wTp2i33Xab+2FRCnAhT8/SrXdD2yIZ8+nbt2/tfKjvTH55PQGZgM78/HdBlZLHhSBfv+nxWZkPt1gxTaaBzWN6lsln8Z/vtNNOyypLTZb8WVknthnryYGEfnfddVfG2Sx3SVCWmI55crGMspYNEgv/HRHgqIpLrk7LFN8J3w3rw3flt1cmZZy6boZTbsjMOZgUa9+QwinYqywJHPXtXA0N9/KdT6bLyVax5uulmn8uy8xkmlTjcAZDAEgXPPL9/PlOn0qqeea6nGKsXz7qW5+G1jXd8HL7jFJD7xMWhyoP1RWKlJ6CsIhIQHnVCYuISH4UhEVEAlIQFhEJSEFYRCQgBWERkYAUhEVEAlIQFhEJSEFYRCQgBWERkYAUhEVEAlIQFhEJSEFYRCQgBWERkYAUhEVEAlIQFhEJSEFYRCQgBWERkYAUhEVEAlIQFhEJSEFYRCQgBWERkYAUhEVEAlIQFhEJqKI6IWqXMlC1YKJVf/KEVS6fZi02fGa2fatVt+5mO3YeZNt3O95aDbrYrG3PaGxpkhK75LZZd1vFwuesxaoZ1mLT0kTPCtvRbjfb0e0Qs76nWMv9L6wZVxo9BeEysX3xy2Zv/coqV0yL+qRR0cK2DvqFtTryt1EPaUq2vX+nVc64wVpsJvCmt6PDXrb9oGttp/0viPpIY6UgXAa2zrjVWr39s6grM1U9j7PKE5+0itZdoj7S2G2dfKG1+uT+qCszW/e73Fp9+7aoSxojBeHAtsy801pP+1HUlZ2q7kda5elvWEVFRdRHGqutky6wVvP/N+rKzpZ9L7fWxygQN1a6MBfQ9uXv5RyA0XL5VNv68qVRlzRWm9/9Q84BGK0/ut22fJj79BKWgnAgnIBUvTUq6spd63n32LYvGqhHlrK1o2qztZp5Q9SVu8oZo23Hjh1RlzQmCsKBVK34wFp//kzUlZ+qWf8TtUljs+W9P1qLrSujrty1XP+JbZk9PuqSxqS864S3bTDbqX3U0bRsmHaDtZ/566grP9ujBKhSh9RGZUdiz9taZdZmp6hHnjb1PtPafO9xXSOIawQxpHyD8MYvzdZzn+yWqEfTsSOxyTdPucbarXo96pO/LdvNWldGHdIoVCW+M+JloQ6e21rvZi1GPGiVlSoItSpbm3Xoa9aufO+tL8/cadv6JhuAUZ1IgSoKcAoaxw4tjcv2RPpTyLOXym2rEmdFutmpDmIIsaSM6QQ2AE4+Cn0CUsaVSpJGMeJltS7ONTrlGYR36lBzCsGpRBNV1XLnqK0wFIMbp6oCxsxtBS5TTYKvjihjelgjgO3bt9vq10ZZt7mFefR42/aaCzztm+4xq0nakvjO+N46tol65Gl1j1Os3Ul/tlatWkV9pDFQEA6A+zlXf/a2dX3xiKhPflb1/H+s/YkPWOvWisKNSVVVla164zfWY851UZ/8LB9yu3Ud9h+6MNfIqE44gBYtWlir7oPsqy7fifrkp2qfC61ly5ZRlzQWlIPKAy61bS3zf//HptZ9rOXAc908pXHRNxYIWeuWwVdHXbn7svtZ1rbPcGU/jRABs12HzrasT+6Prnur+v3E2rVrp3uEGyEF4UDIXDv0OdwW7ZX7o8tr2g2xHUf8wdq2bRv1kcaGg3Gbg/+vfdl1ZNQne0t6nGvtBl9oO+1UoKc+pKQUhAMhYyF4tv/WT+zTPa6M+mZuVbtDbM0R/2s777yzqiIaMbLhTp062faj/seW7nxK1Ddzn+9ytlUccbN16NBBVRGNlC7MBcbFmTVr1tjq2ROt2ye3WJfNs6IhqVVbhS3qfoFVH3Kdde/e3QVynYI2flu2bLGVK1fa5hm32+5Lxljr7auiIalt2mk3W7L7f1i7IZdY165ddUdEI6YgXAa4ZW3Dhg22atUq2/rxBOuw/EXrvGmWta1aai2qq2xrZSdb36q/re54qG3vf6517jXAOnfu7HY8BeCmY9u2bbZ27dpEMF5hLebeb51Xv24dt8y11lUrOXWyzZW72Lo2+9ranY8xG3C+devWzWXAqoZo3BSEywRfAzvhpk2bXEDmL93056IbdYdceGnfvr1r14W4ponbF7du3WobN2505WDz5s3ubAlUO7kqrEQZ4C8HYVVBNH4KwmWGr4MdkezYvx+WbJegyw6nna55oBz4MuDLgf/+KQs6A2o6FIRFRAJSWiUiEpCCsIhIQArCIiIBKQiLiASkICwiEpCCsIhIQArCIiIBBb1PePTo0VGb2UUXXWS9e/d27Twt9OCDD9qSJUtc95FHHmkjRoxw7ZK7qVOn2uTJk137rrvuameeeaZ774C3ePFie/zxx23dunXWsWNHO+6442zo0KHRUMnGQw89ZB9//HHU9bV4Odf2Ljwe/b/jjjvs7LPPtgEDBkR9a5RrXAmaCQ8ZMsQ1999/v9tA4O+oUaNszpw5tcNvu+02u+eee9xwyQ1B4cYbb7S9997bbVO275VXfv32NgLC//k//8e1M7xnz552xhlnuMAt2dtzzz1ryy/N3//+d/deCH/Q0/YujnHjxrm/qQJw2cYVMuHQ9tprr+rExnHtY8aMqU5kC9UbNmxw3Vi0aFGdcSR7kyZNctvRY/vGtynb/JZbbnHtHtOccsopdb4LyV4i+3LbceXKlVEfbe9ioCynixPlHFfKrk74mWeesXPOOce9rMbj9O3f/u3f7NVXX436SLY47fKnweDFMB5Z2csvv2zf//73oz41mGbWrFn23nvvRX0kW2S2jzzyiP3xj3+skwVrexce2/mXv/yly4LZ7nPnzo2GlHdcKbsgTCHs06dP1PU1Th98XY7kj9M26iApsL4qKB6kPQrp8uXLoy7JBsH2vPPOc2V67Nixrhva3oVH0KVak+sc4NrH7NmzXTvKOa7o7ohmiHowMrHrr78+6iPFQJCdP3++CwBcCKUO2AdgKax7773Xbr311joXmhuLsgzCK1asiNq+RmHmCrLkh4zhd7/7nTs9Ts7EuLKcjAtKvL9Wcscp8A9/+MNvVDVoexcGWS9Jxeuvv+7uuKJhO06cOLHOHVjlGlfKLghffvnltbdReWQPbOTDDjss6iO5IABzevzAAw/UCcBUSQwaNMgV4jjq1AgcBx98cNRHMpWc8ca7tb0Li2oGsuDhw4fX3vnAT3/17dvXtaOs40p0gS6o+BVKrlhyhXjChAnuajLdP//5z10juZsyZYrbzlwlZlv7xl+xZzjbnb9cQZ4xY4br5sq+ZI/y6sswDds9fueDtndxXX/99W77e+UcV8ouCIMNxO0k9Kdhg+q2nfz4bZncxAuqDwx+mAJC7giq8TJMO+U6Ttu7eJKDMMo1rpT1L2tQZ9amTZs6t5VI8XEVP9WVe8leJmVY27u0yi2u6OeNREQC0i1qIiIBKQiLiASkICwiEpCCsIhIQArCIiIBKQiLiASkICwiEpCCsIhIQArCIiIBKQiLiASkICwiEpCCsIhIQArCIiIB5fwWNf0irIhIjaFDh0Zt2VMmLCISkN4nLCISkDJhEZGAFIRFRAJSEBYRCUhBWEQkIAVhEZGAFIRFRAJSEBYRCUhBWEQkIAVhEZGAFIRFRAJSEBYRCUhBWEQkIAVhEZGAFIRFRAJSEBYRCUhBWEQkIAVhEZGAFIRFRAJSEBYRCUhBWEQkIAVhEZGAFIRFRALKKwj379/f5s6dG3WVl6lTp9rDDz8cdaXGOFdccUXUJU1VqnJKN/3LwejRo23x4sVRV2qXXHKJvffee1GXNCVNNhNevny5zZs3L+pKrU+fPnbCCSdEXSJhjBs3zjZu3Bh1pXb22WfbLrvsEnVJU1LUILxq1SqXccSP8rTT36M9XgCTh9PNPJKn8eMxLLkA02/ZsmW2du3a2uF+fD8/tGvXzvbdd1/X7jEseRrPL4/+DPfz8fy8k6fx8/HzlfIS/y75m/w9+e8v/v0nSzXMz9f/ZZw4Pw0WLlzopk03DQlD165dXTsY1w+nSbVcP28/P88vN5t1leKpqE6I2rPG6dwLL7xgAwYMiPp8jVP9888/304//XSXkR5yyCHu1P/pp5+29evX2w9/+EM33q233mqDBw+2ESNGuG5Ou370ox/Z0KFD3bBXXnnFTUu2MH78eDvyyCPdPJ555hk3fpcuXaxTp042atQo143k00zW8ZFHHnFBefXq1a7fKaec4v7OnDnTTUvh469f1+nTp1v37t3deKeeemqdz8M8WO5TTz1ln3zyiZtPrusqxZeqnBJoTjzxRPf9+Xa+W/D9ciZ15513Wu/evV11AWXHlw2+36uvvrq2DE+ePNkuvfRSu+CCC1y5Ofnkk92w+Hz53hlGFRkHf1A2fvazn7l2MD0Zb6pp2Ef8Z7jnnnvsxhtvrF3ePvvsU1uuCKyXXXaZK7uUN1BO/bS5rqsUEUE4V/369aueM2dO1PU1+jFs0aJFrnvDhg3VP//5z6vHjBlTvXLlSjeMfjS0MwwzZsyovvjii137hAkTXH/GAfNiXKZn2MiRI2uH+b9xjHP99ddHXdWu3Xf78ePjpFoey6A//WifMmWKGwY+C+uDVNNms65SXHwXyeXUl9F4+6RJk1w3+H592eAv5TK5bDAdDe3xss64lBU/X/76YanEx0k3je9Hk7w8yl58XVl3j/Wob9ps11UKryjVEbNnz3ZHWrIIcDQ977zz7K233nKnVAzjIgPZJRkFmQdH8HfeeadOhkr/m2++2WUiY8eOdf1XrFjh/pKR+KN0pkfrIUOGuL+pxmd5w4cPrx3GurMMsG6zZs1yma13zDHHRG3FWVcpPX82hjPPPNNlvB7lMl42yCAp5zTgO+e7pwyQRdN4PgPP5rtPNw3LozzF9y3Krcc6x8tmvMwWa10lPyW7MMfpvj89orBzWvSXv/zFFRgKOKdLzz77bJ0Cddhhh7nTM98wji98xRCvNwOnoHHx4cnjlnpdy0niYJ6yKReDBg36xvdFHexxxx0XddWo7/tN7qZKzaM6IP7d33TTTXXKcaHVVy5R3+co9brmK1W5omlK8g7CFGbqk3xD1siXyhGZQAv6cfT1XzZHZ+qcyB458tKfOi6O8P7iA4GaoMwR2R+dySyLdYROnKa5emPWmc9BfR11aWD51JWROTCMLP6BBx5ww1DqdS0HqXaM+pqQLrroIrv22mvddwe+v9tvv90FobgHH3zQ/SVwPf744+6MzaNsUI7BfO644w7bb7/9XNmlnPB9891zBwMZZ/wiWiGxPOqmqa9lPTibZN28G264wa0bn5Hhd999dzSkZtpSrmuuUpWf+prGLu8gTCU/Ffq+IdjypT7xxBOucHBRhGz3O9/5jrvA5bED+KoHX0URPx0kULPzcJGBeVx55ZXfOKoXEhcCr7/+eped/9d//ZdbVnwn5PRt1113desxceLEOre2lXpdQ4oX/h07dtQ2VVVVdZr4sPg0IVDuKG+UT74fAjLfV7y8oUOHDm44F8HWrVtX5x7yY4891q677rra73f8+PEukPmyTrln2LBhw9x3X6zvn+VxwXDp0qVuPajiix9MzjnnHLdfEYjHjBnjztC8Uq9rtuLlJF5+yrlsFUJed0dkgi8434ywEPNoCMvYvHmzK6he/E4NsqB49QIZyJNPPumy47hSrGso8QJPw05gc8dZi4XPWYtV71qLjV+48Xa02812dD3YdvQ5KXEacYG1aNHCKioq6jShpPp+yBgJ0P5Ol+RxOABzPYFgXt/3W6rvPrkscrcEBxACcPIwbjUj2P7jH/+os27lVk5TlS2a5DITH4dyVU5lK1dFD8KNhb+VLH5hkLo3giwFlgLOxZgePXq4brJ8MmcCdHMQL/zbt283m3O/tXzvPxOB95v3zMbtaNfbqob+2mzgv1llZWVZ7izJQThZPAiHxrqSAZP9EkS5H56qsPvuu88lEKwr/EVoyjRnoZTfcpVctgi+PrjWh/H9uOVatjKhIBxDdsvpHaeiVDHQ+GyBjOKvf/2rq4+jWoIqFl//29T5HYSGnaRi6o9tpzlf1zVmYtvAS636yNvKcmfhu3399dfTBlnKBfWn5fJ9E4hfffVVW7JkibvQ9s///M+1Z3AkCKwvTceOHV11BOW4XCWXLYIqZSQbTNeYA7GCcHO0dY3ZsrfN1swz27wisSfsiAZ8E6UjsYskRknsJIkdxBb91Vp99fdoaHa2DrjU7KjyDMRSeoUIwB7JEVUu8bJVH4I2VTi9evWyfv36Ba2aURBubla8a/bZs/UG3jiKRyL+JnaSxN8VM6zNF4lp87D5iLusxb4Xup0lk1NOabpc2UoEXgIwTcuWLaMhueE5A+rEfbnKtGwxPtWKe+65Z9SntEp2n7CUAQLwpxOzCMCJxv2ttqrEztJq2Ws1A/LQauYN7go38/SNND/x75/yQCDM1/777++CebZligPBu+++a59++mnUp7RyzoS/+uor27JlS9RVF/VTrVq1irpqMP7OO+8cdZWXjz/+uPbUpMmiCuIf/51xAAZFoyYLTmQqy9+ztkuei4bkZ9Nhf7TK/S8uSTasclqeXNmKsuBt27Z943vI1dtvv+2y4UyrJeIoi9/97ndLXjWR8+Fnzpw57gPTPPbYY+5Cge/esGFDNFYN7mn83e9+F3WVnw8//NBd5GjSqAPOIgDXSuws2xOTVa6t/7Wg2ahc/Lzb+UpB5bS8UQ4KeRDmonmOeaU7KMyfPz/qKp2C1Anz8MKhhx5a7xGaAt++ffuoq7yw/nvssYcddNBBUZ8m6IM/JlLQZVFHwygViZPFRMGsts1bq6zt3DussmpdNDQ/29vubpvO+MjatGmTdf1dPlROywMhx2fC3JtPXXCuF+SS8f3xygDmmctZFm+QS36Ip9gqr+MxoDyRbey+++7uVAkUFk7rqGchu+jcubN7zePAgQPdcE6r3njjDTcdt9RQoZ7JsBkzZrhuhrVt29bNl+VMmjSpdnkcWXmNH/hCWC5PB4FHrNesWeOmw4svvuh2yAULFtjWrVvdfaIffPCBKxD+lh/6sz7vv/++ffbZZ64/y542bZo77SE7YRq/PmVr0QuJ/7I83lIVkciCt1Vtt7bLXo565q/F9o22+YCr6lRHlCIIq5yWVzktdFUEdtppp9pt48tUNmWL9Ul+x3ixFeXCHIWBejiyDgom7fQDhff55593VyMZzj2PmQyjMPG2J/ozfMKECa7w+nlzBGMYpyMeGc3nn3/uCj54np4G9GOYz3roPvDAA13lPo97+ml41t7PmyeRWC64SZ7C7qfhMVE/TVOzI/+TpW8gCwpN5TS8YpQD5umz7cagaHdHUKg5eief+nFE/t73vud+KYBhVIR79Q3jEWF/hOLISTuF36OAMU3yRRVuVic7YEdYuXKla2inX/y5em7EZ/q9997bjj76aHellOyILMfvMD7roD9STVO22uT30zhVlTXZYyFUte4ZtYWnchoed0cUCtssH/4sqZSC3KJW3+lHfcMomFyYoOFULp5NpEPB4xFksgEyExra6cewTPhl0jA9TyI1Op33iVqyRyHZ0rJHTUcBbOk02FVDlDuV0+KjHFCVUii8Ic5Xb+VSxcXBqtRKvidwYeHNN990p0QctXhc1KtvGEdwcFGChgKWyQZjZ+E5+vvvv99lBDS0k6HUtyOBjIJHmNmJWOYBBxxg3bp1K9sLN/XqcahZRZZfd6IMEysrWlTYpraF+2XiTT1GuB2knAOxymnx+esBVNUUCvXp8XKVTSBmOp6eK7WS7wUUEgoYdVa8eIQX4nj1DePVkYsWLbKrrrrKNZwSZnoE3WuvvdzOQaGkod2fMtaHws/vynG1lWVec8019sUXNW8Ka3RadTbre3LU0TDKLsWXpmVlpVV1GWxbK/I/VdvaqpdV9T/PXb322Uo2O0qpqJwWT/x7pxxQh1uIbJgDEWcPPrhni7OHEI8vl/yxZTIHrmD6oztHLrKKH/zgB/UO8/iyGsoMiiHUcgsui8eW3W1E3CGxfbut31xlW7+Ybr3W17yoP1dL9/2dtRr8767uLX53RLlROS0uV7YSwdeVrfXr3a1q/m6RXHGHCVUxrVu3rr07IpOyRRkkAId6bLnkQZjbd7jyy68SgJvmTzvtNHeRo75hUkAZvsCHkuHvFd6ybbutWbfZWn7xV+tR9UE0RnaW9fiBVR12i7tFih3FB+ByDMIqp8VF2PGBmOoIbsmjHPC2ulzwfVB/TibLAbKhgzvD/dOHzfIFPly15YgFTuvidVf1DZPS8zsKGcumTZvcax/bvvsL67Xi8WiMzCzd5fu26eDf196/Ws5ZsKdyWlypyhZZfLx6JxPchscZQGMqW3FBgrA0HhQP33ArEbdCuftM59xvu35xt7Wtqv8pvE0te9iS3S51L3XntiwyjnKvD5bSSFe2CMw9e/Z0T1TWhyqML7/80gXcxly2FISlQck7C1kLvzrCDtN24aPWefVr1mnLXGuzfaUbf3NlN1vbeoCt6fJt29TnB24H4UECshQFYImrr2xRZcXdJZQd2kHVBcO5CEd7UyhbCsKSkeSdhdM/dgIuUpHB0E5/sDOw05CZcJpOO6eZCsCSSnMvWyUNwmxUnh7iFp988CXxjHdD9XCFWp7UiO8sNNTl+Z2Gdl+U2Amol/M7R/xKdWPYScqpnDIsfidGOlwsbMx1082lbKVS0vuEOYV4+OGHo67c8YKOl156KepKr1DLkxq+kFMHR8NOQL0dV5n9aSMN7fRjGOP48RvLTlJO5ZTpmU9DmJ75NFbNpWylUr6PLNWDJ4K4KV5Kzxf2+A5DNkK2Fm/ol7yD0DQnhSin/FJyczmTi5eT5lS2cg7CvC2Km9Q9btnhhdmgUp3X7/GqQE6T/CsD45g+3o9xPOZLt58+GcN5HSB4o5UfN74+qaSaL/3iy6CdU0Dwl88h3xQv/Jk0oTSmcurXgXXiNBz8eCXTgvLIujMOf2n8MPBiHr+M5M/RmKQqP/U1jV3OQZibquOnWrztiSdeKCjjx493r9PjtXpcyfSvDIzj3r54P/8qQAooTx/xBAvTU1cWL2jgtIvpWRav82M8xq/vUU3my2Om8fmyg/GMvX/2n4JPO8PAI5D+qqykl2rHoCkHjamcUtYYh1uvePoLTO+rGR577DH3l3H4DM8991ydKgjWk2HcZ8tnawpSlSuapiTnIOzf7ERhpJB99NFHrh+FkReR+Ff2HXPMMbVPFmWCJ1+4wOAvRNDO8/epcBGCnYiXZ+Pwww93f1NhvvHXD5588snutYPMg+fz2YH4LDy6yLh466233HtYpfFqTOXUrwuBdPLkuo+Hk8GD9WQcxk3+BQj/Wk7mz4vc/TRS3vKqEx4+fLgrjJwy0e4LZHL2mO0jgWQlPI3kn0iiwKVz8cUXuwp7sh1/mplO/Aqzv4pM9ksQ5relaNgByI4Jyqx38ntfpfFpbOU0nWzXTxqHvIIwGQX1UDw7TyYAXqdHt6+TIgOZPn26a4/j6qYvvIzjsxBeE8hpFRc1uCBBQEz3TD4BlHkw3llnneVOz9Lxrx/0dW1URfCWKnZI5s+vF9D4LIPTx8GDB7txpXFrTOU0HR7J5ekw/1Y2koTkbFkap7yCMMgsOK3zmSVBjH78ai2v1fOn9smGDRvmhjEOdbUnnnii609BJWPgdXwMI3PgNDIV+rPj3HfffXbvvffaOeecEw35Jubbt2/f2vlS18Z6euxc1NeBnYnTR38qK41fYymn6ZAs8LpKqhnuuusulzAccsgh0VBpzIr6sAZH7HgVQCr1jZPJ9Mh0PC/b8aVpK9dymoysPV499uijj9oRRxyRNgOXxkGPLYs0AgRwMmCuX3BnBC+O5z0L8XcYS+OkICzSSBCIqQumLponx1Rd1jQoCIuIBJT3hTkREcmdgrCISEAKwiIiASkIi4gEpCAsIhKQgrCISEAKwiIiASkIi4gEpCAsIhKQgrCISEA5P7ac7tV/IoXkXy+aK5VTKYV8yqkyYRGRgPQCHxGRgJQJi4gEpCAsIhKQgrCISEAKwiIiASkIi4gEpCAsIhKQgrCISEAKwiIiASkIi4gEpCAsIhKQgrCISEA5vzti5cqVtmXLlqirrm7dulnr1q2jrhqMT/8QWM+33nrLVq9ebYMHD7a99torGpI75rf//vtbx44doz5SjlROVU7LXc6Z8AcffGCvv/66a+6//37761//Wtu9fv36aKwaX3zxhf3qV7+KukqPddu8ebMr2Ol2yGyNHTvW1q1bF3VJuVI5VTkte2TC+XrkkUeqP//886grtbVr10Ztpfeb3/ymwfXL1r//+78XfJ5SXCqnUo4qr0uI4nHOyDb69u1be8rz6KOP2qpVq2zatGkuu+jSpYs7yg8aNMgN/+ijj+yll15y023YsMGmTJmS0TBOrehmWPv27W3nnXd2p4/PPPNM7fK2b99uvXr1cuP7YbzYm8xi7ty5bl70nzx5suvP+vXu3dtatmzppkm1DMSnYb1mzJhhxx57rE7zGhGVUylHRbkw97e//c2dVg0fPtwVJgoW/UDhffLJJ+3QQw91wz/88MOMhr322mv25Zdfuv4Mf/jhh91plp93586d3TAKqtehQwfXDwcffLBrZxqmHTBgQO2wV1991f1Ntwyau+++2+3ADFuzZo0bXxo3lVMpB0W7O4JCvdtuu7kmbubMmXbGGWe4iw4MGzlyZDSk/mEPPvigqysDF1OYP4XfGzJkiJsmflGF8fzyu3fv7tqZpk+fPtapUyfXf5999rEnnnjCtadbBs23vvWt2mV897vfrR1PGjeVUwktyC1qFJx06hu2bNkyW7RokWt69uxpe+yxRzQkO5s2baqdD/O86KKLoiHpl9GmTRv31+MUUJo2lVMphZIH4T333NNeeeUVV3fF6RP1V159w/7pn/7J/T3ssMNcw2mdzx6yQWFdvny5u22H+ey9996uQbplMM0bb7zh1gucjlKvJ02XyqmUSsmDMIWGgkU91p///GfbddddoyH1DzvttNPs008/tUsvvdQ1nBJSz5YtCuuIESPs9ttvd/OhDo3CjnTLYJqjjz7a3b7k+0vTpnIqpVLyH/okc2jVqlXt6dyCBQtcVnHhhRfWO8yjsNV3KpiNdPOqbxmFXL6UL5VTKZWSB2FurXnnnXfswAMPdN2cPp1zzjnuIkd9w0RKSeVUSiXIT95zzyMXFMBpXfwexvqGiZSSyqmUQpAgLCIiNYLcoiYiIjUUhEVEAlIQFhEJSEFYRCSgvILw008/7d74lCumZR4ixfTJJ5/YV199FXVlj2mZh0gx5BWEf/azn9ns2bNdO49unnrqqe5VfZliWubREJ5MohHJBW8d8+Vy4cKFNnHiRPf2tEwxLfNoyJw5c1wjko2CVUfssssu7k1PyS8QKYR58+a5RiRfbdu2de/e9e/lLSR+lohGJBsFC8JDhw61m2++2dq1axf1ESk/vCqSd+0WIwiL5CKvhzX69+9vt9xyi6uGoH6X6gXavcWLF9sLL7xgS5YscS85OfPMM91ve+23337uZdXUB1Mdwcuq4+Ode+65LphPnTrVvbSEXx3AKaecUjutlD+qqB566KGoKzVeQP6jH/2oqD+ued9999m3v/1tV16p36V6gXaP35rjhTj8EgWvfuRtZZ9//rl17drVZc3UB1Md8f3vf7/OePvuu68L5pTbjRs3undIgMeX/bRS/ohdxKr6cIbPe5v9+50LqWCZcHL9Lj+vcswxx7jn7KmmoKDzgpN4PbJ32WWXub8E4BtvvNFGjRrluj/77DP3JigCMQ3tK1ascMOk/PEWsEsuuSTq+qZSBOBkyfW7lKvHH3/cli5d6n7eaNu2bfbiiy/WqUf2/K9nEIB5d8Sbb77puteuXevKJYGYhvZs6pwlLJI6Xk+aTjEDMAoWhJPdcccddvrpp9ttt93mXm7y05/+1C6//PJoaF033XST/fCHP3TN+PHj7amnnnJHJ6YjIB9yyCGuof3II4+MppLGgO8rVSAOEYBT4cBO5svvsA0cONAOOuggV7WWCtUY7Iw0J5xwgn388ccus2Y6Xm/Jy9VpaI+/3lLKX79+/VIG4mIHYBQlCJPav/zyy3beeefVqSMmM0olXr3ggyxXsaVpSA7E5RKAOTvjJTy+WsHjZ4VSiVcv+CDLay2laUgOxKUIwChaJpwv6t2k6fCBuFwCcKFQfSFNhw/EpQrAKEoQ5pdk+QDcjxmXz4Md0vgRiK+99tqyCcD8yjHrMn/+/KhPjXwe7JDGj0BMWS1FAEbRMuFf/OIXNm7cOBs9erS7C4KHLa688spoqEh5GDZsmPuVYi4gcxcED1twB49IqRQtCHMk8T/RTaHm6vOdd97pukXKBXW7J598smvnRe3c3eB/SFOkFIr2UncKc/KDG9zyQ+Yxfvx4F6RFQquqqvrGgxvcXsaZG3dA6C4HKbaiZcLcTnbrrbfW3mvJHRO//e1vXV1xuluAREqNe31nzJhRe18vd0xwDzB1xTxdJ1JsRcuEeViDizCzZs2K+pgdd9xxdt1117kLdyLlgIc1CMQrV66M+pjtsccedvjhh7sLdyLFVvTfmIvfEaHHjaVcxe+I0OPGUkpFD8IiIpJe2T6sISLSHCgIi4gEpCAsIhKQgrCISEAKwiIiASkIi4gEpCAsIhKQgrCISEA5P6zB8/YixcbPDeVD5VRKIZ9yqkxYRCQgPbYsIhKQMmERkYAUhEVEAlIQFhEJSEFYRCQgBWERkYAUhEVEAlIQFhEJSEFYRCQgBWERkYAUhEVEAlIQFhEJSEFYRCQgBWERkYAUhEVEAlIQFhEJSEFYRCQgBWERkYAUhEVEAlIQFhEJSEFYRCQgBWERkYD0a8uSt3RFqKKiImoTyU1zKFsKwpKTeLHJZEdRQJZMNbeypSAsWfHFhb/x9h07drh2r0WLFrU7B3/j7SKpNNeyVZAgvHjxYuvatau1a9cu6iNNkd85fON2jrnjrMXC56zFqnetxcYv3Hg72u1mO7oebDv6nGQ24ILanSbehLB+/Xpr06aNtWzZMuoj5SJV2Vq6dKmtXLnSNmzYYNu2bXPj7bTTTta+fXvr1q2b9erVq2zKVj7yujBH8L3kkkvsmGOOscGDB9vo0aNt48aN0dD0mI5xs5HtNLksQ9KL7yDbt2+3HbPHWstH+1urKf9uLRc9bS02LEqMtN01tNPPDUuMw7hME59HKRF8J0+ebI8//riNHz/e3nrrLauqqoqGpsd0jJuNbKfJZRlNTbxcUE4+//xze/vtt+3jjz+2r776yrZu3Vo7nHb6MYxxGDdk2SqEvILwddddZ6eccop98skn9o9//MN23XVXW7VqVTQ0PQL1uHHjoq7MZDtNLsuQ1OIFnAJfMfXH1mrqpYnMd3E0RnqMw7hME2pnmTZtmu2111524YUX2vnnn+8yqc2bN0dD0yP7+vDDD6OuzGQ7TS7LaEri5YHyMW/ePBdPCLYNYRzGZZrGHIjzqo7o37+/PfHEEzZ06NCoT10E5BUrVrhqit69e7t+ZKgfffSRXXrppfbCCy/YLrvs4qoy4hiHIOqH1TfN3Llz3d8BAwa4dpbDctONnzzvZmnrGrNlb5utmWe2eUViT6hb5xZH6UgU68QoiZ2E6odFf7VWX/09GpqdrQMuNTvqNqusrHSnjaU6fbzvvvvs5JNPtu7du0d96iIgb9q0yZ3qdujQwfUjQ6UcvfTSS3baaadZ27ZtXVVGHOMQRP2w+qYhe8POO+/s2jt27OiWm2785Hk3RfGg6QPwl19+GQ3NDjGGKgrKFlUUqK9sMYxqKbYv30XIKqrKRDZ7XdSetTVr1thDDz1kffv2dRuAQuxx+jdy5Ej34f70pz+5QnXIIYfYH/7wB7vhhhvcOA8++KDtt99+tu+++7puPP300/ab3/zGFc7LLrvMVXU88sgj35imR48edvnll9uUKVPsgw8+sBdffNGuueYat0xOOVMt49Zbb7U//vGPtfMeNmyY7bHHHm68ZmPFu4kj1/jEXr7QrGpDokdDx2B2EksEYLMdK96z1stfifpnr3LldNvWNnEw7jbE7QSlCsJkTByUO3Xq5HY6v5Ni4cKFNnHiRNdv1qxZLvBRtmbMmOFOd8G0HLDjB20yMIZv2bLFXn75ZXfwJwlInobg8Morr9iSJUtcuWN5U6dOtX79+rlxUi2DZc+cObN23tR9EiiaIh+Av/jiC5cg5YrvjbLUunXrjMsW9c5sY2ITwbtVq1bRkNLKKxMmo5w0aZI988wzrrAQ+M455xxXGK+88kq78847XeFkvB//+Md20UUX2ZFHHumGn3jiia4gJ6Mel0BKds2X4gty8jSMR8H86U9/6rop2Jxqkvn6rDg+PsH99ddfd9MxP+ZNgH/nnXfq7FxNGgH404lRR8MoGWTBOxJZ8NaqHdbmo9utRdXaaGhudrTrbZvPnOMKfPyiSjFR//vZZ5/ZggULbNGiRa4MDhw40GWklIl/+qd/chkw4xEwDzjgAFe1xvAJEya4aoxk1OMSSMmu2YnJVkk4kqdhPD7rQQcd5LoJxn/5y19c5uuz4vj4lFcC0hFHHOHmx7ypy2a/akoZsc+ACYQcJKdPTxygE4E0H5QnvjeSwUwDcRyJpD8TKqW86oQJZqeeeqrLdMk+yVjJgGfPnu2Gjx071gW9m2++2ZYvX+6ahgwZMsTOPPNMl7WSNbCMVKjvPemkk6IucztWfcgsVq9e7daFdWLdQHVJs0AVxGfPRh2ZqsmC2VEqVr6XdwAGdcQVc8e5eeZx/M8KwYyqsxEjRtgJJ5xgc+bMcWWLzBScSREsCQQkDDQNoTrr2WefdVnrunXr0p7OUt+75557Rl3mgkR9KI9kZ6wL68S6geqSpsYHYe6CyDcAg3nxXZBZ54LykMkF20LLKwjHCytBkHo3H2j32WcfO/vss2ubm266yYYPH+6G1YegTnbK3Ra///3vXVAvlMMOO6zOOpE1+7rqJo864HrqftNK7ChURVSunRf1yF/l4udz3lFyEd+xCIJksD6okY1y5uQbyujuu+/uhtWHoE52SvZEeSWoFwrVD/F1ImtuqtURlAPOBgqFevZcD/BMQxAvtZyDMKf7o0aNcn/BUYQjN6dnFOSnnnrKHdUpRGQNZMeZnPZTbQCyFgIl9wimcvXVV9uYMWNqDwR+unSYH5kLmTXrBH/RsFngIlwWKMMUYxouyFVuWeL6F0Llqhlu56PQ+6ZY2MHffPPN2h2dnZTMi7phgi23OtGPYEw/ynEmp/2+mqtPnz6uaiNdJsd1B+qa/YEgVRVcHPObP3++O6VmncD6pcu0G6P49045SLeP54LvwQdh32QjxBlHzkGYQMaFNupdyQoobGSaZMQEW+6a4JTfD8vkNM+Pw/hMx1VjlpHKueee6y60kDEz7rJly6IhqbFe1ElzQY7xqbNuaH2aFO6CyFai/CbKc6Kptsqq9VHP/FVuXup2FJpiI5BxoY16V+6SePjhh12mudtuu7lgy9kbp/x+GMGyoVNSPw7jMx31zD179oyG1sUFYeqEqa5j3IZ2cjJ16qT/9re/ufGpsy7EqXo58mWgoe2dDYKuD8K5KOS6ZKogT8wRzNJllPUNq0+m0+Uy/1zXqVGbPjpRQjMPepQKikbV9mrbuGWrdZnzX/StGZivikpbfVbNWQgZXikuzoEdLF1GWd+w+mQ6XS7zz3Wdyh3lypWtxOdjX3z33XejIYXB2ThnNfFbITPFuJyNlFJedcJefQEt12CX6XS5zD/XdWrU2uwSteSmqrJwV42rWqfOGoutvoCWa7DLdLpc5t8UA3AqBMtyEWKbFyQISyPQeZ+oJXsUki0te9R0FMCWToPr3KsrzRflgHt7C4VMNp+yRQZdatoTmosehyZKaJZfd+IsjvJc0aLCNrXtH/XM36YeI/LeWaTx4/unHPAYeaGQyTJPmmwxTYi7ULQXNBetOpv1PTnqaBhlmGJM0zJxuljVZbBtrci/SmJrq15W1f+8OjtLLjuMNF7x751yQB1uIQ7I1DP7JyLjy8gUNxSoOkKKa5eDzfYcmdgLsvjaE4W4MjF6q1YtbVX7w6OeuVvV7yfuboFyqgeUcPzjwp07J5KEPBFwfdnKJvgybqin5aAg3NwQiAf/xKzXUWZtezQQkMkkak4bW+9UaTu6HmjLWh4QDcvesh4/sB37/KurA/TZijRffP+ubCXKA7f4EUBzxZ0WBNFMD/Asm3uxuc2V2xVDBWDkfYsaTwrx4mWOJKW+tUOKj+LBfZfcVM89rjzM0PbdX1ivFY9HY2Rm6S7ft00H/96d8vnbh0oZiHmSc+3atW6nS/c2NSmtVGWLe64JqNmgCoEXcYUqW/nKKxN+9dVX3QMVFG7+Pvroo9EQc8/U02Qim3E9nnri7VfFVIplNAYUZgo2Dzd06dLFNh50o83v82vblMEdE4zDuEzDtMwj29PFfPHEGu8OYUfnLw9AeDzB1tBTbF4243o8qceTpMVUimUUS3LZ4jUCZMaZ5IaMw7hME6psFUJeQfi5555zT67xNjLeAsVfaVoo0L4h4+Aea3cB44BLbO63XrS5u/3Svmx3lG2q7G7VieJEQzv9GMY4jMs0TBvighzvdjj22GNt0KBB7vF1/kp48XIQL1tktbzqgICa/PSbz54Zxjg+Aw5Vtgohr+qI2267zRXq/fffP+pTg+yRKgpQTcGrKTlaszPwHDwbjtMO3jFBVlLfuFTY81q/eH0Rv5TAqwl5ATRvqGI+3ObCOwJ4xzFHRB599s/ee8zXZ0Gsg3+9IFUq7733nmv3/VMtI3l+zQnFxDecLvL6Qd72xXP/PPVEuz+NZGcgQ2HH4Huhne8v1E5CeeTVqMnVZWSP/oUt3JrEY/e8OpKXi/P52Ml5vwiPEfNoc33j8jl5RJnP6PG2Nh6np9xR58l8KJu8O5jtxjbhRVfJ9ZHM1789jXXgMXtQpcJ7JeD7p1pGyPrNXDTmslUIeb3Unefcn3/++dqfZyGIcoQicHK0Imjxako2yv333+92hL333tu9L5Xqi0MPPdS9RCV5XP9rHfwkDQGad//GXwfIxudL4Es66qij3PJ4YRCFj3lQ4c67Ash44sGbV20eeOCBtetAhTy/UUXwJmizk/IIJTsKwTh5GXy25ipesKlvo9CzndlW1MMRmNhGnBbyl7pX+jGM78CfJvqmlMiU/v73v7sDPzs668ZnoBzRTbmhrLFevLWPt6xRNqijpPqC96RQtpPH9S9nJ/gRoAnYvKfCY9sQJAgi/LAAy6OssU2YB9uEbn4UIR68X3vtNVfe/Tqw/uwHBG+CNnXaVIuwXQnGycvgszUm8fLQ2MpWIeQVhNkgZARsEOrdyBx5oxQFlSMzhYNCw1GdIEugYxgFjMDKMF6mkjwuG5UgCDY4v45x/PHHu26w8anMJwPgBT9kCLyljVf+MX8KKVk0GUX8/a2MxzSstw/Q1GuzI/EFg/WggHMQiC+jOQdgzxdwX9jjOwzbkm0Xb+jPOL4JtZMQmCiXlBvKKN8p9Yh0EzxZTwIewyjLlEOGEVAJfgyj/CaPS5kgCIIDNi+E92dXYJuQYPAeaw78nKVxIDj88MPd/CmHvJyHumoCrcd4NKy3D9DsXwR7+oF+vCCeshtfBtu5MWqsZasQCvKN8eWffvrp9sYbb7hTiVTYcHEU2nQIoBQwGnYC3tvakOT5EbzJDuKoF2RdydzJnP26cmHRLw/J1SvyNV/Y/Y5CQzBip4g39EveQWhC4oBM1Rbff7or8Kx7XHK5jaP8kKnSUIa+/e1vR0PSS54fwTh5XXgzIOtKNRmZsh/u7yCgQVO7GyleThpb2cpHzkGYAkIW6QMZdxKAo1YyChS/pUXGC6bllwNSYVwCL6eAZBVkzfGqiFTIIqi75d2woAqBut/k6RhOgKXembomCjMZN8GaujSWp1vtMhMv/Jk0oXD2E3+fry+DZFnJKEfUsXIGBab1ZSoZ45IZU51G3SxZKk19yLJZvj/Yk2xw5hevwgBVZZRBzjIpmyyHjJusmcyY5ZFkNNVb7VKVn/qaxi7n6giO4BQg6nr5nTkKDi9h96dVPigTVKkiIDj/z//8jxuXdgIxWQnDkselsD722GOubvjTTz91p47x0zWwo1Cfy2kmR0aCNj/2yTteqU7gQhqnlR4Hi/fff9/d0UEmRLClmoFlsrPxe3isGwWeQs7niy9D0ku1Y9CUAzJPqg64BsHFVw7w3MVDGYMPypQvvnOCM7+4wri0Uza44Maw5HFpONhTN0wSQKD08/UItCyTMkzmRtDmdkwSGIIxB3+qNzwOFpR5LkxTdcH8OHtjmWTblF/WjayYqjz2pfgymppU5YqmKSnI+4QJcKky4FSKNa6XyTTpxslledJ4EOBSZcCpFGtcL5Np0o2Ty/KkfBUkCIuISG4a56VUEZEmQkFYRCQgBWERkYAUhEVEAlIQFhEJSEFYRCQgBWERkYAUhEVEAlIQFhEJSEFYRCQgBWERkYAUhEVEAlIQFhEJSEFYRCQgBWERkYAUhEVEAlIQFhEJKOdf1uB3riRz+gGT3MR/Qj4XKqfZUTnNTT7lVJlwiaT6sUI1DTdSWqm+AzUNN/nQb8yJiASkTFhEJCAFYRGRgBSERUQCUhAWEQlIQVhEJCAFYRGRgBSERUQCUhAWEQlIQVhEJCAFYRGRgBSERUQCUhAWEQlIQVhEJCAFYRGRgBSERUQCUhAWEQlIQVhEJCAFYRGRgBSERUQCUhAWEQlIQVhEJCAFYRGRgBSERUQCUhAWEQlIQVhEJCAFYRGRgBSERUQCUhAWEQlIQVhEJCAFYRGRgBSERUQCUhAWEQlIQVhEJCAFYRGRgBSERUQCUhAWEQlIQVhEJCAFYRGRgBSERUQCUhAWEQlIQVhEJCAFYRGRgBSERUQCUhAWEQlIQVhEJCAFYRGRgBSERUQCUhAWEQlIQVhEJCAFYRGRgBSERUQCUhAWEQlIQVhEJCAFYRGRgBSERUQCUhAWEQlIQVhEJCAFYRGRgBSERUQCUhAWEQlIQVhEJCAFYRGRgBSERUQCUhAWEQlIQVhEJCAFYRGRgBSERUQCUhAWEQlIQVhEJCAFYRGRgBSERUQCUhAWEQlIQVhEJCAFYRGRgBSERUQCUhAWEQlIQVhEJCAFYRGRgBSERUQCUhAWEQlIQVhEJCAFYRGRgBSERUQCUhAWEQlIQVhEJCAFYRGRgBSERUQCUhAWEQlIQVhEJCAFYRGRgBSERUQCUhAWEQlIQVhEJCAFYRGRgBSERUQCUhAWEQlIQVhEJCAFYRGRgBSERUQCUhAWEQlIQVhEJCAFYRGRgBSERUQCUhAWEQlIQVhEJCAFYRGRgBSERUQCUhAWEQlIQVhEJCAFYRGRgBSERUQCUhAWEQlIQVhEJCAFYRGRgBSERUQCUhAWEQlIQVhEJCAFYRGRgBSERUQCUhAWEQlIQVhEJCAFYRGRgBSERUQCUhAWEQlIQVhEJCAFYRGRgBSERUQCUhAWEQlIQVhEJCAFYRGRgBSERUQCUhAWEQlIQVhEJCAFYRGRgBSERUQCUhAWEQlIQVhEJCAFYRGRgBSERUQCUhAWEQlIQVhEJJCFCxdaRXVC1C0iIiV0+Y9/Yv8/dPxze8RhUzwAAAAASUVORK5CYII=;imageBorder=none;strokeWidth=2;movable=1;resizable=1;rotatable=1;deletable=1;editable=1;locked=0;connectable=1;" parent="1" vertex="1">
          <mxGeometry x="-162" y="840" width="353" height="636" as="geometry" />
        </mxCell>
        <mxCell id="myNyhjmuBwBBh0yOWU_x-3" value="" style="shape=image;aspect=fixed;image=data:image/png,iVBORw0KGgoAAAANSUhEUgAAAV4AAAJ6CAYAAABg/iqnAAAAAXNSR0IArs4c6QAAAARnQU1BAACxjwv8YQUAAAAJcEhZcwAADsMAAA7DAcdvqGQAAEeCSURBVHhe7d0LlBTlnffxP95FQEQgEBXMEBAEAop4ISFIJKtEhIC5wFGXNxiWd4+EKIHIm0MQWE8WlKARPBvAxbCKoIY7yhIwQBAiKgILXgBFAdcLIEFuojHOO7+n6xlrmp6Z7p6eh5nm+/GUXfeubmp+/e+nqqtqFBYxAEAwp0SPAIBACF4ACIzgBYDACF4ACIzgBYDACF4ACIzgBYDACF4ACIzgBYDACF4ACIzgBYDACF4ACIzgBYDACF4ACIzgBYDACF4ACKxSg3fChAnWo0cPO3LkSDQGAFBpwavQHT58uD3zzDP2+OOPR2NxMnnuueds5syZ7jFuy5YtUV/m9u7d69apTv1AdVQpwetDV+6//3679dZbXT9OLgsXLnT/9nr0fv7zn1vbtm3dYzY+/PBDt0516k+HnkvdlClTojEJNWrUOK5ToAOVLefBmxy6//qv/2rnnHOOGwYeeugh97hmzRr3GIKeU91rr70WjUHe+6Bo/1rczWzulYlu84PRhKohp8FL6KI8y5cvtyFDhtj48eOjMSfO5s2bXbdgwYJoDPLCgTfMnu2e6G/Uyaxea7OXRlWp8M1Z8BK6SMd1111nv/vd79zjidamTRvXFRQURGOQF96cbfb3Q2Y9lpt1Kgrbax81+94Ss7Z3RjOceDkJXkIX6VI7a6r2Vh0o037k22PVv27duuLh5AN0orNlkpfxZ9C88847xeM9NW8kj0MeqvO1xOPORYlHafTNqCei6tc3Q2ybYbbyJ4lx6lcTRZwqaM13LDqYG192bVGY+/GZKKygoqAt1Gqy7V544YVoTcg3Q4YMcf/GevRSjXv77bcLO3ToUGK/SO4ef/xxN+/mzZuLx6VaRuMOHz5cYr5UXVx8Xv88qObmdCws/H3Rv7Me/+eBaGRkxf8pLPzP2onHNT8vLJx9SWJY/Z/sSSy39Q/RzEWW9k6sRzSPn9cv66dloFLOagAyMXjwYFu/fr3rV/uvTj/UN6fyaBnNp/lvvPHG4nEarlWrlluXOq8olI8bhzzV50Wzrn8wO6NOUVV6l9mTLROVqbqtReM7jk00QagpotfqaKEiZzUw+1pvsy0PJ4Y1/9vzinaeXyf6N//O7LqZieX8sntfShzMy0QUwBUSr3p//etfR2NxsisKOLdP6NFLHqdvPKXtOwsWLCielqrijVene/bsKR4ffz4pbbxHxZvn3n/+yyr1nYWJijaZqlZNl7+9nphHj76qFb9sqk7TMpCTinfYsGHFFcq//du/2ahRo1w/UJ4333wz6jP70Y9+FPUllHcArl27dlGfWYMGDahkkZBcfap9t25Rxbt/i9mZ9RLjkuf5+8Gop4jmvaBo33vxV2Y7nja79P8mxvtlOz1gdsPCkt1Xrk5MS1POmhoIXwBVwvKiD3AdINPBNTUP6ICZDpA1+lYihBt0NFt1e2KcpusA2YGt0cKRtj9PNDG4/uhsCL/sa783O7e5WdObzA6+ZbZ3faKJIgM5beMlfJGpeNX61FNPRX0J//Ef/xH1ARnoVrQffVZUwf53T7MZDc1W/B+zgpvNrhidmP69Z8xOr2P2ZKvE9A/WFlW5lySmeQpVhWy7xNlaxeLLTqmROD/4zLrRxPTl/OAa4YtM6Dzaf/7nf3b92l90USWd7tW/f//iUxSBjKgy1cG1QYVmvZ5PPOpAmqfqVNP770l06v9xUfWrg2VxGp987q9fVuv88etmA4oCPovzgyvlrIbk8E0+ZxOIGzNmTPFZCbqokn7e+1//9V9uGKiQ5PN34xSiGTYRlKC24CxVSvCKD19VM3369InGAse7+OKL7cknn3Q/3dUBMnXqf+GFF6I5gPxSQ6c2RP3ACaNfmimA4/RrtW7dEr8iUghfddVVrh+o7iqt4gXSpZ/6/uAHP3CXZNS1etUpdO+++243XT98UFswkC+oeHFCqdJV6PpfrqWiK5pVhYvqALlCxYsTSs0Lf/zjH1P++EEH3NTEQOgi31DxosrQlcXefvtt169rLSS3+QL5guAFgMBoagCAwAheAAiM4AWAwAheAAiM4AWAwAheAAiM4AWAwAheAAiM4AWAwAheAAiM4AWAwAheAAiM4AWAwAheAAiM4AWAwAheAAiM4AWAwAheAAiM4AWAwAheAAiM4AWAwAheAAiM4AWAwAheAAiM4AWAwAheAAiM4AWAwAheAAiM4AWAwAheAAiM4AWAwAheAAiM4AWAwAjeE+zdd9+N+gCcLCocvLNmzbK1a9dGQ+lbsGCB7d+/PxqquG3btmW1HSfK0aNHbdiwYdalSxfr1auXGwZwcqhQ8Co4R44cadOnT4/GpG/o0KG2b9++aKjiXn/9dVu+fHk0VPUtW7bMDhw4YJs3b7aHH37YpkyZ4j7EAOS/CgXv6tWrrWvXrrZixQpXcSJ9O3bssCZNmljNmjXtwgsvtLZt21rTpk2jqQDyWY3CIlF/xn76059a3759XdVWq1YtGzhwYDQlQV/9fRXavHlz95VaTQzbt2+3GTNmWO/eva1Dhw7Wr18/Gzt2rA0YMMCFkGjZnTt3ummiYH/mmWfs0KFD1q5dO2vQoIGb3rlzZ1dx79q1y/bu3evW59ej9tOnn37aLdO4cWPr3r17ifW/+uqrbru1PX77FIRxqV6Dn0evZdOmTa6/U6dO1q1bN9ev59U29ezZ0xYuXOjGqb99+/bF09avX+/Ga3s9La/1yMaNG4uXjb9e/34AqL6yrngVDKp0FRSqeseNG1eizVahNH78eBdWCg4Fjb5eq6rTsFxyySXFVZ6CON7OqRBVIIqeS6GpkNSyqha1bk1XCGqcqkeFk/o1TkGt9lO/zOHDh+2OO+4oPpil9WubNd5vT3LolvYaRB8UixYtcuPVTZo0yaZNm+am6XXo9Tz++ONumkL/5ptvdtvkt1fb6rdXnf/gEL1eza/lNC3+egHkAVW82RgzZkzh1KlTo6HCwttvv71w/vz5rv/IkSOFBQUFhWvWrHHDonFxmr5169Zo6PhhrUvPIb/4xS9KPJdomp8u8fkl1TITJ050nWh+zVOasl7Dhg0b3LSPPvrIDcvu3bvdOD3qdag//pqTtyd5+9Xv3z+9l0888YTr95LnB1B9ZVXxqrJVRdewYUNXxalr3bq1qwDFV5X+a7MkV5OZmDdvnqte41QJliXVMkVhaJMnT46GzOrUqRP1Ha+s16Cv/P3797d69eq5YfFNGL4JQeKvWc/1/vvvR0Nl0zeJeBOElPd6AVQfWQXv0qVLrU2bNq59c/bs2a5TO6oCQ1+TfeD48MpGvNlBz6Wv4nHlnX5V2jJqV05HWa/hnHPOKRGw4rcnFwfI1HSjszTifFsygOovq+BV0P7sZz+zUaNGlegGDx7swlfVnyrCBx980AWXQkkHqMo6z1bza72qplVBq99XmzpYpjZUjRetR9PL4pfRB4H4ZW644QY3XJ6yXoPfLrXpanvV6XQwBWaLFi3ctIrQAUudbqc2Zr1mPY++YQDIDxkHr4Jny5YtJb6CewoefZVXEOnHAfp6ra/7OlVKoVdWc4NC++DBg9axY0d3IK1Hjx7FZwnoTAKFkcY3a9bMnRVw7bXXumml8cvoIJWW0cEphbFfZzpKew3qdO7tunXr3PaqU8U/evToMl9jurSNCnKdrnffffe5cffee697BFD9Veh0snSoUjx27FiJ9tCyKLTPOuusUgNM09Ndl6eK1bfBZqOs11De9mZDz5e8Pp1FobMckk/ZA1D9VHrwInMPPPCAq6BV+davX99WrVplixcvdlV2RT5AAFQNBG8VpIp35syZrilD5/aqWeWHP/whoQvkCYIXAALL+pdrAIDsELwAEBjBCwCBEbwAEBjBCwCBEbwAEBjBCwCBEbwAEBjBCwCBEbwAEBjBCwCBEbwAEBjBCwCBEbwAEBjBCwCBEbwAEBjBCwCBEbwAEBjBCwCBEbwAEBjBCwCBEbwAEBjBCwCB1SgsEvUDQN4pLeJq1KgR9YVH8ALIO/FYSyd4Q4cwwQsgb/g402O8/4svvnD93imnnFIctnqM94dA8ALICz5sfefCdtsMO2XXM3bK/lfslKPvufm+qPlV+6Le5fZFkxvNWvQvDuF4V9kqdHBt//791qxZM3v33XejMemZNWuWrV27NhoKR9s5duzYaCgx/NOf/tS9DgDVVzxw//GPf9gXr0+3055sZmes+Rc7bfcCO+XI7qKZ/uE69Wucm1Y0j+bVMvF1VLYKBe/q1avd45IlS9xjurZv32579+6NhsI5evSozZgxIxoyq1evnt1000121llnRWMAVDfxwFSA1lg7xM5YO6iowi2/INQ8mlfLhAzfCjU19OrVy/r27WuzZ892VWzNmjXdeFWQCrkLL7ywxLCCTlXm1KlT7ZJLLrEuXbpYixYtiufZt2+fW4dfTjS/X6+ma5qG/fz169d3643btm2be9S61a9lNP8bb7xhgwYNch8UWk6Bq/X7bRANa1tTrRdAAJ99bLbnRbOPt5sd21eUrCXbZ+OUXkUxWTRLUeiqaWH3Ujvjby9HUzPzWYtBZt98yE499dRKb3bIOnjVVDB9+nR75JFH3Nf1AQMGWKdOndy0BQsW2KZNm2zUqFElhhXS3bt3d+O8t956y63rtttus969e7tquEOHDjZs2DAXsGoaOHjwoB04cMDNr0pZz6Xnbt68uc2bN8/mzJlj7du3d+H6y1/+0s1Xt25d96jpClp9OMSr3YkTJ1qrVq3c9mgb5IEHHrDJkydb//793byaRx8uAALZ94rZzsVlhm2c4qsoc4uq1aLHfRvsrPeKlq2AY9f83k5p+RMXvvEDcLmWdVPD8uXL3dd0UaDOnTvX9ZdFlaVCTsGmUFO/KlKF7qpVq2zChAmuclbQzpw5M1rKrE6dOi7g1V177bW2aNEiN5/m13oef/xxN59Cs3Xr1m4+TevTp48bL/oQ8E0iet7kQNWHw6uvvmqbN29287700kvuAwBAIArddxZmELqqdhPh+3lRtXvGnr8kJlTAGZvutc8//9yt03eVIavgVWWpirBz585uWJWuKkv/FT8Tr7/+ugti37ygKvfWW2+1devWuWFp165d1GdWUFBgTZo0KW5+UNWq5xZt04033uj6xVfg6VBFrg8Sv141M8SbPABUIjUvqNLNiILR3NkLNT7aaKd8fjAanz21+dbYNsOts7JCV7IK3qVLl7rHjh07urMa2rZt64ZVteaC2lh9UwGAk4DadNOsdEsoCsd/FC126sHt0YiKO/XdZ92BtsqUcfAqFNVeqnZVfWX3nb7Gjxs3zk1v0KCB7dq1y1XGGlY1qfbYVFQ1q1JV04Xo4Jbab301nYkRI0a4A3d6TlHzQbq6devmntdX7XrMpoIHkAUdSMuAilHXzFDU6aDaqZ++78bnwqn7N1T6GQ4ZB+/GjRtdsOpgVpzab7t27WrLli1zX/Gvu+46VxH7ari0g1T6Sq8QV5iretaZDlo2m4Nat9xyi2sP1nNqXXv27ImmlE/brIN2w4cPd8vqUWdNAAhAZy9kqigPdSLDF18U2qmfH45GVtypxz5wTQ3Jv3bLpUr/5ZqqT99uWp5M5i1LRdeTq+0AkKb1Y4uCNP2gcxVv0f8+/0ehHf30M6u79T6NTUysqBqn2oEfJU5tPe200yrltLKsz2pIVyYBlquwq+h6CF0gsLPqRz3Z+fzUWlFfxX1+5leivspT6cELAOU6N/UxoHQoxD49rWFiIAc+rdPWncNbmQheACdewyuLvuJnGEdF3/6VjzVOqWGfnN0sGllxnzTs5poWKjN8CV4AJ94Z55o17RENlE9Nrmp1VXfaqafa53Xb2mc1Kt7c8NkZjezzZreWaNvNdfuuELwAqob6l5td3FMlbDQiDUWheGrR7GeccZrtP+fqaGT29hf8vGhdZ7ifDFcmrscLoGpJ8yI57syGov90Otmnf/+HfXzomJ323lJr+Pmr0RyZ2dPwx/b5VRPt3HPPtTPPPLPEdXpzLavg/eCDD6K+L9WuXdvOOeecaCgzWt/hw4ft61//ejTmS2+++abVqlXLGjVqFI3JT3/729/svPPOi4bCy+Z91o9kdMU3nTt9+eWXu0ohFzZs2ODOC0/enz777DP7+9//nvV+hvyj+NL5tvrBwyeffOJ+tHX2K3dbo31PR3Ok54P6P7RPLh/vfldw9tlnV82L5OjCNC+++GKJ7v33s//liJZ97bXXoqGSNL4i607XwoULU36gVBaFizrR8/77v/+76z9RMn2f9UExf/58a9mypasOKiL+XogugHTo0KFo6Eu6iNFzzz0XDeWe/h20H1RU6H3pZKdwVFDqMq+61MDRy8bZjia/tk/SONNB82heLaNltQ5/WcjKlHUbb8+ePUt0qapVpEdV5j333BMNVQ8K6YsvvthdsOiyyy7LWbVbFl157oYbboiGgETo+k4HxHQOvqrW01r/1LZd8Sfb9tX/Zx/W/KZ9cmoDKyyKO3Xq1zhN0zyaV8to2co+qOZl1dSga97ed59+KVKSqiDdleKiiy6y3bt3u7aSa665pviPUl9N9ZNj8fMotFXt6LoICqCPP/64xHKqHjSv/rj1VfOvf/2rm0efTPpJcvLX8/g8Wo9ccMEF7oNB69LzibZ169at7oLs2uZ33nnHvvKVr1jTpk3t6quvPm5b9fzywgsvuEdduvLYsWPFP53WvMnbVNrr1XZ89NFHbvz555/vrkuhbfDbVtpzS6r3+IorrrCXX37Zveb4/GW9X8nvkyo0fb1P533We6CryqkqVfheeuml7v3Vv6O2SfS+KJRFr7dhw4buJ9x6Lv0s3Et+L/QeaP/SJT39T771/uj51Ryin3Hr38e/D5L8HklZ+0Gq16d9YefOnfbhhx+615T8b+L3Fz23+Neq5dXUItnuS3qdWs83v/lNmlGypBjznS7rqH/jTz/91I4cOeJ+iap+jReFq76lKWj1fqtfWRMqdCXrild/MPFOO6Ze3PPPP+9eyJVXXul27JUrV7r5tfPpq6n+IDVNQat5vfXr17trQGia+Es9xmmcdnLNo0s2an3J/HKaR+t75plnir+2xp9P26odXm+85tUfiq7xoD+eVNsa/yPRH+g3vvEN90esawDrj0rzadsee+wxN19Zr1fDurylOvX7902Sl9M07URe8nuswBwzZowLFS2jbfHNNvH3Qu+Xtk07oiS/T3r/vfLeZ71H2na9Z5qncePG7v3Ra9SwtkPL6LWItlfbrWlaNk7j4u+F5+dXYPv3VP+OPoy1fr3/mkcfgvH3SMraD+LT9LwKfm2X/v39a9J+kWp/kfhrVVOLmtoqsi/59RC62YsHpgJU7bQ67qQ7yaig036sD0J16tc4TdM8mjdk6ErWwaudJd7FdxpVQHphGu+vOqZA+N73vueqIE3r0aPkOXu6jq5fThWRPqXi7WTq1zj9kYu+GkiqebS81qP1xa/Pm4o+6TSv3nytU5VVqm2NX+hdlaFfvy6WrtepYVU3urqalPV6NaxgU6f+uOTltM5UX+P9e6VvBt/61rdcCGkZ/YErJFK9F7qusf7wy3qf0nmf9R5p2/WeaXn92+v90WvUsLZDr0GvxVMIaZq6OA2nei/8/P49jT+/6INGFbAOysa/VUk6r89P0/umTq9Jr9W/plTvuZfqtUpF9iVNR8X40NRBMXUKU32T0EFjBazfz9SvcZqmefz8oUJXsg5e7Szxrqwd1YvPc/rpp0d9CckHaEq7XoLaFn2nkNGbGJe8XPJ60xXfVv+hklxVif7ISlPW6y1LOu+lV9a8ye+FdjqFspT3PpX3PqcSf43asXWUubLoTiQKTFX3qmCT/23Ken2l7VuZiL/W8v690t2XUHE+POMBrINl+veKd/6shXjgqgsl6+DNlNq21K7md7hXXnnFPXr6uqbmClElo7Y2X22J+vVVUZWY2sh0oEVtgvFKW/NoOS0v+lqt9Xr6iuErJ7XD+ba/ZMnbqq+GqiozCcTyXm9pkpfzX9czleq9UPuj2i+Tp+l99+9TOu9zKnp/tN2ibdf6VM1VFm27Klm1waqC1WlEXln7Qappfr9LVtr+kvxa45V9slzsS8hcPEzT6ULLOnh1ACTexU8HSkV/wPrqNXLkSDe/by/zVFGpLUzTnn32Wfv+979fYudUv+7Npguuax6t57333oumJmgeLaflNc9TTz1VolLTVz6N0zS1remgVCoKHLUFxbc10wuzl/d6S5P83Pqj9u2ymfDvl8JW6/nP//xP9xr8txO9F/590vvu36d03udUdLaB2vT9MgopvQeVQSGm5oeHHnrIHn30UffBoNfllbUfpHpfVNWnUtr+ovdRgazxv//978us7HOxL6FiUgWtuhMp+C/X9Eejnb805U2Xis6TzvJeJvOmUpHlK/rcXrbvRTbPn6ttTld5z5eL11fafJm+1kznR/7iJ8MAEFiwNl4AQALBCwCBEbwAEBjBCwCBEbwAEBjBCwCBEbwAEBjBCwCBEbwAEBjBCwCBEbwAEBjBCwCBEbwAEBjBCwCBEbwAEBjBCwCBEbwAEFjGd6DQPcD8IrpvUbxfSptWXn9cuuuKK22Z5PFeaeMlF8toWP2ZrivT8ZLOMuqPT890mdLml+T5Ui0THy9lLVNav2jY9wMnmu7AnY2Mg7e8m1oCwMlCNzPNBvdcA4DAaOMFgMAIXgAIjOAFgMAIXgAIjOAFgMAIXgAIjOAFgMAIXgAIjOAFgMAIXgAIjOAFgMAyvlbDRx99ZJ9++mk0VNL5559vZ555ZjRU9Wi7P/vsM6tdu3Y0BvmqKu2nhw4dstdee83OOussKygosL/+9a927Ngxu+KKK+yrX/1qNNfx9Bq0rcg/GQfvX/7yF3v//fdd/1tvvWWNGze2mjVruuFu3bpVuR1l0KBBNmXKFNe/bt06e+edd+zHP/6xG0b+qir7qUJ30qRJdt1119mHH35oW7ZssW9961t27rnn2oUXXlhiO7R/ylVXXeUete/ec889ZYYzqqcKXZ3sySeftM6dO1fpHSMevL4CqspVOXLvRO6nmzZtsjfeeKP4wz6+PyZLDl6FNt/O8tOpo4tE/Rl79dVXrWnTpsU7h3bwNm3auH59TXr55ZfddFUfO3futBdeeMF27Njh/gDmz59vR44csTVr1rhx9evXL65I4rQzah491znnnGPnnXeeG6/nKmt57ezPPfecvf3223b06FE77bTT7MCBA7Zt27YS26Q/DF3cXevW9D/96U/HrU/r0Hhtg55TlQqqjxO1n2p9L730kn3wwQf23nvvuWl+f1S/3wbRNm3fvt3Np3k0Tc+tSn3Xrl32yiuvuMpd26rtOfvss2358uXF+67/u9Dr8eO1Lu2r2vdRteT04Nqf//znqC9RXfqvenrUTqOqo23btu4PQPN+/PHHblzdunVTVgHacdU2pnmuvPJKmzVrltsppbzlL7jgAjdN9KhhzZ+8TWpna9mypY0bN85efPHF49an51u5cqV7fk3T9ijUUX2F2k9bt25tLVq0cOGpaeok3u9pWPOq89P03No+Pb8Ct3nz5m79Kij0HNrGdu3auX1XgasKWePj61i1apV7RNUS7KyGSy+91FUQX/va16Ix5j7VNe7b3/62qzT0CR03c+ZM+8EPflC8XJ8+fVw4emUtrz8aTRM9+monzm+Tdt6rr77a7azx9YmeT/P55gn1q0pGfsrlfqr2W7XlqkLWNHUS7/c0rHnVJU+TZs2auXWrUxtxx44dXb+Khu985zsuoBX+TZo0sTp16rhlFNRz5sxx/ahaqvzpZGeccUbUZ26H0te0ypDq66OnimP37t2uEwU1EBdqP5WyjlF88sknxfvqnj17bMCAAdEUVCU5DV61k/lq4M033yxud8qWPsn9VyV9oq9evdpVJCFdfPHF7tQf3dROBz0aNmxYohpC9ZOP+6lcdNFFtnfvXvfc2le//vWvuw5VT06DV1+x/vCHP7gjt2oru+aaa6Ip2fn+979vf/vb39z6hgwZ4v5Asr2rZ7a0A6ttT8+v7XjmmWfs8OHD0VRUR/m4n4qaKHSqnE5f07aoPVpBjKqnUm52qU/9XJ6ylev1ZauqbAdyI1/3U2FfrdoqJXgBAKWr8gfXACDfELwAEBjBCwCBEbwAEFjOD67pxPF3333X9euni5nQdRSkvOX2799v+/btc7+br1evXjQWKJ32Se2bunZBWT+WyRb7LjKi4M3E/PnzCwsKCoq7rVu3RlMKC9esWVPYs2fP4mm333574e7du6OppUteTv0al+zIkSOFY8aMKZ5PnYY1HkhF+5/2w/g+88QTT0RTj6d9SftfuvsV+y6ykXHwfvTRRy5sly1b5nYeH7war+GpU6e6nUndL37xC7fTl2XDhg1uuYkTJ7p1qVO/xmlanNbnd2zN53d6jQeSaZ/0+4f2Je0zvnAoLXwVhlomnUBk30W2Mg5eTzuPdjA9xoe1s3t+xyyLdj7trMn8H4Dngz65gvbPq+lAnPYrffAnh6gP3+R9KbmYKA/7LrKVs4Nrvt1M1w71dCWn+DVHk6ldTFfk79q1azTmS0U7rpvm287Wrl1rvXv3Pu5auGpT03hNB+ImT57s7vyQ3Kb73e9+1z2uX7/ePYragPUz28GDB7thtcWWhX0XFZGz4NVONWLECHerEl0TVN3QoUPt7rvvjuYwd3HmXr16Fe+Qr7/+untM9bt2f5DCzzNjxozjrmHqdejQwU0HPL+Pad9IpiBW4PnLe+qgm78fgMK6e/fu7rKL2oc9BbH2XV1kXNh3URE5PZ2sVq1a7pNeV9JXJ/GLdKgC1nQd1S1PJkeeK+MoNfKbv2atqOJcsWKFu6iMLpqjTv0jR460BQsWuHm0z2rf9RfiLwv7LsqTs+DVDjp79mx3ebxRo0a5ThdhVtXrqw9VDJreqVMnN+ylunZpuuOktPFAafvGwYMHo74vmwJ0ZS9P/RqnSzyKqljtuwMHDnTDHvsuspGz4NXXNn1tirdj6WuYdt54W1p8eqtWrdyjD+Y4P87P079//xLridN4TQe85K/7cQq7efPmlbigfbwC9jTOf3MT9l3kSk6bGuJVhGgH145b2tcp/XHo4MTChQujMV/SOE3zf0CqQPTHkryja1jj49UKIDrmoG9hyVXlsmXL3KNvd9VtoXRQOD6f+jXu2muvjcaUxL6Lisj6LsO6uZ7uNXXrrbe6e0udfvrp9pvf/Ma++OILN6zpEyZMcDcCvPPOO904HVzTkWNVxhoW3TNq+PDh7vY6ut+U7sg6depUd8Dht7/9rTVq1MjNp6vrax6NV5Cfcsop9vzzz9t9991n3/zmN+3222938wGeKk41d2kf1C/FdFucuXPn2q9//Wu799573Y0jRfuWDgpr39MdRvT4u9/9zpYsWWJjxoxx+6oOrvXt29caNGhgBQUFbjn2XWQtOq0sY/4cxPg5jzo/Uucvarw6nUMZP5Hcnz+Z/MserUPzlracp/MxdeK7n0+d/8EGkIrOK9d5tX5/0f6p/TCZ9rfkfTC+b/v9XftbHPsuslEpF0LXOZH6ZE/1W3RVDqX9Rt2fO5nOb9j1Nc1/lQPKo6YD7V/J59ImK2sfZN9FrnAHCgAILKcH1wAA5SN4ASAwghcAAiN4ASAwghcAAiN4ASAwghcAAiN4ASAwghcAAsv4l2sbNmyI+oDKc9lll0V92WE/RQjZ7qcZB6+uMAZUtlS31MkE+ylCyHY/5VoNABAYbbwAEBjBCwCBEbwAEBjBCwCBEbwAEBjBCwCBEbwAEBjBCwCBEbwAEBjBCwCBEbwAEFjGwXvo0CHXxWn4008/jYYSPvroo+PmS8d7771nb7zxRjRUunTnA4CqJuPg/d///V/74x//GA0laHjdunXRUMKvfvWrqC8zu3fvtk2bNkVDpUt3PgCoajIO3q997Wv2wgsvFFezenz//fftf/7nf9ywvP3223b11Vdb7dq1ozEAAO/U0UWi/rScdtpppitJnnHGGVa/fn33df/cc891TQvNmjWzmjVr2ksvvWTNmze3Ro0aufHLly9310dV88CFF17o1qGmiT//+c/28ssv244dO9y6tKwq6gMHDlibNm3csosWLbLGjRu7aaqq16xZ4+Y/cuSIff75524+iU/78MMPbefOnVavXj2bP3++2xY9p/zpT3+ys88+2z3Pc889Z6+++qqdc845dt5557npAFDZsjq41qJFC9u2bZvrV8Ap2L7xjW/Yu+++68YpTAsKClw1PGvWLDd/586d3bRVq1a5xyeeeMIFtsY3bdrUzRenYF64cKG1a9fOzj//fPvLX/5ir732mpu/bdu2tmXLlmhOO27a888/76pwVdxHjx51Fbgo+LXdGv/AAw+4+a+88krXbAEAoWQVvGpueOaZZ1yw6lHDX//61+2VV15xIacKVeGmMGzSpInVqVPHLaeAnjNnjgtAVawXXXSRG9+gQQP3qPGisFQwX3PNNdayZUs3bubMmfaDH/zAvvrVr7rn69OnjxsvZU3TOv7617+6foW1wlbbprD34f3tb3/bPQJACFkF75lnnmk33nijPfvss+5RFHqqMl988UW7/PLL3Tj55JNPXEWpbs+ePTZgwIBoSuIAme86duxY3CasUNa69Dxxat7w0p2m4Na69IGgStwH+c9+9jNXceuDQ80PABBKVsEraj5QG60evSuuuMKNUzODqKLdu3evXXrppXbVVVe5qlidmg4OHjzopmu87lvUsGHD4uBVBTxo0CAXimrnle985zvFzRRqhli5cqXrl+RpCv+46667zjVl6FGhrHnUxqvn7t+/v6vCASCUrINXX+njj6KmhPjZDKqCu3XrZpMmTXJBOmXKFBfECj8Nz5071z0OGTLEVb1xCmdV01pG4av1qH1W8//2t7+N5krQNAWpn6amijiFvdqi/Y3pDh8+7JofJk+e7LYtXoUDQGULdrNLVZnJzQNS2vjSlDV/adN0xsPHH39s//RP/xSNScj0uQEgF7KueDNVWsBlGnxlzZ9qmsJVp43pIFsyQhfAiZD3t3dXM4WaN/xBNQA40fI+eAGgqgnW1AAASCB4ASAwghcAAiN4ASAwghcAAsvtWQ1zrzTb+1I0kKUGHc36lPzJLwDkk9xWvBUNXcnFOgCgCqOpAQACqxrBW/DDqAcA8l/Gt/4p0/oxUU8GLu5l9k9zzP72WqKTK8rfpAULFthTTz3lLgepq5bpKmm6pY+MHTvW3YbIX4Dd06UhdfF2XY5Sd8t48sknrUOHDtHUL8WX13wPPvigex7f6YLtus6DrqBWmuRt0DY+/PDD7g4Zfju9adOmuemaBiD/ndiKt0l3s+8+lehvln7VqwCdPn26uy2QOl3o/Je//GU01WzGjBnHXRpStm/f7q7bIJo+btw4F+DJ4svrUcP+udR98MEH1r179+NuV+StXbvWLbNkyZJoTOL6xaJLUcZp3sWLF9v1118fjQGQ705c8F5wnVm3otA95QyzHU+bLftRNKF8s2fPdtfQ7dWrl+tGjRpl2RbuQ4cOddVmefxzqbvrrrtc5avt0I08k2lc165dXaDGPwAGDx5s69evL15G08aPH+/uhqEbcwI4OVRe8HYoIwgbfztR6Z5eK+PQFV1wXXcTjoea7l6cjYkTJ9rw4cNLrCsdej6Fvy6kHrd//35X7foPAt1d2VO4KmS1jJ5PF3lXU4cu5A7g5FE5wfuth82uuCd1+Da8OhG6ZxZVeFmErtx6663u1j/9+vVzX/cVdtlSBavwmzBhQjQmfa1atXI3zPR3V5alS5da7969XTD37dvXNYnEKWT1waEqXa9BVTCAk0vlBO970f3QksO3/uWJ0D37K1mHrugWPo8++qirOHWRc90oU22l2Ro2bJhrAkjV3psOXy3rUc0P/i7HarddsWLFcU0Zd955p82bN48mBuAkVTnBGw9VH7712iRCt9ZFFQpdT4GlavWRRx6xESNG2G233RZNScik6aBmzZp2//33p93e6+3bt889+gNnalZQBaz1aT2arrZetQfH+WYR3foewMmn8tp4k8NXB9LqNMtJ6Ma/2kuXLl3cox+vr/ovvVTyF3AKYrW96g7GqSg8fXtvOrQ+NSMo9D3dvFNBu3DhQlf5qqtbt647eyKTDwIA+a3yglfiIXteq5yErpoU7rjjDveotl2FrSrKNm3aFFeSagP2p4qp8lSnNlWFor/TcCq+vTcVvx51em7dGVmhesstt7jp2g41H+igmp7Ld2o71rZVpCkEQH6p3OAVH7Y5CF3p1KmTa9vVaVhq21W1q7sI68cJnsL1sccecxWpzrdVpx8yKBTVDFAWtfcqKJP59ajTem+66Sb3Iwm/Pp2z6w+qJdNBNlW/ACC5vTrZlBpRTwUNSm+TVPGeddZZZYZpOvMAQEiVX/FWIh1gKy9Q05kHAEKq1sELANVRboNXFzGvqFysAwCqsNy28QIAykVTAwAERvACQGAELwAERvACQGAELwAERvACQGAELwAERvACQGAELwAERvACQGAELwAERvACQGAELwAEltOrk02aNMl2794dDWXnoosucrc9B4B8ldOKt6KhK7lYBwBUZTmteH/5y1+6x/vuu889ZqqiywNAdUAbLwAEdupo3fM8R5YtW+Yev/vd77rHTKW7/KxZs+zMM8+0888/PxpT0vLly+2DDz5w7cXe0aNH7dlnn7WnnnrKVq1aZa+88oqp2I/PI7plu24bf/rpp0djEvSchw4dKp5f82k9vtu2bZt9+umnx60vbu3atfb8889b27ZtozFm06ZNs3fffddatmwZjUnQ+nTL+mbNmrlb0wPIH9Wy4t2+fbtNnTo1GipJt3PXQb69e/dGY8wFW79+/WzRokXWrl0719WqVctuu+02F3xxM2bMsAkTJkRDX9Jzxtep+Ro3bly8Phk/frwLZIV8KtOnT7eRI0e6bfS6dOliQ4cOdUEbp+aW5s2b24UXXhiNAZAvqm1Tw7x581xlm0yBuGXLlmgoQUX9tddea4888oj16tXLdQMHDnSV6uLFi23BggXRnAlaR/K4VBSa8fWpKj548KBNmTIlmuNLCtYVK1ZY165dbfXq1dFYsxYtWti9997rgtYHtn9urRdA/qm2wdu7d29X2carS4XbypUrXbh5+nqvwOvfv3805kuqJgcMGOAq0biJEyemrELLU7NmTfuXf/kXmzx5squy4xTygwcPtr59+7rKO84HrJpatJyeWwcatT4A+afaBm/nzp2tQ4cONnPmzGhM4uu5grRJkybRGHPNAwrdevXqRWNKatWqlauQ40GpcQrf4cOHl9psUBpVsPLGG2+4R9E6xo0b5z4QOnXq5D4I9IHgKWAVygrcBx980FXAfj0A8k+1PqtBYaVAU2Va0a/nyQGr9SjYU7X3puPIkSNRX6KSVei2b9/eheyIESOOaybRNL2eAwcO0MQA5LlqHbyqYlWZqtL1X8+TnXPOObZ+/fpo6Hj79u1zj6kqzGHDhrll02nv9fyBM1XNnpoWWrdu7T4g1DVs2NC1I8cPsklBQYGr1mliAPJbtQ5e8dWhqsVU4amv9pIqPFXlqn1XFWgqCsD777/fhXpZ4R2nQFV167dl48aNrmlBp6LNnj3bdZs2bbI2bdrY0qVL3TwATi7VPnhFZyvcdddd0VBJCs+7777bhadOHfNVpwJx1KhRVrduXbvllluiuY+nAFVVnXymhOzatavE+nQqmQ7uxU+NVujqQ0HPFe90PQqFMICTT14Eb3lU9S5ZssS2bt1q3bt3d93NN99sl1xyiQvL8r7aq6pOdVbEoEGDitd3zz33uPN6H3300eJzb9WUoDMc4mdZeNomhXn8IBuAk8NJea0GncHADxMAnCgnRcWbjNAFcCJVSsVbUZVd8QLAiZTTiresC8SkKxfrAICqLKcVLwCgfCdlGy8AnEgELwAERvACQGAELwAERvACQGAELwAERvACQGAELwAERvACQGAELwAERvACQGAELwAERvACQGA5vTrZpEmTbPfu3dFQdnRZSN2PDADyVU4r3oqGruRiHQBQlZ2U91wDgBOJNl4ACKzaVby6Hfry5cujoeMNGDDAdu3aZTt37rR+/fpFYxN0d+Hp06fbqFGj3HBp62revHnxshs3brSFCxe6/tq1a9uNN95oLVq0cMOzZs2y7du3u37R9LZt27pbt5d2y3g9Z/K2TZs2zRo2bOhuIx+3bds2mz17tntN3KATyB/VruKtX7++tWvXznWNGze2GTNmFA+rU+Dt3bu3RCB6R48edfN7mk8hHV9eXdOmTd10he7NN9/sgljja9WqZd27d7f9+/e76f45/HKNGjVyQTlkyBAX8qko+EeOHFm8DunSpYsNHTrUBW2cPoD03IQukF+qXfCq2lRlqE6BJX5YXb169dy4dDVp0qTE8upUscqKFSusf//+rjrV+IEDB9qqVatKPIcC1y+n+R555BG76qqrbPTo0S7o4xSsWmfXrl1t9erV0djEa7r33ntd0PplFixY4B61XgD5hTbeMqiCVUUcr07TqT5vueUWV02rWSFOoT148GDr27evLVq0KBqb4AN22bJlrlpWBayml9KaLABUXyd98CpYVV3GO/+V//rrr3ePHTt2dO2wyU0BpVFYdujQwTZv3hyNSTRzjBs3zlW7qqhV+caDWcsolBW4Dz74oKuAfVsygPxCxVsGNSk89NBD9thjj9nWrVtd+64COF2HDh2K+hKVrEK3ffv2LmRHjBhx3IE9TVP4HjhwgCYGII/lbfAePHgw6itbqjbeeKWpkFSFOmHCBBfAqlrTqXz9QTtPTQutW7d2y6rTWQw60BdvxpCCggK3TTQxAPkrL4NXZyXMmzfvuFBbv369qzrTlXxmgj/oplAtiypZNSV07tzZDevsCA2rAtZZD+o2bdpkbdq0saVLl7p5AJw88jJ49ZW9d+/e9pvf/MaFnipMhaFO49KBrThVxr4K9Z0CV6GtsybU5uuHfdNAy5Yt3aPs2bOnxLJqihg0aJCrjv3ZDwpdNSHo/OF4p2tSKIQBnFzytqlh7NixVqdOHXcertpmdQGfiRMnWrdu3aI5ElQZa3q807m2Cs05c+a4JgIFsA6waR0K1PiZDWp6iC97+PBhW7JkSXF1rMCePHlyykpb82zZsuW4sx8A5LeT4loNqlgr8iMEnZFw7NixjM8RBoBUToqzGir6yy8d6CJ0AeRKpVS8FZXrihcAqpKcVry6iHlF5WIdAFCV5bTiBQCU76Ro4wWAqoTgBYDACF4ACIzgBYDACF4ACIzgBYDACF4ACIzgBYDACF4ACIzgBYDACF4ACIzgBYDACF4ACCynVyfTrXF2794dDWVHl4XUvcgAIF/ltOKtaOhKLtYBAFXZSXHPNQCoSmjjBYDAql3Fu3HjRnvppZds4MCB0ZiEWbNmWatWrax9+/bRmC9vrT548GB3s0rd8j2VAQMGuBtiah3bt2+PxprVrl3b2rZt627Drhteerodu+48nHyreN3NWLeGHzVqlBvWfMuXL3f9cc2bN7d+/fq5fr2ehQsXun4934033mgtWrRww+luT1zyNoi2YfPmzXbXXXdFYxL0GiZMmOBeh78dPYDKV+0q3iZNmti4ceNcqMbNnj3bVqxYEQ0lvPLKK7Zr167iOwTPmDHDGjdubO3atSvR+RDzIefHN2rUyK13yJAhLtC8vXv32qBBg2zbtm3RmAQFmZ7D03x6/vhzqWvatKmbrtC9+eabXRBrfK1atax79+7Fry3d7YlbsmSJ2waFvqdQXblypS1YsCAakzBz5kw7ePAgoQuEpoo3V4YPH+66bKW7/C9+8YvCZcuWRUOFhRs2bCjs2bNnYUFBQeGRI0eisYWFEydOLHziiSeioUI3fevWrdHQ8caMGVM4f/78aOhLU6dOLbz99tuL1615tC49Z/z5tG6N9zSf1lkabV/y9N27d0d96W+Pp2Ftk6Ylr1fvkbbNr99va/z5AIRRLdt4b7jhBvvv//7vaMhc00OPHj2sa9eurooUVZ9qZujcubMbrohbbrnFVa/xKrJ///7WoUMH91U9W6pgVRHHq3c1eZQn1faIf+2jR492VW98vWqCUZOLmiH03qg5pyj403o+ALlVLYO3ZcuWNm/evOJgWbx4sXXs2NGuu+46e/XVV904hZCCODlYVq1a5b5yx7vyqClCIat20rhhw4bZ+vXry1yHgjX5+XwTxfXXX+8ete3Tpk07rumiNKVtz9y5c61v377uNffu3dvmzJkTTUnQh4W2V+2/devWtV69ekVTAIRULYNXwaJQVRuuDytVdAojhbCsW7fOBXEuHTp0KOpLUADef//9NnTo0LRDM05tzw899JA99thjVvTV37XvKoDTFd8ePb8+jHyY9+nTx70Xqm49PZ9+nKL57rzzzmgsgNCq7elkClVVfKrg1Mwg/mwAfQUvrZmhS5curtKLd+nwB8mS6Tn1lX348OElQs7TwcDk5/PbKQpvHdxSk4UCWAcO0wnx5O1RJa8Po3379rnltd4tW7YUNz942h6hiQE4capt8CpUFa7PPfectW7dOhprLoTVjtmmTZuchYtOx9IZE6W1FytMVW3fc8890Zj0JJ+Z4M8uUKiWJXl7FPgKbDUf6KwHdTpFTUGs5gcAVUu1DV7f3KAAip+7q/ZSjfNVcDKFmirCeBevVPfs2VNimr7669QxVaP+tLRU1N6bik7Xiq9PnQJX7dOqvtXm64f9Ob9qw/bS2R5V+PqgUdWs9lvf6SCbmhVKO/UMwIlRbYNX1NygI/X6Wu0phBVCCuBUFFpqS4138WBS5RifdvjwYXdurK9GS+Pbe5Mp+OLrU6eKXKGpg1+LFi1yAazt1UWGFKjxSj2d7VGFq4NqybQeHWTT/ACqDq7VUAWo4j527FiZFTWA/FGtK958oWqZ0AVOHpVS8VbUyVbxAji55LTi1UXMKyoX6wCAqiynFS8AoHy08QJAYAQvAARG8AJAYAQvAARG8AJAYAQvAARG8AJAYAQvAARG8AJAYAQvAARG8AJAYAQvAARG8AJAYDm9OpluXbN79+5oKDu6LKRuQQ4A+SqnFW9FQ1dysQ4AqMq45xoABEYbLwAEVu0q3rVr19ry5cujoeMNGDDA3dZ87Nixxf1xs2bNsqZNm7rbo+u27rrV+qhRo6KpX4ovn/yctWvXtquuuqrELda1rqefftoOHTrkhrt161Y8PdU2t2vXzjp37lzmTS6TX8O2bdvcrdx1S/vk5aZNm2a1atWyfv36RWMAVFXVruKtX7++Cy11jRs3thkzZhQPq9Mde0Xjddv0ZNu3b7e9e/e6fk3XfKnEl9f8u3btKn6ORo0a2fjx412Iy/79++2OO+5w/ZrevHlzN12BK8nLq1u9erX95Cc/KZ4nmcZrG5YsWRKNMWvRooV7nDx5snv0NO/ixYvt+uuvj8YAqNJU8ebK8OHDXZetTJffunVrYUFBQTRUksZrerIxY8YUzp8/3/Wnu7zm13Jxa9asKezZs6frX7Zs2XHr2b17d9SXennROrRcfF5P899+++3uOY4cORKNLSz86KOP3Dg9p2hafBhA1UcbbwVs2bLFPaoKFzUFeMlNHKmoKaJ///6uiSJOFbSq3dGjR7vhjRs3ukdRE4NOt9Ope6rIp0yZYh06dHBNGwCqh7wO3qlTp7p20ni3fv36aGpmDh486IJVnb7aqynh3nvvddPat2/vArR79+7uOUprPkhFzQ4rV66MhhKWLl1qvXv3duHdt29f1w4dp5BVc4baprWs2nwBVB95HbyXXHJJiXZVdQ0aNIimZkZtwwpyhevcuXNd1Rk/kKUQnDNnjjvwdtttt9mwYcNStjGn4itn0TI6gNanTx83rHbbFStWlKim5c4777R58+a57SjrAB2Aqievg7dLly7Wq1evEl2TJk2iqV9KJyD1dV7VrCpRSfXVXpXvXXfdZatWrXJBvWzZsmhK6fbs2eOqZU/NCgpiHSRU2O7bt8+6du3q1hnnmzJSvR4AVdtJ3cbrwyvehip+2LfdegrDX/3qVy5UdfqWp1PJ4rReBfWOHTuiMalpuXHjxpUIcVXTCtqFCxe6yldd3bp13XzpVtAAqraTOngVpGqn9ad+qcJU6N5zzz0pz5UVjXv44YddEPq2XB0Ee+CBB9zyCketQ23Jbdu2ddMl3kasbsGCBe4UtBEjRhSf76sgVvOB1qemC99NmDDB2rRpk1HbMYCq66QOXlE7rQ5gqV1W7bc333yz9ejRwwYNGhTNcTxVtI899phbRiGroNQPJ7S8wlbr0DrjlawCVdN9p/N47777bhs4cGA0h7lzdv1BtWRan6pfANUf12qIUcWZKvQykYt1AMhvJ33FG5eLwCR0AZSnUireiuLqZADyWU4rXl3EvKJysQ4AqMpyWvECAMpHGy8ABEbwAkBgBC8ABEbwAkBgBC8ABEbwAkBgBC8ABEbwAkBgBC8ABEbwAkBgBC8ABEbwAkBgBC8ABJbTq5NNmjTJdu/eHQ1lR5eF1C3LASBf5bTirWjoSi7WAQBVGfdcA4DAaOMFgMCqZcU7a9Ys2759ezT0pQEDBribTSZPb9y4sXXp0sVatGjhhnUn4OnTp9uoUaPc8Nq1a2358uWu32vXrp117tzZ6tWrF40pKXkdonVs3rzZ7rrrrmhMwtGjR23ChAnudu+dOnWKxgI4WVXLiteHqsIx3tWsWdONT54u3bt3t40bN7p+BeGMGTNcv+zdu9d27dpVYl2rV6+2n/zkJy6UU1myZIlbR3y6QnXlypW2YMGCaEzCzJkz7eDBg4QuAKfaNjUoHHv16lWii1en8ekDBw60ESNG2IoVK6Kpx2vSpEmJdalCvfvuu+22225z1W2cgnvx4sXWtWvXEpWygn/MmDE2dOjQ4mW2bdtm48aNszvvvNMNA8BJ1cZ76NChqC89qlD79+9vTz/9dDQmwVfOo0ePdlXv/v373bC0b9/eBg8e7JohFNBqNpk4caJrAgEAqbbBu2nTJveVPt7F7dmzx1Wb6jRNVWfPnj2jqelT5azmg7i5c+da3759XZj27t3b5syZE01JUFivX7/etf/WrVvXVdAA4FXb4FWbrMI33sWtW7fOVZtq292xY4cLR1Wj2diyZUvUl2g6mDdvnl1//fVuuE+fPq7ZQdWtpyYP/QhE89HEACBZtQ3em266yVWU8S5O09UU0KZNG2vUqFHWoavKWRWst2rVKte2u2/fPhfCatdVMPvmB09txkITA4Bked3Gq9DTwa6RI0eWenZCWXSATE0UOg1MVNVqWM0Hs2fPdt3ChQtdEKv5AQDSkfcH11TpTpkyxcaPH3/c2QlxOt3Ltwn7duE77rjDnQ3hTwNTeKuC1hkP8UpblbWaFcpaPwB4eR+8ooq1R48eLkjjZyDEKTjVHuw7ncer08l0KpqnClcH1ZL5g2w6txcAysO1GgAgsJOi4gWAqqRSKt6KouIFkM9yWvHqIuYVlYt1AEBVltOKFwBQPtp4ASAwghcAAiN4ASAwghcAAiN4ASAwghcAAiN4ASAwghcAAiN4ASAwghcAAiN4ASAwghcAAiN4ASCw3F6dbO6VZntfigay1KCjWZ8XowEAyD+5rXgrGrqSi3UAQBVGUwMABFY1grfgh1EPAOS/3LbxTqkR9WTg4l5m1883W/Yjsx1PJ8YNKn+TFixYYJs2bXL9jRs3tptvvtnq1avnhr13333Xpk+fbqNGjYrGmM2aNcu2b98eDR1P865du9Z27txp/fr1i8YmJK8veV3aji5duliLFi3csJ8/rnnz5tahQ4fieVLReps2bWqdOnVyw0ePHrUJEyZYz549rX379m6ct3z5ctu8ebMNGjTIatasGY0FUJWd2Iq3SXez7z6V6G+WftWrYFKgtWvXznXvv/9+yhttLlmyxGbMmOGC1FOg+eVk165dxcN+3N69e1OGswJQ6/P8PPFlu3fvbhs3bnT9fv74+j/44AM3j15DKvv377eRI0eWCGwFqpa955573Do9zavA7dq1K6ELVCMnruK94LpEpXt6rUSlq4rXK6fi7dWrlw0YMMA9eqouL7zwwmgoEXqqWBs0aGBNmjQpUfV6vmpOnlba+G3btrnQfOutt9zw2LFjXSDGt2PatGl2+PBhu+uuu46b39O23nHHHfazn/3MunXrFo1N0HMvWrTIVqxY4T444pXxsGHD7IILLnDrFj1/7dq1i4cBVA+VV/F2GB31pND424lKN1XopkFf13fs2FGi+ouHrviqc/To0a7qVHUYyqFDh6K+1LSt+uCYNGlSNOZLCt2+ffva4MGDbdWqVdHYhDvvvNMmT57sAl1NDOvXr3cVL4DqpXKC91sPm11xT+rwbXh1InTPrJdV6Mqtt95qK1eudBWtvrKnCtW5c+e6AFPI9e7d2+bMmRNNya09e/a4IFSnanXcuHGuLbY8rVq1si1btrjq19OHhSpdte2q+UDrir82vZZ7773X7rvvPhfaY8aMoYkBqIYqJ3jfW5l4TA7f+pcnQvfsr2QduqIDTI8++qirGp977jnr2LFjiXZcheC8efPs+uuvd8N9+vSxxYsXl6iQc2XdunUuCNWkoCpcAZ98AKws8W1auHChjRgxwoWp1qHwXb16dTQ1wTdrXHvttRk9D4Cqo3KCNx6qPnzrtUmEbq2LKhS6ns5gUAg98sgjLqxuu+22aIq5r+gKrX379rkQVpCpuvTND+k4ePBg1Fe2m266yTVntGnTxho1apR2GGrbxLfhqrJVk0jDhg2LK+jWrVu7poc4vRa1WRcUFERjAFQ3ldfGmxy+3YpCt06znIRu/Ou56BQu0XhVkPqKXrduXZs9e7brVEkqiNX8kA6d+aCKObkJQ22qWk8yNQHoa7/ORohX3qXRNuqsBX1geEuXLnXhrYN6frvVVqymh0w+MABUfZUXvBIP2fNa5SR0FWw6I0CPCkaFrSpchZYCUOPVr/NedVaC71SVKkyTQzsVVa1qF/7Nb37jQk/Vpw5mKVjVbpyKlpkyZYqNHz/+uOfwFaw6bd+QIUPcB8Mtt9wSzWEuaHWWQ3yb1ekgm8IXQP6o3OAVH7Y5CF3RgSe17Srg1LaralftrA8//LCbrgBLFY7+IJtO0UqHTtWqU6eO+2GG2m91MGvixInHnf4Vp2k9evRwHwzxalnL+06VrpontH5/YExhrKYQ/4OJOFXYOpMhufoGUH2d+F+upZLGL9dEYXTWWWdV+pF9VbAKbgDIhcqveCuRDrBVdugKoQsgl6p18AJAdZTb4NVFzCsqF+sAgCost228AIBy0dQAAIERvAAQGMELAIERvAAQGMELAIERvAAQGMELAIERvAAQGMELAIERvAAQGMELAIERvAAQGMELAIFlfHWyDRs2RH0AcHK77LLLor7MUPECQGBcjxcAAqPiBYDACF4ACIzgBYDACF4ACIzgBYDACF4ACIzgBYDACF4ACIzgBYDACF4ACIzgBYDACF4ACIzgBYDACF4ACIzgBYDACF4ACIzgBYDACF4ACIzgBYDACF4ACIzgBYDACF4ACIzgBYDACF4ACIzgBYDACF4ACIzgBYDACF4ACIzgBYDACF4ACIzgBYDACF4ACIzgBYDACF4ACIzgBYDACF4ACIzgBYDACF4ACIzgBYDACF4ACIzgBYDACF4ACIzgBYDACF4ACIzgBYDACF4ACIzgBYDACF4ACIzgBYDACF4ACIzgBYDACF4ACIzgBYDACF4ACIzgBYDACF4ACIzgBYDACF4ACIzgBYDACF4ACIzgBYDACF4ACIzgBYDACF4ACIzgBYDACF4ACIzgBYDACF4ACIzgBYDACF4ACIzgBYDACF4ACIzgBYDACF4ACIzgBYDACF4ACIzgBYDACF4ACIzgBYDACF4ACIzgBYDACF4ACIzgBYDACF4ACIzgBYDACF4ACIzgBYDACF4ACIzgBYDACF4ACIzgBYDACF4ACIzgBYDACF4ACIzgBYDACF4ACIzgBYDACF4ACIzgBYDACF4ACIzgBYDACF4ACIzgBYDACF4ACIzgBYDACF4ACIzgBYDACF4ACIzgBYDACF4ACIzgBYDACF4ACIzgBYDACF4ACIzgBYDACF4ACIzgBYDACF4ACIzgBYDACF4ACIzgBYDACF4ACIzgBYDACF4ACIzgBYDACF4ACIzgBYDACF4ACIzgBYDACF4ACIzgBYDACF4ACIzgBYDACF4ACIzgBYDACF4ACIzgBYDACF4ACIzgBYDACF4ACIzgBYDACF4ACIzgBYDACF4ACIzgBYDACF4ACIzgBYDACF4ACIzgBYDACF4ACIzgBYDACF4ACIzgBYDACF4ACIzgBYDACF4ACIzgBYDACF4ACIzgBYDACF4ACIzgBYDACF4ACIzgBYDACF4ACIzgBYCgzP4/W1fCMwzz6LoAAAAASUVORK5CYII=;imageBorder=none;strokeWidth=2;movable=1;resizable=1;rotatable=1;deletable=1;editable=1;locked=0;connectable=1;imageBackground=none;" parent="1" vertex="1">
          <mxGeometry x="-629" y="840" width="350" height="634" as="geometry" />
        </mxCell>
        <mxCell id="myNyhjmuBwBBh0yOWU_x-4" value="" style="shape=image;aspect=fixed;image=data:image/png,iVBORw0KGgoAAAANSUhEUgAAAV8AAAJ6CAYAAACPPEGZAAAAAXNSR0IArs4c6QAAAARnQU1BAACxjwv8YQUAAAAJcEhZcwAADsMAAA7DAcdvqGQAAFuQSURBVHhe7d0LuE31vsf/Hyp3EaLY7JQ7iZQkxUk7idTfcSl717ZLyoMu53FS6hy24uwtOi6PRGXvNnI5HmlL+qeIbkK62G792SdSSMixco2/92+N32ysaV6Wteaav7mWz+t5xjPulznmHN/5G9/xG2MUy8rKOmlERCStigdtERFJIwVfEREPFHxFRDxQ8BUR8UDBV0TEAwVfEREPFHxFRDxQ8BUR8UDBV0TEAwVfEREPFHxFRDxQ8BUR8UDBV0TEAwVfEREPCuyRksuWLTMrVqwwn332mVm8eHEw1Jj+/fubdu3a2aZs2bLBUBGRs0vKg++qVavMf/3Xf+UIuPG8/PLLpmfPnkGfiMjZI6Vph5deesmWaAm8zZs3t8GVYHwqwNvm66+/NnPmzDF33XWXnf4Pf/iD6du3rx0nInI2SVnJl8A7aNAg2z1y5EjTu3dvU6VKFdsfyxtvvGF69Ohhuzt27GjmzZtnu0Vygz9yfl95SV3xZ79nzx5Tu3btYIhI+qWk5Evp1gVeSrsPPfSQPTD4kY8bN84eIDSUcjlocOutt5r169fbbkrKTCeFF8HMfc+zZ88OhubP4MGDbcMfexjLb9Sokbn55pvP+KyJ6ZmP+aO3M976RApCSoIvOV4MGTLEdO7c2Xbj4YcfNk888UTQZ8zMmTPtj54DFZQ8SEOA6VxglsJnwYIFQZeJfKf5NWnSJNts3LgxGJJt9erVtr127drIbym3+I0xHzZv3mzbTrz1iRSEfAdfajW4HO/dd98dOQ1kOMHWdfOjJ72A559/3rZBCdjlgF955RXblsJn2rRpQVf2mQxnQwVlwIABttbM+PHjzzh1wJ8/8zE/v1cRX/IdfKlOBk7lwgfCrl27bJvAetVVV9k0hMvxbtu2zbad22+/3bZdCVoKF/5cXWmSP2HkprZLXvE7Gz16tLn33nuDIWeG+ZhfOV/xKd8X3Lp162YPNE41KcU6HJCun+5LLrnE9OvXz05LeuKpp56y4xC++EEeWAdF4UKelNN1zmw6deoUyf+7i2LRyLsuXLjQpg/2799vKlasaFq2bGlTVvwWJk6caKdjmSCgt27d2nYTNPk9ccHW9dPNMPTp08eWbh2W96c//cl2UxOH3yTbC7r5XSZa32OPPXba/A6fY9iwYbab7Ve1STkT+Q6+4TQDJdwwLrC51IPDD3vGjBmnBdhEy5HMFf7j5GLrNddcEwl+sepxE5CpCeNKymEEb3L/119/fTDkdAQ8LpRRTdH1s0y3TmracMHXCdfCcX8G7rfG9jVt2jTh743luwJGdK2ccI0dugnOIrmV0nq+0f77v//bHgzuVJQS75QpU1SyLUL4I3VuvPFG+926HH70hTcCWTjwMh0B0E0/cOBAGxzJx9I4/H6ih4WxTjdu7ty5dj2Oy0UzPlYpnEAcvezo9blAH53Lfu2112yboKzAK2cq38HXXUTbvXu3bYfxw6YU8v7779sDglRD+JTQCV+xvvDCC4MuyXR8pwQ78MfqgpvL4UcHK85qXOAl6E6dOtWWjGmTbiKAEUhJJdA4pACih0VzJVCW79YZXh/piFhys75wYP3www9tm1K0O6tz6xY5E/kOvldccYVtf/rpp7adF+vWrbNtShyxSieSmQhyLri1bdvWthEOVgRgx+VlEa6SiPyeDZE6cAUBVxp3F4MZHutPP7coRHAGB1eyXrJkie3nNxv9WURyI9/B1x101FSgNOBwoHHjBPkyfryuGTFihM2PhU8NJ0yYYNvUmGAaKRzCKQcuRLnvOHz2wu8ifGbjFMT37NIDlEgpSbvaM6Qz8suV5l3J2qUzunfvrt+s5Em+gy+lHFfi4KoxP0wCLgcjF0/CJR9wQHCaxgHKhRMCsZtG9S4Lj/BpdzLvvPOObTdo0MC24e5udMJ/xnnFb9FdX7j//vttm/5UXMAN57KffPLJSImfHLZIXqTkghv5PlBVhwOAYMqPnsrsBGPywRxcHHBchHHBmpKKy5dxWpffU09JH3exCXzP5HCjGxcI3YW3rl272jYIjpwd8ZugzR9v+MwpLyiButyuC46UelNVMnWB1i07nOcWOVMpCb6ULDgAHYIrp6RUZifX5n78BFdKxFTXCV9dpkRx3333BX2S6cIX2vju+J65cBbduEDoLrwRqFwgJoDxW+C3Q5tpCG75LQGHAzyogZEq4ZI1OMMTyauUBF9wALoA7A4k0grh0gy5P0o51P91FdoJwqNGjVLerBAJX2hzudBYOnToEHT9Uvol0PIbcGc/DkGcaoj5/R0Q4N3FMdqpLplWq1bNttne/FzEE/H2MHVKEJwScqVYgffsxJ8xKSny/4Xh9J3ftqvJoZsqJL9SHnwdSjfRrxEi4FKHkh9tq1atlC+TQiV8G7WePy35VWDBV6Qo4cKgqzXBxURy2iL5kbKcr0hR5ur1cvammyokFVTyFRHxQCVfEREPFHxFRDxQ8BUR8UDBV0TEAwVfEREPFHxFRDxQ8BUR8UDBV0TEAwVfEREPFHxFRDxQ8BUR8UDBV0TEAwVfEREPFHxFRDxQ8BUR8UDBV0TEAwVfEREPFHxFRDxQ8BUR8UDBV0TEAwVfEREPFHxFRDxQ8BUR8UDBV0TEAwVfEREPFHxFRDxQ8BUR8UDBV0TEAwVfEREPFHxFRDxQ8BUR8UDBV0TEAwVfEREPimVlZZ0MutOq+E/rzDm7JpgSB9eYYke22mEnS1Q0J8o2M8cv7Gd+rtjRDhMRKYq8BN9zvxluzt092ZgTR4Ihp/u5wg3mSL35QV9mWLhwoalfv76pW7duMOTMfPXVV2bTpk2mc+fOwRAROVulPe1gA+/OcTbwnjy3ujlW/SFzuNFy81PLvebor8eZE6Ub2+lKHHjPlNrwG9udKYYMGWKDJ5YuXWp69Ohh9u3bZ/tzg3lZRjJz5syxjUPQb9KkSaQhiItI4ZbW4EuqwZZ4TzlRtqU5UneOOVbzP82JMk3ssONVfmcON15hjlftY/uLZ622wToTVa5c2Vx22WWmVKlSwZDU2bJli22cNm3amPnz55sJEyYEQ0SksEtr8CXHa0u8JSqaYxc9Ggm60Y7WHhMpAZ+z7++2nWkuv/xyM3LkSFO6dOlgSMGpVKmSTXXUrFkzGCIihV1agy8X13CifOukF9SOV7vftrkYR4k503DqTzogbMeOHWbatGlm1KhRtk1Kgmmi0wTR0x06dMgO//jjj+3027dvt02seUWkaEhr8HW1Gk6UqmfbiZCCcErsnRd0ZY7o/O0XX3xhbr75ZrNq1Spz6aWXmqysLNOvX78ceWLnkUcese3q1aubMWPGmBEjRtj+bdu2mS+//NLs2bPHNnT/8MMPdpyIFC1pv+BWVE2ePNncdtttNphyIW7AgAHmwQcfDMbm9Mwzz5g+ffrY5sUXXzSvv/66LeEy3+OPP26aN29uG7qvueaaYC4RKUrSGnyp3YDihzfbdiLn7Plb0HWqpFyuVdCVmUgjLF++3PTq1StHDrh9+/ZBV07hqmouuH7zzTe2LSJnh7QG3xNlm9t2iQPvJs3jnrNrim2fLFnHnDyv6F9oIk0hImePtAbfYxc/fmqNJW2Nh5KbbosbgKnfW/zQP2z38Upd4taKyBQ1atQwjRo1Mm+88UYwJJsulolIPOkt+Z4Koscr32W7i/283wbgEvsX236n1D/a2vq9oC4w9YALg0cffdTMmDHD1mCglgI3SQwdOjQYK758/fXXplu3bqZv3762iT7DmD17trnuuuts89JLLwVDsyWat2zZsjkapk2G+bm4yjJZ37Jly4IxObFN48aNC/riYzq3/jC2he1lPTSJto1tGjx4sJ2ebQpPy3CWTTueWNO4Ya5hufGEPwONu/gMto3tYnnR+z8WLnazLj4z80RPn9/xqZb2C27U4eWuNhCAix9cabsdV+L9ueItp6Yda7sLA3K3M2fOtN0ffvih2b17t3nuuedsv/izZMkSM3bsWDN16lTToUOHHNUDOdg2b95s3n//fdt8++23OQJionk5MGnGjx9v63vXrl07GBPfrFmzTIsWLcy8efPMW2+9ZW+aoVZLGMGP9d53333BkPh69uwZM0A8/fTT5sknn7TrYfspGMSzfv16065dO/sZp0yZYiZOnBiMMWb06NF2HyUSaxqGuf3D2WD37t2DMadzn4HP3bFjR3P33XcHY7Lv7OS4Ynm33357jv0fjf3I9rNf+dx8Ji5mO/kdXxDSHnyRm9Is1dEyLd2wbt26yHMZaNPvUFeXGy+oocDBSG2HMmXK2HFVqlSx7eh5nPBywTJoonGhjmnz+myJs9G9994bNzAuXrzYHvAOJZ5w6ijRvCBQUzf7oYeyCxPJUKebgxqU8qjd8s4779h+EIQIlLVq1YpbKk7GlVzddtOuU6eODbKxXHXVVebWW28N+pIjSEX/YSTC/iRwOrHm53Pze6daZnh/V6tWzf4h4tNPP7X98axcudIGavYr+ExPPPGE7UZ+xxcEL8E3jOc8lFl9QaQprDhdotTgnvVADQj+sckFN2vWzA4TfwhKpIJuvPHGYIgxBw4ciBxs4LuKJda8Dgdsbk6JsXbt2hzra9q0adCVjZLd9ddfb/8Edu7cmavUQzS2o2LFikFftpYtWwZd8TEfZ2r8ISRCkHr++eeDvsQIsvv3788RUGPNT8GFMwv2cfjP75JLLrF130kBfPbZZ7Y/noMHD5py5coFfdn69+8fdOV/fEHwFnxdtbOYipc0J0vVCXoKB6qZUd2sbdu29uE33HDBD48fdDpuQZb4CJ6UKDkFd2chqFChQtCVLVbpMN68oBRL6ZgAHC6pEiwIsjTkNB3qbodxE03Y6tWrbbqBPwGWGy55hXOjLD+ecHB3WG4iBN6HH37Y9O7d25aEE6FE+NRTTwV9iXENhGWGxZqf/Ur6YdiwYfaaifPKK6/Y9AmFGPY//fFEB05MmjQp6Mr/+ILgLfgearbePsksZtPiuxx3uBUGpBz45+YBOK7hy6MmhPgTDp7RKQT+KMnvOXQTHJxE84YDNafG4aAXznkSVBxyn65kx7jo0jR/Bi5/yrrDKRGXG6Vh+fGwnVu3brXzgzb98Ur1LM8FXpcSSYTpc5N2YDoKI9HBPHp+to9hYHg4tcCZiRtHm34nejmtWrWy+9NNz34m/efkd3xB8PYwdZF04BQe5D3RoEEDW6p0qOGwaNEi292pU6cc4+LNywFKKY0zm7179542XzzR8w0cODBHwHPBnvURMGMF/VgI/C5o4EyWQ2pj7ty5pnXr1sGQ7D8Phz8ZctVuGCVwLlKGS6/R04Azgc8///y0fHj0/EzHhcdY25rocxAcmTd6nSzrggsusKkX9nX4TzG/41PNa/CNl+OlNkRhqWImIpIXXi+4xcz7FsJ8r4jImVLaQUTEAwXfXOLNEhs3bgz6Tnfttdfah577RI6NB/SELxqJSGbyXs+3sKAqCm+SoDn//PPtXWyun+a8884LphQRSU7BN5eoAsPNEjTuDjPXT1OQV0VFpOhR2iEPdu3aZe/p56HozieffGJfqslbLMCdbpSOSQGQsvjuu+9s6fj77783VatWNVdccYW9a6d8+fKGt1X8+OOPtkR99dVXR0rRR48eNRs2bIg865eqTm75YDuoqH/kyBFb+ka8tAPbs2bNGjst62ncuHEkTcL2sQ0lS5a089O+8sorvadRRIoylXxThKDKLYoOgZPgC4a/+eabdpgLki4QT58+3XYznLqMb7/9th0PunkspUtt8NAP8rrgHW/8AfD2ZMaxrA8++MCOi0aQfvbZZyPTHj582Lz66quRW6HZvgULFthlMJ4AzXi2V0QKhoJvmnBrKY+rI0VB6dbp2rWr7Wc4b74gYFNhnuBKJXNeTeRSG126dIkEWO6Rv+WWWyLL5N74eBXpV6xYcdq09erVsyVhh+1jOONvuukm+2wKtkFECoaCb5rEe74Dp/iOSzdQEuUOKALg8OHD7XOBaXhPHMPAQ1qin25GqTWWWNOS+li6dGnQl3P7wtshIgVDwbeA5PeUnQDIcyEGDRp0WgPGEaDDSBfEEm/a6Ae9iEj6KPimCKVO8rHkV0kbkBaI9wLN3HAX1sj5cuGLhscMOm3atLElV9YHLpqRt43FTevSCEzLk6646CYifij4pgi50osvvjjyZgPwbNa8ouR755132otwpB5oCO4uJcD6eE4r6yMlQS44XrB305K2YFou3BGQGzZsGEwhIummqmYpRrrh2LFjKa3361IYLvBGo6Sd2/VRw0FVyET8U/AVEfFAaQcREQ8UfEVEPFDwFRHxQMFXRMQDBV8REQ8UfEVEPFDwFRHxQMFXRMQDBV8REQ8UfEVEPFDwFRHxQMFXRMQDBV8REQ8UfEVEPFDwFRHxQMFXRMQDBV8REQ8UfEVEPFDwFRHxQMFXRMSDuC/QPHDgQNAlIiL5UaFChaDrFyr5ioh4oFfHi4h4oJKviIgHCr4iIh4o+IqIeKDgKyLigYKviIgHCr4iIh4o+IqIeKDgKyLigYKviIgHCr4iIh4o+IqIeKDgKyLigYKviIgHCr4iIh4o+IqIeKDgKyLigYKviIgHCr4iIh4o+IqIeKDgKyLigYKviIgHCr4iIh4o+IqIeKDgKyLiQbGsrKyTQXdaHT582Hz++edm48aN5p///KcdVqlSJdOgQQPTqlUrU7FiRTtMRKQo8hJ8N23aZF577TVz6NChYMjpWrdubW6++eagLzMsXLjQ1K9f39StWzcYcma++uor+9k7d+4cDBGRs1Xa0w4En1dffdUG3osuusjceeedZsiQIWbYsGHmgQceMA0bNrTTffTRR2bBggW2O1OwnWw/li5danr06GH27dtn+3ODeVlGMnPmzLGNQ9Bv0qRJpCGIi0jhltbgS6qBEi+aN29u7rnnHluSLFWqlB1WvXp107NnT3PHHXfY/rVr10aCXaapXLmyueyyyyLbnkpbtmyxjdOmTRszf/58M2HChGCIiBR2aQ2+5Hgp8ZLbveGGG+IGrmbNmkVKwB9//LFtZ5rLL7/cjBw50pQuXToYUnDYX6Q6atasGQwRkcIurcGXi2u44oorkl5QIziDi3GUmDMNp/6kA8J27Nhhpk2bZkaNGmXbpCSYJjpNED2dy33zR8P027dvt02seUWkaEhr8HW1GkgvJBOe5uuvvw66Mkd0/vaLL76wFwhXrVplLr30UpOVlWX69euXI0/sPPLII7bNZxwzZowZMWKE7d+2bZv58ssvzZ49e2xD9w8//GDHiUjRkvYLbkXV5MmTzW233WaDKRfiBgwYYB588MFgbE7PPPOM6dOnj21efPFF8/rrr9sSLvM9/vjjNh9OQ/c111wTzCUiRUlagy+1G7Bz507bTiQ8TbVq1YKuzEQaYfny5aZXr145csDt27cPunIKV1VzwfWbb76xbRE5O6Q1+HIDBchtJsvjvvfee7Z9ySWXFEiNgkxDmkJEzh5pDb7cuUbJkAtML7zwQtwATP3eDRs22G5KhpkefGvUqGEaNWpk3njjjWBINl0sE5F40hp8CaIdO3a03dQEIADv37/f9juzZ8+29XtB3pN6wIXBo48+ambMmGFrMFBLgZskhg4dGowVn7hg261bN9O3b1/bRJ9l8Ju77rrrbPPSSy8FQ7Mlmrds2bI5mtxcGGZ+LrCyTNa3bNmyYExObNO4ceOCvviYzq0/jG1he1kPTaJtY5sGDx5sp2ebwtMynGXTjifWNG6Ya1huPOHPQOMuQK9fvz7HcJroAk5You8RycZzsZxx7C+2v6DPRtN+wY06vNzVBgLwrl27bLfjSrzkSzPt9uJEKKHPnDnTdn/44Ydm9+7d5rnnnrP94teSJUvM2LFjzdSpU02HDh1yVBHkgNu8ebN5//33bfPtt9/mCIiJ5uXgpBk/fryt8127du1gTHyzZs0yLVq0MPPmzTNvvfWWvXGGmi1hBD/We9999wVD4uOmpFhB4umnnzZPPvmkXQ/bT+EgHoJcu3bt7GecMmWKmThxYjDGmNGjR9t9lEisaRjm9g8Bs3v37sGY07nPwOemcHb33Xfb4ZxNumXQMI6z51iSfY/JxvMd8Nn5Tthn7A8uhhektAdf5KY0SzWsTEs3rFu3LvJcBtr0O6RSuPGCGgociNR2KFOmjB1XpUoV246exwkvFyyDJhoX6pg2r8+WOFvde++9cQPj4sWLI2djoNQTLl0lmhccwFzDeOihh4IhiVGvmwMblOSo4fLOO+/YfhBkCJS1atWKWypOxpVc3XbTrlOnjg2ysVx11VXm1ltvDfqSc1Uhc4v9efvttwd9sefnc/Obp2pmrP3NtnN/gDuWoiX7HpONX7lypS1A8Z2A/fHEE0/Y7oLiJfiG8ZwHnuvgmsKKUyVKDO5ZD9SA4N+ff29K++IfQYl00I033hgMMebAgQORAw58X7HEmtfhoI2VzoiFlFp4fU2bNg26slGyvv76621woMZPblIP0diO6JuYWrZsGXTFx3ycrfGHkAiB6vnnnw/6EiPIkloMB9RY81N44cyCfRwOis7bb7+dI3hGS/Y9Jht/8OBBU65cuaAvW//+/YOuguEt+LpqZ7FwUe78888P+goHqplR3axt27b24TekTPjR8WNOxy3IkhjBkxIlp+Dh0lOFChWCrmyxSofx5gWlWErHBOBwSTWc8yTX6HAdI4wbacJWr15t0w0EB5YbLn2Fc6Ph/Gq0cJBxWG4iBN6HH37Y9O7d25aEE6FU+NRTTwV9iXEdhGWGxZqf/Ur6gQIY103CCOAcW4m2K9n3mGx8dODFpEmTgq6C4S34cvdXuMQbbh577LFc3QWXSUg58K/NA3Bcw5dHTQjxKxw8o09p+bMkx+fQHT4FTzRv+AAmhxgOeuGcJ0HFIffpSnaMiy5NEyRc/pR1h0t7LjdKw/LjYTu3bt1q5wdt+uOV6lmeC7wuJZII0+cm7cB0sYJm9PxsH8PA8Oh6/aRlokvj0ctI9j0mG08ume/CbQffEenDguTtYeoi6cIpPMh7gvrmlCodrnwvWrTIdnfq1CnHuHjzcpBSUODsZu/evafNF0/0fAMHDswR8FywZ30EzFhBPxYCvwscOJPlkNqYO3eufYa2Ew7u/MmQq3bDKIFz8Spceo2eBpwJ8DCt6Hx49PxMx4XHeNvKd0DNqPBZB8GR+cLrS/Q9Itl4tx0XXHCBTdvwPcU6i0gVr8GXDxcLtSEKSxUzEZG88HrBLVbetzDme0VEzpTSDpIQtTd4nrCIpJaCby7xZgn3POJYrr32Wu9BivwaD+gJX0jIraNHj9rqPNwgQsqHt2d88MEH9nGYXDQkFaQgLJI63uv5FhZUReFNEjSkRQhSrp/mvPPOC6YsnD755BNb13LQoEH26vTLL79sLr74Yvv4yy5duijwiqSYgm8uUf2FmyVo3B1mrp+mIK+KpgNXmflcfE73Cid3A8CvfvUr2xaR1CkxdOjQwntbmSdU6eEunXD9TEqOPKWNaiogV/ruu++aevXq2ZQFVXG4Y+mzzz6z1YyqVq1q1qxZY++84dSeyvY8D4L6zSVKlLDLIBXA7cRMxxPSGO6WD56Lwa2tPA/DvYqI5bHOaGwPaQSmZT3ly5e3FzfZNt4UzXYdP37cpi1YF68xYv28fSR6vSKSfyr5psj3339vb1F0CFykJsDwN9980w4jRQHSFMwzffp0281wSp/kXR26CYQutcFDP8jrguDIA114/gXjWBbBNRaC9LPPPhuZlj8JbusmILt0Cngjs1sX+COgO9bdPyKSPwq+acJtpTyujhTF1VdfHQw1pmvXrraf4TzJjYBNyZrgSkV5Xk3kUhvkXl2ApeR9yy23RJbJffHxKtGvWLHitGkpHVOidukUEGjdukAagu5Mf5OISGGk4Jsm8Z7vULJkyaAruzQMSsrc/cTDeYYPH26fC0zDe+IYBh7QEv10M1dijRZrWtIeS5cuDfpEJN0UfAsIKYb8IBBTxYvaB9ENGEeADjty5EjQlVO8aaMf8iIi6aPgmyKUOsnHkl91F+TivUAzN3j9PMj5Us2LJvxSUerhUnJ1D6PnwhmvX4rFTUsqA0zLU64aN25s+0Uk/RR8U4TcKPVi3VsNwHNZ84qSLzc2cBGO1AMNwd2lJlgfz2hlfaQkyAXHC/ZuWtIWTMuFOwKyq1ImIumnO9xSjHTDsWPHUlrv16UwXOCNRkk7t+vT7cIimUHBV0TEA6UdREQ8UPAVEfFAwVdExAMFXxERDxR8RUQ8UPAVEfFAwVdExAMFXxERDxR8RUQ8UPAVEfFAwVdExAMFXxERDxR8RUQ8UPAVEfFAwVdExAMFXxERDxR8RUQ8UPAVEfFAwVdExAMFXxERD+K+QPPAgQNBl4iI5EeFChWCrl+o5Csi4oFeHS8i4oFKviIiHij4ioh4oOArIuKBgq+IiAcKviIiHij4ioh4oOArIuKBgq+IiAcKviIiHij4ioh4oOArIuKBgq+IiAcKviIiHij4ioh4oOArIuKBgq+IiAcKviIiHij4ioh4oOArIuKBgq+IiAcKviIiHij4ioh4oOArIuKBgq+IiAfFsrKyTgbdaVX8p3XmnF0TTImDa0yxI1vtsJMlKpoTZZuZ4xf2Mz9X7GiHiYgURV6C77nfDDfn7p5szIkjwZDT/VzhBnOk3vygLzMsXLjQ1K9f39StWzcYcma++uors2nTJtO5c+dgiIicrdKedrCBd+c4G3hPnlvdHKv+kDncaLn5qeVec/TX48yJ0o3tdCUOvGdKbfiN7c4UQ4YMscETS5cuNT169DD79u2z/bnBvCwjmTlz5thGRIqutAZfUg22xHvKibItzZG6c8yxmv9pTpRpYocdr/I7c7jxCnO8ah/bXzxrtQ3Wmahy5crmsssuM6VKlQqGpM6WLVtsIyJFV1qDLzleW+ItUdEcu+jRSNCNdrT2mEgJ+Jx9f7ftTHP55ZebkSNHmtKlSwdDRERyL63Bl4trOFG+ddILaser3W/bXIyjxJxpyN+SAw7bsWOHmTZtmhk1apRtk5JgGqYNi57u0KFDdvjHH39sp9++fbttYs0rIkVDWoOvq9VwolQ9206EFIRTYu+8oCtzROdvv/jiC3PzzTebVatWmUsvvdRkZWWZfv365cgTO4888ohtV69e3YwZM8aMGDHC9m/bts18+eWXZs+ePbah+4cffrDjRKRoSfsFt6Jq8uTJ5rbbbrPBlAtxAwYMMA8++GAwNqdnnnnG9OnTxzYvvviief31120Jl/kef/xx07x5c9vQfc011wRziUhRktbgS+0GFD+82bYTOWfP34KuUyXlcq2CrsxEGmH58uWmV69eOXLA7du3D7pyCldVc8H1m2++sW0ROTukNfieKNvctksceDdpHvecXVNs+2TJOubkeTVtd1FGmkJEzh5pDb7HLn781BpL2hoPJTfdFjcAU7+3+KF/2O7jlbrErRWRKWrUqGEaNWpk3njjjWBINl0sE5F40lvyPRVEj1e+y3YX+3m/DcAl9i+2/U6pf7S19XtBXWDqARcGjz76qJkxY4atwUAtBW6SGDp0aDBWfPv6669Nt27dTN++fW0TfaYxe/Zsc91119nmpZdeCoZmSzRv2bJlczRMmwzzc5GVZbK+ZcuWBWNyYpvGjRsX9MXHdG79YWwL28t6aBJtG9s0ePBgOz3bFJ6W4SybdjyxpnHDXMNy40m0DvaPuyidCBe7WQefleVEf8fJ9seZ7K9USPsFN+rwclcbCMDFD6603Y4r8f5c8ZZT04613YUBuduZM2fa7g8//NDs3r3bPPfcc7Zf/FuyZIkZO3asmTp1qunQoUOOaoIctJs3bzbvv/++bb799tscATHRvBzgNOPHj7f1vmvXrh2MiW/WrFmmRYsWZt68eeatt94yEyZMsLVbwjjwWe99990XDImvZ8+epwUaPP300+bJJ5+062H7KSDEs379etOuXTv7GadMmWImTpwYjDFm9OjRdh8lEmsahrn9w1lh9+7dgzGni7cO5mX/xLt47bD/2G72J5+Xz8LF7LBk++NM9lcqpD34IjelWaqjZVq6Yd26dZHnMtCm36GuLjdeUEOBg5DaDmXKlLHjqlSpYtvR8zjh5YJl0Ejq3HvvvXED4+LFi03Hjr/UO6fUE04hJZoXBGrqaD/0UHahIhnqdhMcQGmPWi7vvPOO7QcBhwO/Vq1acUvFybhSm9tu2nXq1LFBNparrrrK3HrrrUFfcq46ZG6xP2+//fagL/fz80fH/kGifbFy5UpbAGJ/gs/yxBNP2G4k2x9nur9SwUvwDeM5D2VWXxBpCitOiygtuGc9UAOCf3Nywc2aNbPDxD8OMlJCN954YzDEmAMHDkQOWvCdxRJrXocDPzolEc/atWtzrK9p06ZBVzYCzvXXX2//BHbu3Jmr1EM0tqNixYpBX7aWLVsGXfExH2dsLuDFQ7B7/vnng77ECLL79++PBDbkZn62hf1NwYQzyehrKmEHDx405cqVC/qy9e/fP+hKvj/yur/yw1vwddXOYipe0pwsVSfoKRyoZkZ1s7Zt25omTZrYGy74wfFD1i3ImYHgSYmSU0p3NoIKFSoEXdlilXbizQtKsZSOCcDh0lk450le1qEOdxg304StXr3aphv4E2C54RJcOL8bKz/qhIO7w3ITIQA9/PDDpnfv3rYknAgly6eeeiroS4xrISwzLDfzu7TBsGHD7HH00UcfnZaPd6IDLyZNmhR0Jd8fedlf+eUt+B5qtt4+ySxm0+K7HHe4FQakHPiXnj9/fqThy6cmhPgXDp7hEhj4wyTP59AdPgVPNG84UJMrDh/E4ZwneVmH3KcrxTEuujTNn4HLf7LucErE5XdpWH48bOfWrVvt/KBNf7xSPctzgdelRBJh+tykDZiOQkl0MM/N/KQpOKPkZiS6GzZsaHPujvtsaNWqld2PLBfsX9J/TrL9cab7KxW8PUxdJJ04hQd5PDRo0MCWKh1KVIsWLbLdnTp1yjEu3rwc6JTKOMPZu3fvafPFEz3fwIEDcwQ8DnyCPesjAMQK+rEQ+F3wwZksh9TG3LlzTevWrYMh2X8eDn8y5KrdMErgXKQMl16jpwFnAp9//vlp+fDczu9Ej+OzERjDn5d1cXHuggsusCkE9nH4zzDZ/sjrfs8rr8E3Xo6X2hCFpYqZiEheeL3gFjPvWwjzvSIiZ0ppBxERDxR8c4k3S2zcuDHoO921115rKlWqFPT5QW6NB/ScSX1NEfHDez3fwoKqLDVr1rTN+eefb+9ic/005513XjCliEhyCr65VK1aNXuzBI17JKTrp4lVT1BEJB6lHfJg165d9l5+HorufPLJJ/almrzFAtzpRumYFAApi++++86Wjr///ntTtWpVc8UVV5jPPvvMlC9f3vC2ih9//NGWqK+++upIKfro0aNmw4YNkWf9UsXJLR9sBxX0jxw5YkvfiJd2YHvWrFljp2U9jRs3jqRJ2D62oWTJknZ+2ldeeaX3NIpIUaaSb4oQVLnF0SFwEnzB8DfffNMOc0HSBeLp06fbboZTt/Dtt9+240E3j6V0qQ0eGkJeF7zjjT8A3p7MOJb1wQcf2HHRCNLPPvtsZNrDhw+bV199NXIrNNu3YMECuwzGE6AZz/aKSMFQ8E0TbinlcXekKCjdOl27drX9DOfNFwRsKo4TXKn0zauJXGqjS5cukQDLvfG33HJLZJnc+ROvQviKFStOm7ZevXq2JOywfQxn/E033WSfTcE2iEjBUPBNk3jPd+AU33HpBkqi3PlEABw+fLh9LjAN74ljGHg4S/h1RKDUGkusaUl9LF26NOjLuX3h7RCRgqHgW0Dye8pOAOS5EIMGDTqtAeMI0GGkC2KJN230A15EJH0UfFOEUif5WPKrpA1IC8R7gWZuuAtr5Hy58EXD4wWdNm3a2JIr6wMXzcjbxuKmdWkEpuWJTVx0ExE/FHxThFzpxRdfHHmjAXgma15R8r3zzjvtRThSDzQEd5cSYH08b5T1kZIgFxwv2LtpSVswLRfuCMg8JUpE/FBVsxQj3XDs2LGU1vt1KQwXeKNR0s7t+qjhoCpkIv4p+IqIeKC0g4iIBwq+IiIeKPiKiHig4Csi4oGCr4iIBwq+IiIeKPiKiHig4Csi4oGCr4iIBwq+IiIeKPiKiHig4Csi4oGCr4iIBwq+IiIeKPiKiHig4Csi4oGCr4iIBwq+IiIeKPiKiHig4Csi4kHcF2geOHAg6BIRkfyoUKFC0PULlXxFRDzQq+NFRDxQyVdExAMFXxERDxR8RUQ8UPAVEfFAwVdExAMFXxERDxR8RUQ8UPAVEfFAwVdExAMFXxERDxR8RUQ8UPAVEfFAwVdExAMFXxERDxR8RUQ8UPAVEfFAwVdExAMFXxERDxR8RUQ8UPAVEfFAwVdExAMFXxERDxR8RUQ8UPAVEfGgWFZW1smgO60OHz5sPv/8c7Nx40bzz3/+0w6rVKmSadCggWnVqpWpWLGiHSYiUhR5Cb6bNm0yr732mjl06FAw5HStW7c2N998c9CXGRYuXGjq169v6tatGww5M1999ZX97J07dw6GiMjZKu1pB4LPq6++agPvRRddZO68804zZMgQM2zYMPPAAw+Yhg0b2uk++ugjs2DBAtudKdhOth9Lly41PXr0MPv27bP9ucG8LCOZOXPm2EZEiq60Bl9SDZR40bx5c3PPPffYkmSpUqXssOrVq5uePXuaO+64w/avXbs2EuwyTeXKlc1ll10W2fZU2rJli21EpOhKa/Alx0uJl9zuDTfcEDdwNWvWLFIC/vjjj20701x++eVm5MiRpnTp0sEQEZHcS2vw5eIarrjiiqQX1AjO4GIcJeZMQ/6WHHDYjh07zLRp08yoUaNsm5QE0zBtWPR0LvfNHw3Tb9++3Tax5hWRoiGtwdfVaiC9kEx4mq+//jroyhzR+dsvvvjCXiBctWqVufTSS01WVpbp169fjjyx88gjj9g2n3HMmDFmxIgRtn/btm3myy+/NHv27LEN3T/88IMdJyJFS9ovuBVVkydPNrfddpsNplyIGzBggHnwwQeDsTk988wzpk+fPrZ58cUXzeuvv25LuMz3+OOP23w4Dd3XXHNNMJeIFCVpDb7UbsDOnTttO5HwNNWqVQu6MhNphOXLl5tevXrlyAG3b98+6MopXFXNBddvvvnGtkXk7JDW4MsNFCC3mSyP+95779n2JZdcUiA1CjINaQoROXukNfhy5xolQy4wvfDCC3EDMPV7N2zYYLspGWZ68K1Ro4Zp1KiReeONN4Ih2XSxTETiSWvwJYh27NjRdlMTgAC8f/9+2+/Mnj3b1u8FeU/qARcGjz76qJkxY4atwUAtBW6SGDp0aDBWfOFibbdu3Uzfvn1tE32Gwe/tuuuus81LL70UDM2WaN6yZcvmaHJzUZj5ubjKMlnfsmXLgjE5sU3jxo0L+uJjOrf+MLaF7WU9NIm2jW0aPHiwnZ5tCk/LcJZNO55407jtSjb/+vXrc0zLNoSxH9xnSbaPk33u/I5PtbRfcKMOL3e1gQC8a9cu2+24Ei/50ky7vTgRSugzZ8603R9++KHZvXu3ee6552y/+LNkyRIzduxYM3XqVNOhQ4cc1QOpmbJ582bz/vvv2+bbb7/NERATzUvQohk/fryt7127du1gTHyzZs0yLVq0MPPmzTNvvfWWmTBhgq3VEsYBz3rvu+++YEh83JAU/kNwnn76afPkk0/a9bD9FAziIfi1a9fOfsYpU6aYiRMnBmOMGT16tN1HicSahs/Qv3//yD5imng4Y3TT3XXXXXbbHbZt3bp1dtv4HOFtiyXZ587v+FRLe/BFbkqzVMPKtHQDPwT3XAba9DukUrjxghoKHIzUdihTpowdV6VKFduOnscJLxcsg0by7957740bGBcvXhw5EwOlnXDqKNG8IFBz/eKhhx4KhiRGnW4CHSjlUbvlnXfesf0gAHHA16pVK26pOBlXWnPbTbtOnTo2kMVy1VVXmVtvvTXoS85Vg0yEz1GhQgW7L6MDM+NilSgp4VKAcfsHF154odm7d6+dh2OkZs2awZjTJfvc+R1fELwE3zCe88BzHVxTWHE6yT+ze9YDNSD4x+efndK++MXBRSroxhtvDIYYc+DAARsEHb6rWGLN6xAwOFUlQCRDOi28vqZNmwZd2ShZX3/99fZPgNo+uUk9RGM7om9gatmyZdAVH/NxpsYfQiIrV640zz//fNAXG0GT4MvFcv7gwukcAnfv3r2Dvl9Q2Dp48GCkzju4PkQAJC68/PLLCY+jZJ87v+MLgrfg66qdxcJOP//884O+woFqZlQ3a9u2rWnSpIlNmZDP5getW5D9InhSouRU0p2FgAARFquUE29eUEqjdEwADpdUXR6UhryswzWMMG6iCVu9erVNN/AnwHKfeOKJYEzO/G6iHGo4uDssNxECz8MPP2yDIiXhRCglP/XUU0FfbOwnzgb4HEw7aNCgYEx2iZIUTzRSKMzDjUauFMo+ZR9TiHnllVfsNZV4kn3u/I4vCN6CL3d/hUu84eaxxx7L1V1wmYSUA6Wj+fPnR5pJkybZmhDiTzh4ulNKhz9K8nsO3eFT8ETzhgM1ueLwwUuwIKDREFSc7t27R9IajIsuTfNn4E7TWXc4JeLyuzSJcqhs59atWyMBjDb98Ur1LM8F3vApfzxMnyztwDqZznWHPwfctoHpXD/dpBncvqQkTOO460FOeDnJPnd+xxcEbw9TF0kHTuHB6Suoa06p0uGUeNGiRba7U6dOOcbFm5cgQSGBMxuCRfR88UTPN3DgwBwBjwOeYM/6OPBjBf1YCFYs2zmT5ZDamDt3rn1+thMO7vzJkKt2wyiBc5EyXPqNnoYSKxcTY62fae+///5I6Td6W8P7hM/EHwPpgOhxzEdgPJPPnd/xqeY1+PJDjIXaEIWlipmISF54veAWK+9bGPO9IiJnSmkHSYjaGzx/WURSS8E3l3izhHsecSzXXnut9yDFw+p5QM+Z1Nt0jh49at5++217gwgpnzZt2pgPPvjAPg6Ti4akghSERVLHez3fwqJcuXK2kjcNaRGClOunOe+884IpC6dPPvnE3ihCtSCqG1Gv8uKLL7aPv+zSpYsCr0iKKfjmEo+1pJI3jXskpOuniVVPsDDh6i6fi8/pXuHkbgL41a9+Zdsikjolhg4dWnhvK/OE6i3c6ROuo0nJkae0XXDBBbafXOm7775r6tWrZ1MWVLHhrqXPPvvMVjWqWrWqWbNmjb3LilN7KtzzPAjqN5coUcIug1QAt1UyHU9IY7hbPnguBre3Uv/RvYqI5bHOaGwPaQSmZT3ly5e3FzfZNt4UzXYdP37cpi1YF68xYv28fSR6vSKSfyr5psj333+fo0I4gYvUBBj+5ptv2mGkKECagnmmT59uuxlO6ZO8q0M3gdClNngYC3ldEBx5qAvPv2AcyyK4xkKQfvbZZyPT8ifBbd0EZJdOAW9kdusCfwR0M42IpJaCb5pwaymPyyNFcfXVVwdDjenatavtZzhPciNgU7ImuFLpm1cTudQGuVcXYCl533LLLZFl8tSteBXCV6xYcdq0lI4pUbt0Cgi0bl0gDUF3pr9JRKQwUvBNk3jPdyhZsmTQlV0aBiVl7oDi4TzDhw+3zwWm4T1xDAMPaQm/jgiuxBot1rSkPZYuXRr0iUi6KfgWEFIM+UEgpooXtQ+iGzCOAB125MiRoCuneNNGP+hFRNJHwTdFKHWSjyW/6i7IxXuBZm7w+nmQ86WaF034paLUw6Xk6h5Gz4UzXr8Ui5uWVAaYlic2NW7c2PaLSPop+KYIuVHqxbo3G4Bns+YVJV9ubOAiHKkHGoK7S02wPp43yvpISZALjhfs3bSkLZiWC3cEZFelTETST3e4pRjphmPHjqW03q9LYbjAG42Sdm7Xp9uFRTKDgq+IiAdKO4iIeKDgKyLigYKviIgHCr4iIh4o+IqIeKDgKyLigYKviIgHCr4iIh4o+IqIeKDgKyLigYKviIgHCr4iIh4o+IqIeKDgKyLigYKviIgHCr4iIh4o+IqIeKDgKyLigYKviIgHCr4iIh7EfYHmgQMHgi4REcmPChUqBF2/UMlXRMQDvTpeRMQDlXxFRDxQ8BUR8UDBV0TEAwVfEREPFHxFRDxQ8BUR8UDBV0TEAwVfEREPFHxFRDxQ8BUR8UDBV0TEAwVfEREPFHxFRDxQ8BUR8UDBV0TEAwVfEREPFHxFRDxQ8BUR8UDBV0TEAwVfEREPFHxFRDxQ8BUR8UDBV0TEAwVfEREPimVlZZ0MutOq+E/rzDm7JpgSB9eYYke22mEnS1Q0J8o2M8cv7Gd+rtjRDhMRKYq8BN9zvxluzt092ZgTR4Ihp/u5wg3mSL35QV9mWLhwoalfv76pW7duMOTMfPXVV2bTpk2mc+fOwRAROVulPe1gA+/OcTbwnjy3ujlW/SFzuNFy81PLvebor8eZE6Ub2+lKHHjPlNrwG9udKYYMGWKDJ5YuXWp69Ohh9u3bZ/tzg3lZRjJz5syxjYgUXWkNvqQabIn3lBNlW5ojdeeYYzX/05wo08QOO17ld+Zw4xXmeNU+tr941mobrDNR5cqVzWWXXWZKlSoVDEmdLVu22EZEiq60Bl9yvLbEW6KiOXbRo5GgG+1o7TGREvA5+/5u25nm8ssvNyNHjjSlS5cOhoiI5F5agy8X13CifOukF9SOV7vftrkYR4k505C/JQcctmPHDjNt2jQzatQo2yYlwTRMGxY93aFDh+zwjz/+2E6/fft228SaV0SKhrQGX1er4USperadCCkIp8TeeUFX5ojO337xxRfm5ptvNqtWrTKXXnqpycrKMv369cuRJ3YeeeQR265evboZM2aMGTFihO3ftm2b+fLLL82ePXtsQ/cPP/xgx4lI0ZL2C25F1eTJk81tt91mgykX4gYMGGAefPDBYGxOzzzzjOnTp49tXnzxRfP666/bEi7zPf7446Z58+a2ofuaa64J5hKRoiStwZfaDSh+eLNtJ3LOnr8FXadKyuVaBV2ZiTTC8uXLTa9evXLkgNu3bx905RSuquaC6zfffGPbInJ2SGvwPVG2uW2XOPBu0jzuObum2PbJknXMyfNq2u6ijDSFiJw90hp8j138+Kk1lrQ1Hkpuui1uAKZ+b/FD/7Ddxyt1iVsrIlPUqFHDNGrUyLzxxhvBkGy6WCYi8aS35HsqiB6vfJftLvbzfhuAS+xfbPudUv9oa+v3grrA1AMuDB599FEzY8YMW4OBWgrcJDF06NBgrPj09ddfm27dupm+ffvaJvosY/bs2ea6666zzUsvvRQMzZZo3rJly+ZomDYZ5ucCK8tkfcuWLQvG5MQ2jRs3LuiLj+nc+sPYFraX9dAk2ja2afDgwXZ6tik8LcNZNu144k3jtivZ/OvXr88xLdvghIfTuIvTsXCxm3n5vKwv+ntONv5M9lkqpP2CG3V4uasNBODiB1fabseVeH+ueMupacfa7sKA3O3MmTNt94cffmh2795tnnvuOdsvfi1ZssSMHTvWTJ061XTo0CFHFUEOyM2bN5v333/fNt9++22OgJhoXg5emvHjx9s637Vr1w7GxDdr1izTokULM2/ePPPWW2+ZCRMm2JotYRz0rPe+++4LhsTXs2fP04IInn76afPkk0/a9bD9FA7iIfi1a9fOfsYpU6aYiRMnBmOMGT16tN1HicSahs/Qv3//yD5imng4a3TT3XXXXXbbHTechn3ctm3bYExO7EO2nX3KZ+bzcDHbSTYeZ7LPUiHtwRe5Kc1SHS3T0g3r1q2LPJeBNv0OdXW58YIaCvxIqO1QpkwZO65KlSq2HT2PE14uWAaNpMa9994bNzAuXrzYdOz4S51zSjzh9FGieUGgpn72Qw9lFyiSoV43Bz4oyVHD5Z133rH9IMhw0NeqVStuqTgZV2Jz2027Tp06NsjGctVVV5lbb7016EvOVYVMhM9RoUIFuy+jAzPjYpUqKelTiHH7J4x5uKgdaxxWrlxp52Wfgs/zxBNP2G4kG3+m+ywVvATfMJ7zUGb1BZGmsOJ0iBKDe9YDNSD4t+dfvVmzZnaY+MUBRjroxhtvDIYYc+DAgcgBCb6vWGLN63BQR6ck4lm7dm2O9TVt2jToykbJ+vrrr7d/Ajt37sxV6iEa21GxYsWgL1vLli2DrviYj7M1/hASIZA9//zzQV9sF154oQ2+l1xyif2DC6dzCNy9e/cO+n5BvfeDBw/GTC0QwDt16hT0nY75ypUrF/Rlo+TtJBuf132WH96Cr6t2FlPxkuZkqTpBT+FANTP+mTktatKkib3hYv/+/fbHrFuQ/SN4UqLkdNKdiYAAERarpBNvXlASo3RMAA6XVF0elIa8rEP97TBupAlbvXq1TTfwJ8Byw6WzcH43UQ41HNwdlpsIwefhhx+2QZGScCKUGp966qmgLzb2E2cDfA6mHTRoUDAmu1RJiicaKRTm4WYjVxJ1SM907do16DtddGDFpEmTgq7k4/Oyz/LLW/A91Gy9fZJZzKbFdznucCsMSDlQMpo/f36k4culJoT4FQ6e7rTS4c+SHJ9Dd/gUPNG84UBNrjh8AHPWQ0CjIag43bt3j6Q1GBddmubPwJ2ms+5wSsTld2kS5VDZzq1bt0YCGG3645XqWZ4LvPFO68OYPlnagXUynesOfw64bQPTuX669+7dm2Nfsp9JAUT/8YWX0apVK7sv3TrZx6T/nGTjz3SfpYK3h6mLpAun8OAARoMGDWyp0uGUeNGiRbabU9vwuHjzchAPGzbMnt0QLKLniyd6voEDB+YIeBz0BHvWx8EfK+jHQrBygQVnshxSG3PnzjWtW7cOhmT/eTgEP3LVbhglcC5Shku/0dNwFkBpNdb6mfb++++PlH6jtzV6n7B9pO6i9xOBMfyZ3TovuOACm0JgP4eDeLLxed33eeU1+MbL8VIborBUMRMRyQuvF9xi5n0LYb5XRORMKe0gIuKBgm8u8WaJjRs3Bn2nu/baa02lSpWCPj8+//xz+4CeM6mzKSJ+eK/nW1hQVaVmzZq2Of/88+1dbK6f5rzzzgumFBFJTsE3l6pVq2avuNK4R0K6fprwVVMRkWSUdsiDXbt22fv5eSi688knn9iXavIWC3CnG6VjUgCkLL777jtbOv7+++9N1apVzRVXXGE+++wzU758ecPbKn788Udbor766qsjpeijR4+aDRs2RJ71SzUnt3ywHVTSP3LkiC19I17age1Zs2aNnZb1NG7cOJImYfvYhpIlS9r5aV955ZXe0ygiRZlKvilCUOUWRofASfAFw9988007zAVJF4inT59uuxlO3cK3337bjgfdPJbSpTZ4KAh5XfCON/4AeHsy41jWBx98YMdFI0g/++yzkWkPHz5sXn311cit0GzfggUL7DIYT4BmPNsrIgVDwTdNuK2Ux9mRoqB063DLJP0M580XBGwqjhNcqfTNq4lcaqNLly6RAMv99bfccktkmTxxK16F8BUrVpw2bb169WxJ2GH7GM74m266yT6bgm0QkYKh4Jsm8Z7vwCm+49INlES5+4kAOHz4cPtcYBreE8cw8ICW8OuIQKk1lljTkvpYunRp0Jdz+8LbISIFQ8G3gOT3lJ0AyHMheCBJdAPGEaDDSBfEEm/a6Ie8iEj6KPimCKVO8rHkV0kbkBaI9wLN3HAX1sj5cuGLhkcMOm3atLElV9YHLpqRt43FTevSCEzLE5u46CYifij4pgi50osvvjjyVgPwXNa8ouR755132otwpB5oCO4uJcD6eN4o6yMlQS44XrB305K2YFou3BGQGzZsGEwhIummqmYpRrrh2LFjKa3361IYLvBGo6Sd2/VRw0FVyET8U/AVEfFAaQcREQ8UfEVEPFDwFRHxQMFXRMQDBV8REQ8UfEVEPFDwFRHxQMFXRMQDBV8REQ8UfEVEPFDwFRHxQMFXRMQDBV8REQ8UfEVEPFDwFRHxQMFXRMQDBV8REQ8UfEVEPFDwFRHxQMFXRMSDuC/QPHDgQNAlIiL5UaFChaDrFyr5ioh4oFfHi4h4oJKviIgHCr4iIh4o+IqIeKDgKyLigYKviIgHCr4iIh4o+IqIeKDgKyLigYKviIgHCr4iIh4o+IqIeKDgKyLigYKviIgHCr4iIh4o+IqIeKDgKyLigYKviIgHCr4iIh4o+IqIeKDgKyLigYKviIgHCr4iIh4o+IqIeKDgKyLiQbGsrKyTQXdaHT582Hz++edm48aN5p///KcdVqlSJdOgQQPTqlUrU7FiRTtMRKQo8hJ8N23aZF577TVz6NChYMjpWrdubW6++eagLzMsXLjQ1K9f39StWzcYcma++uor+9k7d+4cDBGRs1Xa0w4En1dffdUG3osuusjceeedZsiQIWbYsGHmgQceMA0bNrTTffTRR2bBggW2O1OwnWw/li5danr06GH27dtn+3ODeVlGMnPmzLGNiBRdaQ2+pBoo8aJ58+bmnnvusSXJUqVK2WHVq1c3PXv2NHfccYftX7t2bSTYZZrKlSubyy67LLLtqbRlyxbbiEjRldbgS46XEi+53RtuuCFu4GrWrFmkBPzxxx/bdqa5/PLLzciRI03p0qWDISIiuZfW4MvFNVxxxRVJL6gRnMHFOErMmYb8LTngsB07dphp06aZUaNG2TYpCaZh2rDo6Vzumz8apt++fbttYs0rIkVDWoOvq9VAeiGZ8DRff/110JU5ovO3X3zxhb1AuGrVKnPppZearKws069fvxx5YueRRx6xbT7jmDFjzIgRI2z/tm3bzJdffmn27NljG7p/+OEHO05Eipa0X3ArqiZPnmxuu+02G0y5EDdgwADz4IMPBmNzeuaZZ0yfPn1s8+KLL5rXX3/dlnCZ7/HHH7f5cBq6r7nmmmAuESlK0hp8qd2AnTt32nYi4WmqVasWdGUm0gjLly83vXr1ypEDbt++fdCVU7iqmguu33zzjW2LyNkhrcGXGyhAbjNZHve9996z7UsuuaRAahRkGtIUInL2SGvw5c41SoZcYHrhhRfiBmDq927YsMF2UzLM9OBbo0YN06hRI/PGG28EQ7LpYpmIxJPW4EsQ7dixo+2mJgABeP/+/bbfmT17tq3fC/Ke1AMuDB599FEzY8YMW4OBWgrcJDF06NBgrKQLF2e7detm+vbta5voMwp+X9ddd51tXnrppWBotkTzli1bNkeTm4vAzM/FVJbJ+pYtWxaMyYltGjduXNCXHBd1WR7LHTx4cMyzpvXr18f8/GHus7B+h/nCnzM8Llp+9nU0Pgfro+2wPPpZNstIts+T7Zf8jk+1tF9wow4vd7WBALxr1y7b7bgSL/nSTLu9OBFK6DNnzrTdH374odm9e7d57rnnbL+kz5IlS8zYsWPN1KlTTYcOHXJUB+Tg2rx5s3n//fdt8+233+YIiInm5UCkGT9+vK3fXbt27WBMfLNmzTItWrQw8+bNM2+99ZaZMGGCrcUSRkBhvffdd18wJDHmnzJlil0ey23Xrp29aBvGdvLbe/LJJ21Ai4fpXn755aAvGzWSGOY+Lzc9xZOffR1t9OjRdp4w/gj4fCyfzzxx4sRgzOmS7Zf8ji8IaQ++yE1plmpYmZZuWLduXeS5DLTpd0ilcOMFNRQ4OKntUKZMGTuuSpUqth09jxNeLlgGjZy5e++9N25gXLx4ceTMC5RwwqmiRPOC4MH1ioceeigYkhh1uDmIQRCkNss777xj+0Fw44ypVq1aCQNT2MqVK+0fvQuqt956q3niiSdst0NABNvKOs7EwYMHbZtSa3RJk/7w8vKzrwl2NIlcddVV9vPlRrL9kt/xBcFL8A3jOQ8818E1hRWnl/wzu2c9UAOCf3NywZT2Jb0IFKR+brzxxmCIMQcOHIgcXOC7iSXWvA4HaLLTeYf0WXh9TZs2DbqyUVK8/vrrbWCidk9uUg8Ex3LlygV92fr37x90ZZcWqS9OXXJqCd19993BmNypU6dOpP3000/nKI2+8sorMf8k8rKvCXbPP/980JcY+5qSPH9e8STbL/kdXxC8BV9X7SwWLsqdf/75QV/hQDUzqpu1bdvWNGnSxKZMyGfzo9EtyOlFMKBESQnQnXWgQoUKQVc2AlW0ePOCUiylPQJwOAiRHyTQ0IRzpFyzCOOmmbDVq1fbdAOBieWGS1osxy2T5TvRAQKTJk0KurLXcf/999tlsr0E0VifMx5Km6QaaBPACarOU089dVpJNK/7muWwvGQIvA8//LDp3bu33aZ4ku2X/I4vCN6CL3d/hUu84eaxxx7L1V1wmYSUAz/U+fPnRxq+PGpCSPqEg0H0KTF/jOTzHLrDwSTRvOHgQf4yXKrjDIcgQRPOkXbv3j1yqs246NIhAcqVLFl3+DSd5bhlsnyHGkMsh+Fg+aS5HIII1xzANFu3bjUXXnih7c+N8Ock/1uzZs2gLztV4NaL/OxrlpMs7cA0LvC69I0TPX+y/ZLf8QXB28PURQoCp/Bwp8/ULadU6XDVfdGiRba7U6dOOcbFm5cDkkIBZzJ79+49bb54oucbOHBgjiDighfrI0jGCmKxUOrm4t0FF1xgn5HCOtyfQbJ1RnMldfen4fZPrGVTAmdZLojmZ1+zXi7IhUu/BH7y5O7PhjTM3Llz7bO9HTeO4Mh+CP8xJdovyO/4VPMafPlwsVAborBUMRMRyQuvF9xi5X0LY75XRORMKe0gCVF7g+cvi0hqKfjmEm+WcM8jjuXaa6/1HqR4WD0P6Im+Ip0bR48eNW+//ba9WEPKp02bNuaDDz6wj8PkoiGpIAVhkdTxXs+3sOAqMld+aUiLEKRcP815550XTFk4ffLJJ/ZGkUGDBtkqPdzldPHFF9vHX3bp0kWBVyTFFHxziQrr3CxB4x4J6fppCvKqaDpwtZ3Pxed0r3ByNwX86le/sm0RSZ0SQ4cOLby3lXlCdR7u0AnX2aTkyFPaqKYCcqXvvvuuqVevnk1ZUI2Gu5g+++wzWw2oatWqZs2aNfZOIE7tqRzP8yCo31yiRAm7DFIB3HrMdDwhjeFu+eC5GNxCyvMw3KuIWB7rjMb2kEZgWtZTvnx5e3GTbeNN0WzX8ePHbdqCdfEaI9ZPXc/o9YpI/qnkmyLff/995L54ELhcZXeGv/nmm3YYKQqQpmCe6dOn226GU/ok7+rQTSB0qQ0e+kFeFwRHHvLC8y8Yx7IIrrEQpJ999tnItPxJcFs3AdmlU8Abmd26wB8B3bHu/hGR/FHwTRNuNeVxdaQorr766mCoMV27drX9DOdJbgRsStYEVyrh82oil9og9+oCLCXvW265JbJMnioVr4L+ihUrTpuW0jElapdOAYHWrQukIejO9DeJiBRGCr5pEu/5DiVLlgy6skvDoKTM3Uk8nGf48OH2ucA0vCeOYeChLeHXEcGVWKPFmpa0x9KlS4M+EUk3Bd8CQoohPwjEVPGi9kF0A8YRoMOOHDkSdOUUb9roB7+ISPoo+KYIpU7yseRX3QW5eC/QzA1ePw9yvlTzogm/VJR6uJRc3cPouXDG65dicdOSygDT8kStxo0b234RST8F3xQhN0q9WPemA/Cs1ryi5MuNDVyEI/VAQ3B3qQnW17JlS7s+UhLkguMFezctaQum5cIdAdlVKROR9NMdbilGuuHYsWMprffrUhgu8EajpJ3b9el2YZHMoOArIuKB0g4iIh4o+IqIeKDgKyLigYKviIgHCr4iIh4o+IqIeKDgKyLigYKviIgHCr4iIh4o+IqIeKDgKyLigYKviIgHCr4iIh4o+IqIeKDgKyLigYKviIgHCr4iIh4o+IqIeKDgKyLigYKviIgHcV+geeDAgaBLRETyo0KFCkHXL1TyFRHxQK+OFxHxQCVfEREPFHxFRDxQ8BUR8UDBV0TEAwVfEREPFHxFRDxQ8BUR8UDBV0TEAwVfEREPFHxFRDxQ8BUR8UDBV0TEAwVfEREPFHxFRDxQ8BUR8UDBV0TEAwVfEREPFHxFRDxQ8BUR8UDBV0TEAwVfEREPFHxFRDxQ8BUR8UDBV0TEg2JZWVkng+60Kv7TOnPOrgmmxME1ptiRrXbYyRIVzYmyzczxC/uZnyt2tMNERIoiL8H33G+Gm3N3TzbmxJFgyOl+rnCDOVJvftCXGRYuXGjq169v6tatGww5M1999ZXZtGmT6dy5czBERM5WaU872MC7c5wNvCfPrW6OVX/IHG603PzUcq85+utx5kTpxna6EgfeM6U2/MZ2Z4ohQ4bY4ImlS5eaHj16mH379tn+3GBelpHMnDlzbCMiRVdagy+pBlviPeVE2ZbmSN055ljN/zQnyjSxw45X+Z053HiFOV61j+0vnrXaButMVLlyZXPZZZeZUqVKBUNSZ8uWLbYRkaIrrcGXHK8t8ZaoaI5d9Ggk6EY7WntMpAR8zr6/23amufzyy83IkSNN6dKlgyEiIrmX1uDLxTWcKN866QW149Xut20uxlFizjTkb8kBh+3YscNMmzbNjBo1yrZJSTAN04ZFT3fo0CE7/OOPP7bTb9++3Tax5hWRoqHY7t27vdR2EBE5m6mer4iIBwq+IiIeKPiKiHig4Csi4oGCr4iIBwq+IiIeKPiKiHig4Csi4oGCr4iIBwq+IiIeKPiKiHig4Csi4oGCr4iIBwq+IiIe6JGSkh4nfzbFj+4zxY4dMMWOZ5liPx85Nex4MNKzYueYkyVKmpPnlDUnz61gTpxX6dSwEsFIkYKh4CsFqtjxn0zxwztPNbuDIYXDiVIXnmqqnwrIZYIhIqml4CsFpkTW16b4oe+CvsLpROmLzM9lawd9Iqmj4CspR2m3xMEtNr1QFJCO+LncpSoFS0rpgpukVLFj/2fO+XF9kQm84LPYz3Tqs4mkioKvpAwl3nMObMqcC2mpdOoz8dn4jCKpoOArKUOqoUgGXufUZ7OfUbwaOnSo+eGHH4K+wqvQ53w3btxoBg4caD7//PNgyJmbNGmS+dd//degT/KiKFxcyy1dhPOHoNuwYcMiccwW+pJvfgMv+vfvb4O45I2tTuYh8K7+YrMZOWFG0Jc+fFalH9Jv+/btZuzYsbb7hRdeMJ9++qntLqwKffB1gXfx4sXmVCn+tMZJNv6nn3Qw5RX1eNPtp0OHzejnZ51qZpsNX30dDE0fH5/5bPbXv/7VXHnllWbq1Km2n+O+Y8eOZsCAAYX22FXOV/KHO9c83EAx++/LzP/73mrbPWzsX207nexnPvXZJTX+53/+x1x44YU5GgKrc88995g1a9aYvn372v6bbrrJFqgmTpxoypQpnFUAFXwlX7hlON227dhtHh02KegzNgjPXbgs6EsfH5+9KAlfNFu7dm3Q9Ys5c+ZESrVM+6tf/co88MADtv+OO+4wLVq0sN2FlYKv5AvPaki3URNn2navrv9i/ji4j+2+/9/Hmj17f7Td6eLjsxcVBNNevXqZ3r172xLs//7v/9rho0ePNsuXL7fdWLRokb24xkW2FStW2ABM6bd9+/bBFIWXgq/kS7pvpnhz6Sdm1oJ3bfegP9xh7u11i/nNDS1t/7OT59h2uhSlG0nSbfbs2TZv+/bbb5u7777btlGnTh3ToEED2w0uhg8bNsx2//GPf7Ql4WeeecZUrlzZDivMzprgS3I+OqdEI/ljn06WJpRs/zxplu2mxNuwbm1TpnQpM/jBXnbYC9P/bt77OH81X85EOj97UULNIhdQ/+3f/s00a9bM9OjRw+Z027Zta4dTEmYaxrlpCdZz58613UWBSr6SP2m8qWLKjIXms3/8f7ake2fXfwmGGtPy8nqnAnBP2z1szF9tTYi0KMo3lBSgv/3tb7bNRTOqilLq5cLZu+++a4dRKKJ0+/vf/96OC5d+Bw8eHMkVF+aaDjhrgm+yqmaS2ajTS7Uy9L+nq6lywfm227m/d2dzRePLbHB+adabwVDJNATLGjVq2G4C67//+7/bYVQlI7C6qqNUKXM1Gxjngi8l5O+//96Wnrkg95e//MUOL4xU8pX8KXZO0FFwXJ1eUMK9qll92x1GMP73/tnph/8YPS09dX/T8NmLGqqFUZLlIhoIoJg+fbptM5z0AwjOBNnNmzfbflIUw4cPNytXrjTXX3+9HUZQLqwlYAVfyRfeAFHQXJ1eSra//X9usnneWG5pf7WtAYF01P1Nx2eXXxw4cMCULl3a1vl1NSKoHfHnP/+5UNb1VfCVfOFZtwUpXKe3/z23mVo1El8kfXzAXbadjrq/Bf3ZiyJKqH/6059s6RekFg4dOmR++9vf2n6GcycbSDHUqlXL1KtXz/a7VAS3GVMjgu7OnTvrJgs5O/HOs4I06a8LbJsS7a03XmO7EyE4jx2WfWBT97cgL74V9GcvigiUlGDBxTWeUEa1se7du9tSLLUb4FIMTE9J1+V8w9dpCnuVMwVfyRf7sskCQp1eqo+BOr3x0g3RenZpF6n7+8fnsq+sF4SC/OxF2e9+9zvbJqdLAOVGCy68UYplGAGWWhDUBabmA3lgF3wpIXOjRVFQ6B8p6erqUpsh1u2G+R0vyZU4uDXlz3egxHrr3U/Y2gv59fasZ211tFTiBZs/l6sT9MmZCgfUsHnz5tm6vu64DKOkTOqhsKYZohX6kq87TUl2E0Wy8UXlC/WBt/ym2n+/OC8lgReDR0xOefqhID7z2aRnz5722CVv+8orr9jAiq1bt+Z4vCvjXJDmuQ5F6TjVw9RP4V9YD1PPHz1MXc4UF85cCoHcr3tcZBh3uhFwubGCmg4KviIxnLP/yyL/vANqOByv2DTok1ThkZKuBoRDbQfufCuqFHwlZewLNH9cfypCFdHbboudY46f30ivkJeUUG0HSRmC0vEK9W2QKnIIvKc+mwKvpIqCr6TUyXPLB6XDonMDgk018JlOfTaRVFHaQQpMUbgIp4trUlAUfKVA2TcbH97p5T1v+UE9XqqTKc0gBUXBV9KDF20e3WdfvUONCPsg8ky5MFfsHPuQHNIL3DJs71wrViIYKVIwFHxFRDzQBTcREQ8UfEVEPFDwFRHxQMFXRMQDBV8REQ8UfEVEPEh78OURkOHGvYM/r5ifJyLFsmLFCruOdGN78vu5iiLe38VjBPMqN/MmmiY/65bkPv30U/vbp51f/FaK+jGU9uDLK5//9re/RZpevXrZ9/LnFe/wj34UncPbKdatWxf0pQ/bw3ZJTnPnzjV/+MMfgr7kOJDDf6y8WDHRnynj3MsXcabzS97xTOwxY8bYVwDR5nXuyfBd8Bxfh5cbuO9n0aJFZuzYsba7qPKSduC9Ta5ZsGCBWbVqVb4CsBQO06dPtwcYZyR5sWHDBvvW2ngYxzTxJJtf8o63TfAwdAoeM2bMyFXwTaRTp045AnNRlPY73Dj4+HcM4/SiYcOG9uDgbaScHs6cOdO+5bR58+Zm7dq19hUijJswYYIdXqNGDfP73//ebNu2zZam+edlugoVKtg3W/DEe748+uGWFX5jBaUi5kG3bt0i73DjlOcvf/mL2bFjh10PmjZtat8txTJ5lfXmzZvtOH5s0dvLsOXLl+tADyHgcibC65xo88frhPef+14Zz1sM8Otf/9r2s+/5Hbz77rv2+3DfF6UlhnXp0sVMnjw5Mm28+Xl7AqfGvC8M4d+F206EfxOSGK8B4o3DfL/RYh1nFLYodG3atMlcffXVdhzBmweo84oh8Eoh3lzsCmY7d+60v5Hw98J3TwHOHXsuVvAdMx/HKTHgrrvuyrgXb2bEBTeCKl8ep+oEYk5Neb8TbzklUPOlZGVl2YBYvnx5O7xs2bI5ckLlypWzw/kSCNDOkiVL7LIZt2zZssgXSZt+hvNlPvbYY5FcFW9SBePq1Klj/9V37dplh7ltYdy//Mu/xNxeOR1vouXA5NT/k08+iXx30fuPP2eG0d2mTRvb0A237/lOOLV1OPgYxjimQaL5+Z5ffvll+70zjt8BQZf1umG0v/zySzufJPenP/3Jfie8iZhgSwEGHGdbtmyJ7FOOM/Yzxw5vK65fv74d574jhjVq1MgebwRO0CZQd+3a1f6GaPjDZjkUvGLFCr5P5mE4490fcSbJmNoOLmgtXbrU3HHHHXYHU3KkFOlerscB9sEHH9gdyZcU/idz07Ozwwfmf/zHf9h/ScYNHz7cDB482A6nTT/DGc90lIT4J923b59dL+NYbvRbVvnhMI4m0fZKNg4USjicOXBGwv5auHChHRe9/yiB8r3STSCmoTuM5YAgygHIHywHYVii+fme27VrF3kfGN2UdikEcKBSigalLskdjiFe+06pkz8zd2bDceaOB/Z3hw4d7HfOd8wZyfnnn2+/H/cdMYzvIRrfEdPw3fPSzZUrV9rlcGyGjz2+P7AcfnNM17hx48hvJpNkRPB1SXb3BVCqDatUqZJts5P5cjkd4UIdB3Uy4WXxAr6wcH/VqlXNjz/+aLvd+pzo7YkWb3sl29///nf7glMXDDlgyP86yfZvLPwOCKIE8X79+p3xixX5s+dirLsgy28Ls2bNstvIHzipLDkzBLk///nPtgTqSr8cr25fX3rppaZJkyZ2eCrE++0Q3N0ZMGdWeb3OUJC8B192CjlaSp7gi+HAdIGV0s2cOXNsN9Ny2so/HKUl/tWS4fTS/QhIW/CvCdr0g/HUvODftVatWvYf031ZlKzCgSJa9PYyn9teyd638+fPN2vWrLEBzzUEOPZV9P7jj9h9X4lwkJO+YN727dsHQ3OH3OD//d//2Ys6lLQ5o+J3xXrXr19vh40fP/60Mx6JjWOUPyr3vbnCFH+I7nhjn9JUq1YtUsjKL/fbYf2smxSHe4s520Bg5uyF2OLy+JnES/B1JSAacoHki9xpAV8MJRkOBsa7iyIgD8TpBFdSST/k9qAjV8SyOLAoMYGLL1xQYzjL5EIPByM/GLbnj3/8ox03aNAg246H7f3tb38b2d5M/JJ94sIjeb3oix2kh/ju2X8cHJRO2H8jRoywF1Fzg98Jf8KxTlMTIQhUr17dfu+sk1Iuf7I0bBN5S86sVPLNHb5DjiW3P8nruuOW44yLYAx3x0du/lxzg/VyrFLAIsiHS8Gsg98UsYJjmXxzpsno5/myA2OdTsYbnkhelnWm68nLdskvfOy/WOvU95h38fZdQe1TzpjcHzvr4A+Aa0JuXZn8Xeph6iJSKJFaIGXJ2Q+latJbv/nNbwrNhVIFXxEptEgVUesB5IBJRRQWCr4iIh5kTD1fEZGziYKviIgHCr4iIh4o+IqIeKDgKyLigYKviIgHCr4iIh4o+IqIeKDgKyLigYKviEjaGfP/AzJxFFbKor2rAAAAAElFTkSuQmCC;imageBorder=none;strokeWidth=2;movable=1;resizable=1;rotatable=1;deletable=1;editable=1;locked=0;connectable=1;" parent="1" vertex="1">
          <mxGeometry x="-160" y="113" width="351" height="634" as="geometry" />
        </mxCell>
        <mxCell id="myNyhjmuBwBBh0yOWU_x-5" value="" style="shape=image;aspect=fixed;image=data:image/png,iVBORw0KGgoAAAANSUhEUgAAAV8AAAJ7CAYAAABEYJI8AAAAAXNSR0IArs4c6QAAAARnQU1BAACxjwv8YQUAAAAJcEhZcwAADsMAAA7DAcdvqGQAADFkSURBVHhe7d0JlFTVufbxtwHDJAhCAAMOEUGDIOFGExwgks+RIOqnQYJxIMGgXpxg6QUxXhQElQtEJYREFIfAVdAFQUg0aiCohAQVBUSRoJHhE1oQZFQZ+utn99ltddvdDN1db1Xz/6111tnnnBq6+lQ9tes9u+rkbNu2Lc8AAGlVLZkDANKI8AUAB4QvADggfAHAAeELAA4IXwBwQPgCgAPCFwAcEL4A4IDwBQAHhC8AOCB8AcAB4QsADghfAHBQKT8pOWfOHHvllVfsrbfesueffz5Za3b99dfbmWeeGaa6desmawHg4FOh4btgwQK79957iwRuaR599FG77LLLkiUAOLhUWNnhkUceCT1aBW+HDh1CuCqM88M9TB999JFNmTLFevXqFS7/85//3K655pqwDQAONhXS81Xw3njjjaE9fPhwu/zyy61x48ZhuSSzZs2yHj16hPZ5551nzz77bGgju+gNNb55tmnTJszTbf369WFe1vMNqCixXKrS6imnnBLaB6rcPV/1bmPwqrd70003hReCXpQPPPBA+GM1qZerF6v8+Mc/tqVLl4a2esq6HLKH3jzPOOOMELh6AmrSPtZ+LM8nmVtvvTVMejNPVdp6PYeOPvroMMXnE5Atyh2+qvHKwIEDrVu3bqEtN998s91+++3JktnkyZPDizX2VPSCURlCdLkYzMhsTz/9dPjUsnDhwmTNV7Qftd8P1Lhx48L03nvvJWsKlLZ+8eLFScvsww8/TFpAdihX+KrrHWu8V155ZZEuucI2thWsKi/Ib3/72zAX9YBjDfiJJ54Ic2S2hx56KMy1z7Vv9clHc41kEZWc0kVv9nrT16TjDUA2KVf4ajiZnHvuuaEnG61bty7MFaz6SKoyRKzxrly5Msyjiy66KMxjDxqZS2+iscd7ww03hH0bSw8jR44MQZzOENSb/a9+9aswxTd+IFuU64DbJZdcEnq+Kh+oFxupJxSX1f72t79tffv2DZdVL0UvlkhliBjcsYaHzKR6bpMmTUJbn2R+97vf7fVAl67z1FNPhZLBpk2brEGDBuG5EUNagT527NjQVmlB1Ks+9dRTQ1tKWq+wT71uv379wnNHzzfVpOO66dOn2+rVq8PyySefXOLwxtTriP6+FStWFJY5dF+R3mD0PH7hhResadOm9t3vfje8DrwOOCK9Uj/dq9NRHuUK37L+EB1gi6WHSC+eSZMmfS1gK/IBoXIV368a3XLaaaeVuN8UjipDlFQfVplCoaY33APZ5wr11OsqFBWAqklrGKPo+Vb8vvX36qBwpIOEqccmSqL7krJ69gpvSh9Vx4F+ktqfDKuwcb7F/frXvw5PdL0ARD3e3//+9/Rss9wdd9xRWL8XBZdCR70/hVOkwIrBq+eAPh1p+4MPPhi2qzeroNSTXEEca8aiy8d1pa3fV7o/TfF5qL83jozQCyUGr7brchqxk/r4UsUDxNqusI3j1mN5DdgflVJ22B+UHbKPgnXmzJlhv2v/p4o9QM1jnb/4fo29TQXeq6++mqz9qrehcE39qF/a+r31fOM6UdDG52j8dmVqLz71b9Tj0wHk+Nhiz1fD3fSmofAdPXp0uHzcdqA9JWSXuJ8r4lN6uXq+qnfJm2++GeYHYsmSJWGuFyID5bODnoAKL305RqGlTzWResaiJ2ekumwcq6tp7ty5YX1J5YiKlFqHLakkEINXoZ765qDH17Vr12TpK6oZi0JZt62xzhMmTLAdO3aE9cD+KFf4durUKcw1UkH1vUgvPPVu1DPWEzlOQ4cODT2i2FuQOHRJIyZ0GWQXhZYOoMYAVqCmPhdEvcXUqXhvOVvoDSe1LKHHqh68RuzE8evAvipX+Ko3EZ+I6t3oY54CVx/v9KQs/iJTSOujqI6Y6+OhgjheRh/zkPn0plo8XOVb3/pW0ipwwgknJC2z3Nzc8IZb0uQp1o71hpD6mNSeOHFislSUxhbHHn+sXyuEX3755dAG9lW5D7jFHo+ewApjhWk8eKEwji88PVlVI4xhrbpcrAnqwFzqxz5kplir1YE0vXlqn2pSO4aV9r325YUXXhiWRd96iz1DzfUJKLUs4SU+/0RlhFgWKW2Ehh7/kCFDQjgXf4zA/ip3+KroHHsAonDVcLJf/OIX4QkdSwl6sqpHrF5D6tFqHSnu06dPsoRM1r59+zBXMOnNU/tek9oxrIYNGxbmqt/H0QGqrWr/67mguT4B6blQUg86nYo/d2NZpKTg1ZuM3ni0PT6v9Viidu3aJS1g35Q7fEVBG5/E6vnGnlHqi0s9HvV2dIRZT2BRCI8YMYJab5bQJxt9molfCU+lddq/qQe2FLBaFz/tRFrW+tTw8qLnrh6TPn3p+ai5llM7CKLALemxq6ev8pm2o+qL5bLyjnQQlx9T1xNWX09V/YzgzU56AsY319irLYvefFWCUr0/k0a1xBJCcXEYpcL24YcfTtYWiI+9eO8X2B8VGr6RejXFTyOkwNVXQ9Uz+sEPfsCwMrhTgOpTmp6Xqv/GNxCVxuJvjcQxwUBFq5TwBbJBPIBYGvV69U1NPp2hMhC+OKjp2ITGmhc/yKbarw4EE7yoLIQvkE8lCNVyZV9q2EB5Eb4A4KBChpoBAPYP4QsADghfAHBA+AKAA8IXABwQvgDggPAFAAeELwA4IHwBwAHhCwAOCF8AcED4AoADwhcAHBC+AOCA8AUAB4QvADggfAHAAeELAA4IXwBwQPgCgAPCFwAcEL4A4IDwBQAHhC8AOCB8AcAB4QsADghfAHBA+AKAg5xt27blJe20y3t0nNlLz5tt3WJ2UgfLuX2oWZ26yVYAqLrcwjcE7/SpyVKi6RGW8/DkZAEAqi6/soN6vPlyevW2nAcmhLat+9jsnUUFbQCowvzCV6UGOfY4y7upT0Fbtm1NGgBQdWXEAbecGbOTFgAcHBjtsB+mTJkSpkywfPlya9u2beE0c+bMZAuAbJAR4ZvXvUvSymwrVqwIUyZo0aKFTZs2LUwAsg9lhyxVu3Zta9WqVZgAZJ/qgwcPHpK00+t/Hw+znM7/x6z5kV9fziDz58+3t956y9544w3bvHmz5eXlWU5OjjVq1Khw+/Tp0+3ll1+2jz/+2I499lg75JBDCretXr3aPv30U3v00Uft1VdfDdvUc120aJFNnTo1XG/Xrl327W9/O1xHVEbQfai88OSTT4brFb9MNG7cODvrrLOsdevWyRoAmc6955s3bHDGlx1WrlxpixcvtvXr14dJ7Q0bNoRtEydOtD59+ljdunWtZcuWNmfOHLvqqqtsx44dYfvs2bNt9OjRNn78+LB9y5Yt4fJjx461YcOGWZMmTcLlbrjhhiL15IEDB1r+G2O4brNmzaxevXrhMrfffntyCQDZzO9LFqUEbs4d95h9/7RkKbOMGDEizAcNGhTm6tUqSFV3jR//FboDBgywM88803r06BGus3DhQnv88cdDqUC0btKkSfbCCy9Y8+bNwzqFsQJ6yZIlYVkH0Tp37myjRo0qvF68vwkTJljHjh3DOtFl7733XuvWrVuyBkCmc+n55j14f9L6uryHx5pt35YsZbZ3333X2rRpY8uWLQtlAk0qITRo0KDIgbkOHToUBqi0a9cuzGPwyjHHHJO0vtK1a9ci11Pgdu/e3V5//fVkDYBslf7w/ec8s5f+nCyUYN3HljfhN8lCZlu7dm2YqwyROqlEoBJDZdBtq3QBILulPXzzZjyTtMqgcM6C3q96okuXLrWbb745lCJSJ5UcyktBnkolDZUrKivYAaRP+nu+ixYmjb1Y8nbSyFwKX5Udhg4dGkYuaGSC6rLXX3+9bdy4MbnUgVPQqhas29Xt6350f2effXZyCQDZyn20QzZTPXbMmDGhFNCrVy+7+OKLwwExHWxr2LBhcqkDd+edd4YSg25Xt79p06ZwfxVx2wB8pX20Q94tvzRbsTxZKl3OhKfMmjRNljKfSgIay5t6EK08UkcwxF40oQtUHWnv+eb89OqkVYazzs+q4BX1gisqeItT6BK8QNWS/rKDxvAqXEvTspXl9LwqWQCAqsnvNELvLCoY+fD3VwqWFboXXGrW8XROJZRPB9kaN25MjxeoolzP4QYABytGOwCAA8IXABwQvgDggPAFAAeELwA4IHwBwAHhCwAOCF8AcED4AoADwhcAHBC+AOCA8AUAB4QvADggfAHAAeELAA4IXwBwQPgCgAPCFwAcEL4A4IDwBQAHJZ5Ac/PmzUkLAFAe9evXT1pF0fMFAAecOh4AHNDzBQAHhC8AOCB8AcAB4QsADghfAHBA+AKAA8IXABwQvgDggPAFAAeELwA4IHwBwAHhCwAOCF8AcED4AoADwhcAHBC+AOCA8AUAB4QvADggfAHAAeELAA5cTqBZbfsSq7HuIau+9Q3L+eKDsC6vegPbU7e97WrS13Y3OC+sA4CqKu3he8jqu+yQ3PFme75I1nzd7vo/tC9aT0uWAKDqSWvZIQTv2gdC8OYd0sx2NrvJPm8z17af/Kl9ecwDtqf2ieFy1Tf/zWq9e05oA0BVlLaer0oNtd47OwTvnron25dHj7Y9ddomW7/yjY8GWI1PJoa2wnlni/8ObQCoStLW81WNN/R4qzewnUf0LzF45cujRxX2gGtsfC7MM8HMmTNt+fLlydL+03V1GwAgaQtfHVyTPfVO3esBtV1NfxnmOhinHnMmGDhwoC1btiy0Z8+ebT169LCNGzeG5X2h6+o29mbKlClhihTYbdu2LZzK8wYAIHOkLXzjqIY9tVqHeVl2Nb4iaeWH9qfPJq3M0ahRIzvuuOOsVq1ayZqKs2LFijBFp59+uk2bNs0eeij/kwOAKoNxvgfgpJNOsuHDh1vt2rWTNZWnYcOG1qpVK2vRokWyBkBVkLbw1egGqfb5+2Felhrrn0xa+T3lQ3+QtDJHSfXbNWvW2MSJE23EiBFhrpJESXXi4pfbsWNHWD9//vxw+VWrVoWppOsCqDrSFr576nYI8+qb/7rXOm6Ndb8P87yax1reNzKvx1e8frto0SI799xzbcGCBdayZUvbtm2b9e3bt0idOLrlllvCvFmzZjZq1CgbOnRoWF65cqUtXrzY1q9fHya1N2zYELYBqHrSFr47vzUo/95qhhEPNZd1LzWANb632o53QntXwwtKHRWRScaPH2/du3cPYaoDcf369bPrrrsu2VrUPffcY7179w7ThAkTbMaMGaGHq+sNGjTIOnToECa1O3bsmFwLQFWTvp5vfojuatQrtHN2bwoBXH3T82E5qvVOJ6u27fXQ1ljgbBjjqzLC3LlzrWfPnkVqwF26dElaRal+G8VwXb16dZgDOHik9YCbxvDqixOiAK629R+hHcUe7+4G54cvYRwsVKYAcHBJa/jKvvRmNRwtG8oN0rx5c2vTpo3NmjUrWVOAg2UAypL28E2l33mo8/rhhVO26t+/v02aNCmMYNAoBX1JYvDgwclWAPg6l/CNw85KVK2m5dU6NlnIDqrdTp48ObTnzZtnubm5NmbMmLAMACVx+T3fqkZjdYt/4ULjfDt16hRGNDBqAUBxrmWHqkJjdceOHVv4Ww8aATFy5MhQC27fvn1YBwCp3Hq+pdV4s/FnJPUli2HDhtnSpUuTNWadO3cOdV8dkAOA4tzCt/bbbSxn59pkKVGtpn151P1Fflgnm6SOcEgdzwsAxVHzBQAH1HwBwAHhCwAOCF8AcED4AoADwhcAHBC+AOCA8AUAB4QvADggfAHAAeELAA4IXwBwQPgCgAPCFwAcEL4A4IDwBQAHhC8AOCB8AcAB4QsADghfAHBA+AKAgxJPoLl58+akBQAoj/r16yetouj5AoADTh0PAA7o+QKAA8IXABwQvgDggPAFAAeELwA4IHwBwAHhCwAOCF8AcED4AoADwhcAHBC+AOCA8AUAB4QvADggfAHAAeELAA4IXwBwQPgCgAPCFwAcEL4A4IDwBQAH7uH702Xr7Ltvrbb1O3cnawCg6nMNXwXvjE+32/IdO63jojUEMICDhlv4xuCVQ6tXs4+/3E0AAzhouIRvavDe3qKBTf9OUwIYwEEl7eFbPHgHH9nQTq1XK+MDeObMmbZ8+fJkCQDKJ63hO/bjzYXB+59H1A/BG8UAFgXwVcs/Ce1MMXDgQFu2bFmylD4K/B49etiiRYtCu23btoWT3hAAZKe0he/7O3ba0FUbQ7v74XXstuYNQjuVAvi+YxqF9pzPdoSwPtg1btzYjjvuOKtdu7a1aNHCpk2bFiYA2S1t4XvLhxts6+49dsQ3qttdRx1ujQ+pnmwpql9+j/jMw2qHtsL6YK//NmzY0IYPH26tWrUKAay5JgDZLS3h+/ctn4eerCh4W9c+JLRL83irb4b6r8L6/jWbkrWZYfbs2TZixIgwqRQQqSRQvAywcePGsE5ziXVjzXX9sWPHFtaR4+1qXertFr8NAFVDWsL3wf/3WZh/79Cadm6Dgl5tWdQrvujwOqH9eO7WMM8ETzzxhE2dOtXatWtnq1atsl69ehUGperBqgunWr9+fVinuag9ePBgmzdvnrVs2dKWLl1qF198cQjceLtal3q7xW8DQNWQlvBdsPWLMO9Yr2ap5Ybirm5aL8zV+1XPORN06NDBxo0bZ926dQvzzp0726xZs5Kt+0a3oTKCDqKNGjXK2rRpEwJXbd2u5gdyuwCyS1rCV6MXpH3dmmG+L3TwLfrg811Jy5d6pqm6du1qCxcuTJb2TeptqIarMD7yyCNDO67TMoCqLW0H3CL9joOmqkK91r2pU6eghAIAUVrCt1VygG3uZzusfvVq4bcc9lZK+NPGgvHAcsqh+95j9nLUUUeFeeqBsQ0bNoR58+bNwxwAorSE73eS8J3+6Xbr26x+aF/xfm6Zw8iezN0S5hqadniNtHfQ95uGf6l+O3LkyDCCQQfMRo8ebZdffnlyCQD4SlpS7cZvHRbmOnj29rYvwpcsVAc++vWV1vdfn9ht/95QJIjVK47fhPu/jeru80E6T6rVjhkzxjZt2hRGMGjEguq5N998c3IJAPhKzrZt2/KSdqVSyP7hk4JhY/pNh8NqVLcp67faG8lIiKknNLWuDeuE4L3o3XUhqFWueOnEI7IifFPF0oO+IAEAJUlb+Kpne9Y7H4d6r+hbbL2+eahdnj+JQvexdVtCaULBqy9ZTGz1zRDIAFDVpC18RQE8+KNPC3vApdGXMe475vAiw80AoCpJa/hG+pGdUWs22T+2flHYE9aBNY1q6HZ43cLeMABUVS7hCwAHu8wfwwUAVRDhCwAOCF8AcED4AoADwhcAHBC+AOCA8AUAB4QvADggfAHAAeELAA4IXwBwQPgCgAPCFwAcEL4A4IDwBQAHhC8AOCB8AcAB4QsADghfAHBA+AKAgxJPoLl58+akBQAoj/r16yetouj5AoADTh0PAA7o+QKAA8IXABwQvgDggPAFAAeELwA4IHwBwAHhCwAOCF8AcED4AoADwhcAHBC+AOCA8AUAB4QvADggfAHAAeELAA4IXwBwQPgCgAPCFwAcEL4A4IDwBQAHLifQrLZ9idVY95BV3/qG5XzxQViXV72B7anb3nY16Wu7G5wX1gFAVZX28D1k9V12SO54sz1fJGu+bnf9H9oXraclSwBQ9aS17BCCd+0DIXjzDmlmO5vdZJ+3mWvbT/7UvjzmAdtT+8Rwueqb/2a13j0ntAGgKkpbz1elhlrvnR2Cd0/dk+3Lo0fbnjptk61f+cZHA6zGJxNDW+G8s8V/hzYAVCVp6/mqxht6vNUb2M4j+pcYvPLl0aMKe8A1Nj4X5plg5syZtnz58mRp/+m6ug0AkLSFrw6uyZ56p+71gNqupr8Mcx2MU485EwwcONCWLVsW2rNnz7YePXrYxo0bw/K+0HV1G3szZcqUMAGo2tIWvnFUw55arcO8LLsaX5G08kP702eTVuZo1KiRHXfccVarVq1kTcVZsWJFmABUbYzzPQAnnXSSDR8+3GrXrp2sAYD9k7bw1egGqfb5+2Felhrrn0xa+T3lQ3+QtDJHSfXbNWvW2MSJE23EiBFhrpJESXXi4pfbsWNHWD9//vxw+VWrVoWpvDVmAJktbeG7p26HMK+++a97rePWWPf7MM+reazlfaNFaGeS4vXbRYsW2bnnnmsLFiywli1b2rZt26xv375F6sTRLbfcEubNmjWzUaNG2dChQ8PyypUrbfHixbZ+/fowqb1hw4awDUDVk7bw3fmtQfn3VjOMeKi5rHupAazxvdV2vBPauxpeUOqoiEwyfvx46969ewhTHYjr16+fXXfddcnWou655x7r3bt3mCZMmGAzZswIPVxdb9CgQdahQ4cwqd2xY8fkWgCqmvT1fPNDdFejXqGds3tTCODqm54Py1GtdzpZtW2vh7bGAmfDGF+VEebOnWs9e/YsUgPu0qVL0iqqVatWScsKw3X16tVhDuDgkdYDbhrDqy9OiAK42tZ/hHYUe7y7G5wfvoRxsFCZAsDBJa3hK/vSm9VwtGwoN0jz5s2tTZs2NmvWrGRNAQ6WAShL2sM3lX7noc7rhxdO2ap///42adKkMIJBoxT0JYnBgwcnWwHg61zCNw47K1G1mpZX69hkITuodjt58uTQnjdvnuXm5tqYMWPCMgCUxOX3fKsajdUt/oULjfPt1KlTGNHAqAUAxbmWHaoKjdUdO3Zs4W89aATEyJEjQy24ffv2YR0ApHLr+ZZW483Gn5HUlyyGDRtmS5cuTdaYde7cOdR9dUAOAIpzC9/ab7exnJ1rk6VEtZr25VH3F/lhnWySOsIhdTwvABRHzRcAHFDzBQAHhC8AOCB8AcAB4QsADghfAHBA+AKAA8IXABwQvgDggPAFAAeELwA4IHwBwAHhCwAOCF8AcED4AoADwhcAHBC+AOCA8AUAB4QvADggfAHAAeELAA5KPIHm5s2bkxYAoDzq16+ftIqi5wsADjh1PAA4oOcLAA4IXwBwQPgCgAPCFwAcEL4A4IDwBQAHhC8AOCB8AcAB4QsADghfAHBA+AKAA8IXABwQvgDggPAFAAeELwA4IHwBwAHhCwAOCF8AcED4AoADwhcAHLieQDPv0XFmLz1vtnWL2UkdLOf2oWZ16iZbAaDqcgvfELzTpyZLiaZHWM7Dk5MFAKi6/MoO6vHmy+nV23IemBDatu5js3cWFbQBoArzC1+VGuTY4yzvpj4Fbdm2NWkAQNWVEQfccmbMTloAcHBgtAMAOMiI8M3r3iVpAcDBgbIDADjwG2qW9HZz7rjH7PunfW05Ey1atMjmzp1rW7ZssXbt2lmHDh1s4cKFdvrpp1vDhg3DZdasWWN/+ctfbO3atdasWTO76KKL7LXXXrPjjz/eWrVqFS6zY8cOe+6552zFihVWr149O/fcc23Dhg1hW8eOHcNcZs+ebfPnzw/tLl26WKNGjWzZsmXWrVu3sA5A9nIP3+IyNXynTJlid999t3Xv3t1OO+00mzdvnv3rX/+ypUuX2rRp00KwKpx79eplnTt3tjPPPNNyc3NDWOsy9957bwjNjRs3Wt++fcNtnn/++WH+5z//OcwV5oMGDQrt22+/3WbMmGHXXnutNWnSxObMmWPr168Pt7VkyZJwGQDZiwNu+0CBqeAdMGCADR8+PISo5grZVOPHjw/hPGrUKOvRo4f169fPrrvuumRrgenTp4f5mDFjrHfv3mFSW6Eaqber4J0wYUK4Dd2WbrNx48bJJQBkO5fwzXvw/qT1dXkPjzXbvi1ZygxvvfVWmPfs2TPMI5ULIpUb1MvVZWrXrp2sLSgXpFIv99JLL7XmzZsnayy0L7/88mTJ7PXXXw8hnlqC0G127do1WQKQ7dIfvv+cZ/ZSwcfsEq372PIm/CZZAICqKe3hmzfjmaRVBoVzBvV+W7duHeYvv/xymEc6+BWp99qmTRubNWtWsqbA8uXLk1YBlSqeeeaZcNAtUlsH7qITTzwxlB2KX3fx4sVJC0C2qz548OAhSTs9fn1v0ihbzgkn5ifakcmSr/r164eP/UOHDg3zOKJBAfnJJ5+EUoNGIhx55JF2zz332GeffRYmlSvGjh0bLnPWWWeFEFdIv/DCC/bqq69aXl6evf/++3bXXXeF+zniiCOsU6dOYZTEunXrQkjrMh9++KE99thjoS6s27r++uvD5QFkLw647SMdGNOIBQ0h00iHunXr2h133JFsLaAa7eTJBb/KpstotIMOpqVS+Gqdesm6jHqzuh2NdIgU8L/61a/CaAgFuC6jERZXXnllcgkA2S7tQ83ybvml2YqiH6dLkjPhKbMmTZMlfyoNpB5IE41K6NOnj73yyithnG9Jl9FICfVmNXIhHkAr6XLqzZ5yyikh5KWky0ycONEWLFhg48aNS9YAyFZp7/nm/PTqpFWGs87PqOBVgF511VU2c+bMEIqiMb2jR48OoxTiFyxUllCZQZcXlSdGjhwZernt27cP6zReWJeL9VxdVqGqkRJnnHFGWKfb1v3FL1joPvWFCw03Y8QDUDW4fMkiDDUrbcRDy1aWM2hoRoWvKHgHDhyYLBVQ8N58882FPVSF5rBhw4qM2dUBtsGDBxcOLVMg/+Y3vwn14kjh3L9//yI940ceeSSMG0515513hjG/ALKf2zfc9KPpYeTD318pWFboXnCpWcfTM/ZUQgrF1atXh3adOnUKA7W41FEK8SvFxSmEt2/fHtotWrT4WolB1CvWt9pEX7CIPWwA2c8vfAHgIMZoBwBwQPgCgAPCFwAcEL4A4IDwBQAHhC8AOCB8AcAB4QsADghfAHBA+AKAA8IXABwQvgDggPAFAAeELwA4IHwBwAHhCwAOCF8AcED4AoADwhcAHBC+AOCA8AUAB4QvADggfAHAAeELAA4IXwBwQPgCgAPCFwAcEL4A4IDwBQAHhC8AOCB8AcAB4QsADghfAHBA+AKAA8IXABwQvgDggPAFAAeELwA4IHwBwAHhCwAOCF8AcED4AoADwhcAHBC+AOCA8AUAB4QvADggfAHAAeELAA4IXwBwQPgCgAPCFwAcEL4A4IDwBQAHhC8AOCB8AcAB4QsADghfAHBA+AKAA8IXABwQvgDggPAFAAeELwA4IHwBwAHhCwAOCF8AcED4AoADwhcAHBC+AOCA8AUAB4QvADggfAHAAeELAA4IXwBwQPgCgAPCFwAcEL4A4IDwBQAHhC8AOCB8AcAB4QsADghfAHBA+AKAA8IXABwQvgDggPAFAAeELwA4IHwBwAHhCwAOCF8AcED4AoADwhcAHBC+AOCA8AUAB4QvADggfAHAAeELAA4IXwBwQPgCgAPCFwAcEL4A4IDwBQAHhC8AOCB8AcAB4QsADghfAHBA+AKAA8IXABwQvgDggPAFAAeELwA4IHwBwAHhCwAOCF8AcED4AoADwhcAHBC+AOCA8AUAB4QvADggfAHAAeELAA4IXwBwQPgCgAPCFwAcEL4A4IDwBQAHhC8AOCB8AcAB4QsADghfAHBA+AKAA8IXABwQvgDggPAFAAeELwA4IHwBwAHhCwAOCF8AcED4AoADwhcAHBC+AOCA8AUAB4QvADggfAHAAeELAA4IXwBwQPgCgAPCFwAcEL4A4IDwBQAHhC8AOCB8AcAB4QsADghfAHBA+AKAA8IXABwQvgDggPAFAAeELwA4IHwBwAHhCwAOCF8AcED4AoADwhcAHBC+AOCA8AUAB4QvADggfAHAAeELAA4IXwBwQPgCgAPCFwAcEL4A4IDwBQAHhC8AOCB8AcAB4QsADghfAHBA+AKAA8IXABwQvgDggPAFAAeELwA4IHwBwAHhCwAOCF8AcED4AoADwhcAHBC+AOCA8AUAB4QvADggfAHAAeELAA4IXwBwQPgCgAPCFwAcEL4A4IDwBQAHhC8AOCB8AcAB4QsADghfAHBA+AKAA8IXABwQvgDggPAFAAeELwA4IHwBwAHhCwAOCF8AcED4AoADwhcAHBC+AOCA8AUABzm5ubl5SRsAkCb0fAHAAeELAA4IXwBwQPgCgAPCFwAcEL4A4IDwBQAHhC8AOCB8AcAB4QsADghfAHBA+AKAA8IXABwQvgDggJ+UBHDg8nZbtS83Ws7OzZaza5vl7P4if92uZKOznBqWV72m5dWoa3mH1Lc932iYv656stEf4Qtgv+Xs2m7VPl+bP+Uma7LDnlpN8qdm+YFcJ1njh/AFsF+qb/vIqu34OFnKTntqH2G76x6dLPkgfAHsE/V2q29dEcoLVYHKEbsPbenWC+aAG4C9ytm5xWp8trTKBK/osYTHlP/YPBC+AMqkHm+Nzcsy50BaRcp/THpseozpRvgCKJNKDZkSvAOHP2zrP/0sWaog+Y8tPMY0y+rwfe+99+zss8+2Jk2aHPD0zDPPJLcGoDgdXMuUUoNC93d/eM5mz1uYrKk4eox6rOmU1eF7ww032Ntvv50sHZjrr78+hDiyy5tvvmn33XdfsoTKEIaTZciohpVrcu1/xk8J7XGPz7DXF70f2hVJjzWd5YesHu2gnqs8//zz9h//8R+hnaq825GZtm/fbtdcc429+OKLNnfuXDvhhBOSLahI1bd+kBHjeCdOed76DxmXLH2l54U/slF3Xmt1atdK1pSfxgHvPvTYZKlyUfNF1pk6dWoIXhk6dGiYo4Lpm2tpCt6pM+dYwzbdi0zXDfp1stWsd4/z7O0XJ1jfn10Qls/54cn24lP/Y78dcXOFBq+Ex5z/2NOB8EVWWbVqld16663JkoUQpm5f8fSV4cqUetDsjUXLk9ZXnvrjX237js9DW5c9qnkTu/6qC8PypT/ubCef1Dq0K0NlP/aI8EVWiXXeHj162JAhQ0JbdfsNGzaENiqGfquhsihMf9L3Lrvsurvtz7P/aR+uKqgrjx5yvc3740OhLbNenm8PTZxmrc64wv42/+0QwOr9djmtQ3KJylGZjz0V4Yusodr8lCkFB1369etnV199dRjtIqNHjw5zVIzKHOHwv/m92rfe+Zf95W+vW6//HBbmcuxRR9h3Wn31ld9f3jba7hw5MbSHjHo89ITvvf0aa3z4YWFdZUnX6I6DInzPO++8wqFlqROyh3q2o0aNCm31eHWQrU6dOjZgwICw7uGHH7ZXXnkltFF+4dfJKsG7yz8qDNRbr7vMvnviceHAmWq6P+zYPqxf88YUu/vW3mGb5qKwfvq5OaFd2SrrsRdHzxdZYcKECWFYoXq6l112WbLWwiiVGMB33313GAmBClBJX6p4fOpfwlwHzW7uc4nNnjo6HDh7+bU3rctP+oeDbXePedJ+0fP8sO2G3hcXBrBGPMRasQ7IxZpwhUvTF0oOivDVx9Xc3NyvTcgOGtMbe73XXnutNWrUKLSjPn36WPv27UM4P/bYY8laZBqFZfMjGoe2Sg0D7h4f1sWhZOrdir5I0bv//aGtbbGnrB7yJxs2hd6zDsg98tSfw/psRc8XGU092Ri86uF+73vfC+1UCuPY+1VJgi/NVICcGkmj4mhYmHqyv7+/f1hWgMoTSW9Y61V+EIWzQnbZv1aFZZUohub3gOcvfNdOu/CGsE6hXCk94Ep47CUhfJHR4phe9Wx79eoV6rwlUV1fIyCEsb/lpzNAZJLNW7bnh3fNMOY3jojQ6IiK/pKFpOuxE77IWKljevv27WtHHnlkaJfmv/7rv8Kcsb/lp9+6rWjqoQ5/aFIYxSAaNrZ9xxd25U/OCcta3/7sPqGtEsPRLZra8ccV7PNYitDXjDUiQte94KxTKzx4pTIee0kIX2Ss8ePHh7l6tF27dg3tsiicR44cGdoa+8vBtwOnc55VNAWlerCiA2533nJFGDZ22QVnhl6sRjdILDHo8urpxgNuues3hblU5pCzynjsJSF8kZF0kFTDx0RjeksrNxT3k5/8pHDs7z333BPm2H/hZJOV4Kqkl6uarkY16IsWOvCmXqxGN2xcOiOMgtBYYI180Jcs4gE39ZD1RYvKVlmPvTh+WCdfadvhQz3WCy+8sNy/WCfs2wNXWT+skxqoqaY/OjSM9VXoFqee8sTRt1VKmSEVP6yzj3QQRvb2JYq9bd/XXhXS46GHHqqQ4BXVgSk/HBid5bcy/PTCH4USg+q2k39zRwhW+WDlx2GEQ6RtseSg33Wo7OCVynrMJcnqnq+GFJX3N33HjRtnl156abIEIFVlnalYB85iCUFnp9ABteL0TTcFrr5YoZEOld7rTfMZjTl7MYAy1di0uFJ/70A/KRlHQEQa7aBvvqWLRjjsatAuWUoPwhdAmcIJND9bmp9QVfAEmpJTw3Yd1ibtp5BntAOAMimUdtU/PoRUlaPgzX9s6Q5eIXwB7FXeIfWS3mF6voCQDqHUoMeU/9g8UHYAsF8q6yBcOqX74FpJCF8A+y2c2fjztRlxgs39oXG8Gk7mUWYojvAFcOB0os0vN4ZT72hERPgh8kw5MJdTI/xIjsoL+spw+OZaTvVkoz/CFwAccMANABwQvgDggPAFAAeELwA4IHwBwAHhCwAO0hq++gnI1GnDhg3JlgOj65d2rq5XXnkl3Ee66e8p7+OqivSbujon24Hal+uWdZny3Df2Tqf313Nf8/LSc+VgeA2lNXw7d+5sTz75ZOHUs2dPe/zxx5Ot+++TTz4J5+oqic5gsGTJkmQpffT36O9CUToL8c9//vNkae/0Qk59Y9Up48t6M9W21NPK7+/1ceD0m9g6vX9ubm6Y67RPe6N9MXjw4GSp4Kwycf/86U9/stGji/7EZFWU9rKDzqsVpz/+8Y+2YMGCcgUwssMf/vCH8ALTJ5ID8e6779oJJ5yQLH2dtukypdnb9XHghgwZEs63p47HpEmT9il8y6KTpaYGc1WV1m+46cWnd8dU+njxne98J7w4GjVqFD4eTp482TZv3mwdOnSwhQsX2rXXXhu26fQyWt+8eXO7+uqrbeXKlaE3rXdeXa5+/frhzBY6LZB2npYl3lbqGSvUK9J15JJLLik8z5c+8jz22GO2Zs2acD/Srl0769SpU7jN1q1b2/vvvx+26clW/O/Vurlz5/JCT6HA1ScRnc5J89QTW6b+/+J+1fZ///vfYfsxxxwTlvW/1/Pgr3/9a9gfcX+pt6R1F1xwQTjbcbxsadfXGY710fjZZ58N21OfF/HvlNTnBMqmE5YOGDAg7N/iSnqdqbOlTteyZcvs+9//ftim8NZZqi+77LKw/MEHH9hVV11V2DFbu3ZteI6k7hfte3Xg4msvZoX2sa6n16kyoFevXmFdpnE/4KZQ1c7TR3UFsT6a6txsV1xxRQhq7ZRt27aFQKxXr15YX7du3SI1oUMPPTSs105QQEcvvfRSuG1tmzNnTuGO1FzLWq+dqfN8xVrVbbfdFubaduyxx4Z39XXr1oV18W/Rth/96Ecl/r34uqeffjq8MPXR/5///Gfhviv+/9Obs9apffrpp4dJbYn/e+0TfbSN9OLTOm3TZaSs62s/P/roo2G/a5ueBwpd3W9cp/nixYvD9bB39913X9gnl19+eQjbeM48vc5WrFhR+D/V60z/Z712unXrZscff3zYFveR1rVp0ya83hScormCWidU1XNIk96wdTvqeJWUFdqfuo7Wa3t8I840GTHaIYbW7Nmz7eKLLw7/YPUc1YuMpwHXC+y1114L/0jtpNR3snh5/bNTX5h33nlneJfUtrvuustuvfXWsF5zLWu9tuty6gnpnXTjxo3hfrVNt6vwTaUnjrZpKuvvRQG9UNTD0ScHfSLR/2vmzJlhW/H/n3qg2q9qK4g1qZ1KtyMKUb0A9QarF2Gqsq6v/XzmmWcWnjRVbfV21QnQC1W9aFGvC/tGr6EXX3wx9Dr1ZhY/2eh1Fl8P+n+fddZZYZ9rH+sTyWGHHRb2T9xHWqf9UJz2kS6jfX/NNdfYP/7xj3A7em2mvva0/0S3o+ecLnfiiScWPmcyjXv4xiJ73AHq1aZq2LDgHPr6J2vn6uOIDtTpRb03qbdVu3btpFUgdfmb3/ymffbZZ6Ed7y8q/vcUV9rfiwLPPfdcOMFpDEO9YFT/jfb2/y2JngcKUYV437599/vs03qz18HYeEBWzy156qmnwt+oN3CVsrB/FHL3339/6IHG3q9er/F/3bJlS2vbtm1YXxFKe+4o3OMnYH2yOtDjDJXNNXz1T1GNVj1P0Y7RCzMGq3o3U6ZMCW1dVh9b9Q6n3pLe1fZGHy/jk0BlC71riuZaFm3XyAu9ux511FHhHTPuLPWsUoOiuOJ/r64X/14U/G+nTZtmb7zxRgi8OCng9L8q/v/TG3HcX2XRi1zlC123S5cuydp9o9rgli1bwkEd9bT1iUrPK93v0qVLw7oHH3zwa594UDK9RvVGFfdb7EzpDTG+3vQ/1dS0adPCTlZ5xeeO7l/3rRJHPIu5/gYFsz69KFtiHT/TpD18Yw9Ik2qBqhfFjwXaMerJ6MWg7fGgiKgOpI8TOpKq8sO+vuhUK9Jt6YWlHpPo4IsOqGm9blMHevRi1BNGf8/dd98dtt14441hXhr9vT/72c8K/95M3cledOBRdb3iBztUHtK+1/9PLw71TvT/Gzp0aDiIui/0PNGbcEkfU8uiEGjWrFnY77pP9XL1JqtJf5PqlvpkRc9332gf6rUU/5+q68bXrV5nOgim9fH1sS9vrvtC96vXqjpYCvnUXrDuQ88pZYVey6o3Z6KM/T1f/QNL+jhZ2vqyHMht7e/9HMjfha94/P9Kuk/244Er7X9XWf9TfWKKb+y6D70B6JhQvK9M35f8mDqArKPSgkqW+vSjXrXKW+ecc05WHSglfAFkJZWKNOpBVANWKSKbEL4A4CAjxvkCwMGG8AUAB4QvADggfAHAAeELAA4IXwBwQPgCgAPCFwAcEL4A4IDwBQAHhC8ApJ3Z/wftf8cnkF2QBwAAAABJRU5ErkJggg==;imageBorder=none;strokeWidth=2;movable=1;resizable=1;rotatable=1;deletable=1;editable=1;locked=0;connectable=1;" parent="1" vertex="1">
          <mxGeometry x="310" y="113" width="351" height="635" as="geometry" />
        </mxCell>
        <mxCell id="myNyhjmuBwBBh0yOWU_x-6" value="" style="shape=image;aspect=fixed;image=data:image/png,iVBORw0KGgoAAAANSUhEUgAAAV4AAAJ5CAYAAADmalgJAAAAAXNSR0IArs4c6QAAAARnQU1BAACxjwv8YQUAAAAJcEhZcwAADsMAAA7DAcdvqGQAAEaYSURBVHhe7d0JlBzFge776EX7jnaBEEK7EIhVEgKM2Az2sIMv5o4xAwZz7oiZg318Zzxz5tjYz3Meb2Zs/B4w52Jz4TIMqwdkdmRWIRAIYSShBUloAQmQ0L62Wt2t7ldfVEYrlcrauquiqrr+v3OyMzIyqzqzlq+iIqOqqu64444WAwDwpjqYAwA8IXgBwDOCFwA8I3gBwDOCFwA8I3gBwDOCFwA8I3gBwDOCFwA8I3gBwDOCFwA8I3gBwDOCFwA8I3gBwLO8fy3khg0bzBdffGE2b95s1q1bF9Qac8opp5jhw4fbqVOnTkEtAFSevAXvpk2bzPz58w8L21QuueQSM378+GAJACpLXoJ3yZIl5vXXX7flQYMGmVNPPdUMHDjQ9O/f39bt37/fbNy40Xz66afmk08+sXUTJkww559/Pq1fABWn3cEbDt1zzjnHTJw40XTr1s0ux1m7dq157rnnbHnkyJHmiiuusGWUl927d5vGxkZbdi+wvukFXdI93oB8+e1vf2vn3/3ud82QIUNsua1qpk2bdmdQzpm6F55//nlbVvfBSSedZFuwekIuWrTIPPXUU+b99983u3btsi3hLl26mH79+tlwXrhwodm5c6fdftiwYfY6UPr0wvnyyy+bd955x3z88cd20n2s+1HvcmpqaoItczNnzhzz+eefmz179pjBgwcHtanrt23bZh588EHz5z//2YwZM8Z07949WAMUhh7nMmnSJNOzZ09bbqt2jWpQn65MnTrVjBo1ypbljTfeMHPnzg2WjO1e0JPEtVB69+5tLr/8clvWdmo9ofStWLHCvlvRidMo3Y+639tKL8Satm/fHtQkparfsmVLUDL2hR0oJ20OXo1e0Ik0tWRPOOGE1r5a1bt+XDXJb7vtNtulIGoFO8cff7zt55Vly5bZOUrbRx99ZOe6z3Xf3nDDDXauESuidzK+6IVeL/iaNFIGKCdtDl4NGROFqlqwzr59++xcoap+EPW/jRs3ztZFW7Z6iyiu5YzSpfvOtXR18lT3rfp2NT/33HNtCPsMQL3Qn3nmmXZyL/pAuWhzH69aP+qjPe2002y/raPuBLV4t27dao477jjb5/fBBx/YbdVKCT85u3btavvoRK0l9QGjNFVXV5sFCxbY8sGDB82IESMOC7y4Plb19S9fvtx2UaxcudJ8+eWX9vHQp08fu15hrn4z9eHqfIE0NzfbbgXVparX4yp82aOOOso+dvRuS++qXN3SpUvtSBot19fXmwEDBtjrCgtfRpP2b/369Xaftaz/5WhfdDJZ3Srq696xY4c9bvqXK0M++3jbPKoh3Rm+2bNnt3Y3OHp7eumllx7WOpZ8nilEYUXvV41iOfroo2PvNwXjCy+8ENsfrK4JtZJ1guyRRx4JarOXeMwedlm1ttX6Vli+8sortk6Pt+j/1v6qoeDoRT98LiKO/pcodJ944glbjrrmmmvo7uhAXCblKpcMK8hHhjU+Vw9yPfhF/XAXX3zxEaGL8qK39a6/XhRaCqNnn322tWUqaum60NVjQCdSFY4XXHCBXa+TZQpJtZgVwq6PWLS9q0tVny39P03ucaj9VWCLWroudLVe22lkTvj4wtRiF61X0OqY1J3mutSAXLS5q+Hrr7+23Qc6SRbuahC9XdMQsRNPPNEkrt+2BuLejqlbwnU1TJkyha6GEqf7R91Fal2qu0H3v2iut/Vq/aobQW/R3Ym46667zgaT7n8NB1PY6q28WsSnn366fSuvyb2NGzt2rG0Np6sXPXY0lE0mT55sr1/dW6tXr7Z1V199td1W/7Nv376tLXU9LtXloOvV9qJ9PPbYY229jk/17tj0+BUdk15c9FjXpy51TOpuURDTx9yx6D6Pm9xjUS3bCy+88Ij1uXQ/tLnF61oRCuC2cg98XReD4MuDQkbBow++3HzzzfbdjONakGpNOmrdaiyum9xJ2bguiHwKf6gjrhvABbFa0OF3Yjo+NSai3BhijeTR0MjHHnvMBn9TU5OtB3LR5uA95phj7FwjEtR6cfSkUytWbz/VV+Km9957z56QcJ92EtcqotVQnhRY6n5w4aswDT8WxI3DdVM23+VRivRiE+6K0LHqhWbWrFmt49OBbLU5eNWKcA9CPaH0Nkxh+/TTT9sHZPQJpoDW4Pv77rvP9u8phN02GgeM0qcX1GiwSvQtlkYUODNnzrQnqOKmYnJ9xXrsho9JZY1ciKNuCNfSd/3VCmB1QwC5aNfJNdfS0YNXJ1ncByr0oNTJFPek0wNVJyNcUOvMs/u+Bp2E46Rb6XMjAHTSTC+cOkmlSWUXVLrvdV+OHj3aLos+zeZahJrrnU+4K6JY3NhyUdeB6wpJNRJDxz9v3jwbzNFjBHLVruDVCQb3yi8KVg0Z00k19bG57gM9UNVvptZC+Ky0zgjr+x1Q+lyfvkJJL5wayqVJZRdUehEV9de7j4SrL/X++++33U2a652P3hXFtZx9ij52XVdIXOjqBUYvOlqvkHbH4ug7KoBctOtLckQnHXr06GFbuzoTrEHyCtzOnTu3jlJQS0ddETor6FpHCuDp06czkqFMaLSCPmmoPnp3UtTRC6jO8mpUg6Oz/xpVoE8yuhECohdn9ZWGT36JO2M8dOjQ1pELkqo+06gGnWUOc9ejlqr7IIUeuzomHZv2R2WNnNCoHDc8Ttej6447dr0Y6VgYTlYZ2jJ6IRXvX4SuB6s+cqr+Mk6olScFkGux6t1MpvtRIVlXV2cDrJRGr7hugyidq9DjWC8oGn8e5o5dxxx3WSAbeQteR/130Z/+UdiqNaQTcmq5MHQMxabwVH+uHpfq73UvHqtWrWr97hC1ZvmlFBRC3oMXKAfuZGEqau3yCykolHadXAPKlb6zQS1ad9IwTCcJCV0UEi1eVDx1O7gP9mTTZw20Fy1eVDyFrUY1hIdAAoVE8AKAZwQvAHhG8AKAZwQvAHhG8AKAZwQvAHhG8AKAZwQvAHhG8AKAZwQvAHhG8AKAZwQvAHhG8AKAZwQvAHhG8AKAZwQvAHhG8AKAZwQvAHhG8AKAZwQvAHhG8AKAZwQvAHhG8AKAZwQvAHhG8AKAZwQvAHhG8AKAZwQvAHhWvOBdssiYF2YZM+tJY95505imxmAFAHRsxQlehe7qlcY0NiSXt2w25vXZyTIAdHDFCd7P1yXnEyYZc/7FyXLdPmO2bUmWAaADK07wupZu337GvBFq6TbS3QCg4yv+ybWrrgsKAFAZih+8ZWLlypV2KgU7duwwDz30UOu0du3aYA2AclD84NWohjKwc+dOO5WCXr16mSuvvNJOAMoPXQ1lqLa21vTr189OAMoPXQ0ZbNy40b6V37Nnj51U1lt9R+sXLlxo5s+fb7simpqagjXJdZq2bNli12vSsqjOXW7Dhg22znH/Q9u6y0W3AVC+ihu8780t+a6G3bt325Csq6uzk8r19fV23dKlS80rr7xiOnXqZPr27WvD8aWXXmoN3/Xr15sFCxaYxYsX2/UNDQ12ewXue++9Z7p37263e+211w7rP54zZ46ZO3euvWyPHj1M586d7TaqA1D+aPFmMG7cODN16lQzePBgO6k8dOhQ2xpVMKqfddKkSXa7GTNm2DBds2ZNcOkk1Wv9OeecYyZOnGgWLVpkzj///NbrPvnkk828efOCrZN0Pd/+9rftdZ9yyinmkksuMatXr25tMQMoX/6D96MPgkKMxR+VzUeHt23bZvr372+7BNQ1oEkt3C5duhx2Ek5hrT5ZZ+DAgXbes2dPO5c+ffoEpUOOP/74wy6nsB89erTZtGlTUAOgXPkN3k1fHfrUWhx9eu3jhcFCadu3L7GvCep6CE/qFlC3QiHoutVdAaC8+Q1efT9DJgrmMmj1Dhs2zLZ6TzvtNNtdEJ7UhdBeCvEw9RsvX768YKEOwB+/wasvw8nG1tL/zga99VdXg06SKSTdKASdBDtw4ECwVdspZHUSTter69f/0f877rjjgi0AlCtOrrWR+l91gkxv/1944QXzxz/+0Y5YGD58uO3nba/p06fbbgVdr65fYa7/l4/rBlBcVXfccUdLUC68N/9kzM5DY2BTuvgyndYPFkqfugE0xCx8wqw99DHgc889155gc61nAhfoOPy2ePU1kJmMGFlWoStq/eYrdKMUuIQu0LH4Dd4hw5LBmoq+JnJ8FuEMAGXMb1eDoy88X73KmK++SC4rcEeNNWbY0YnmY6dkXQXTCTV9gIKWLtAxFSd4AaCCMaoBADwjeAHAM4IXADwjeAHAM4IXADwjeAHAM4IXADwjeAHAM4IXADwjeAHAM4IXADwjeAHAM4IXADwjeAHAM4IXADwjeAHAM4IXADwjeAHAM4IXADwjeAHAsyN+7LKhoSEoAQDao3PnzkHpcLR4AcAzft4dADyjxQsAnhG8AOAZwQsAnhG8AOAZwQsAnhG8AOAZwQsAnhG8AOAZwQsAnhG8AOAZwQsAnhG8AOAZwQsAnhG8AOAZwQsAnhG8AOAZwQsAnhG8AOAZwQsAnhG8AOCZ9x+7rGraaqr3fWSqG7825uDOoLKraek00DR3n2yau4xM1gFAB+W1xVuzd56p3faUqa5feSh0paXeVDVsMDU7XzC1O/4YVAJAx+QteBW61fv+nCgdTPzXHqa5x2mmqf/1pnHw35iDvS8wLbUD7HYK4Nrtf7BlAOiIvARvsnthkS23dBpimvpdbg72nN4ats3dJtoQbu52ol2uatxkgxoAOiIvwas+XdvSreqaaOme3hq4UQd7z2hdV12/xs5Lwdq1a82OHTuCpdzpsroOABA/wasTaQktnYdlPHmmE2zWwZ22pVwK5syZ0xq8GzZsMM8995w5cOCAXc6GLqvryGTlypV2chTWDz30UOvUnvAHUDr89PEGJ9JaavvZeTrqdnCq61cFpdLRtWtX069fP1NTUxPU5M/OnTvt5Bx99NHmyiuvNBdeeGFQA6Aj8HZyraMYOHCgOeecc0xtbW1QUzhdunSxId+zZ8+gBkBH4Cd4q3vYWVVT5rfK1fuXByWdiBsalEpHXH/t3r17zdKlS838+fPtXN0Qcf3C0e2ampps/caNG+32e/bssVPcZQF0HF6Ct6XTYDuvOvB5xn7b6rrFyUJNX9NS0ytZLiHR/totW7aYP/zhD2bTpk2mb9++prGx0cyePfuwfmHnjTfesPMePXqYBQsWmPfee88u7969215PXV2dnVSur6+36wB0PF6C92DPqYm/6hM9aGq3z0oZvhq/69Y1dx2VcvRDKVm8eLEZPXq0mTFjhhk3bpw55ZRT7BRHXRSTJk2y0yWXXGJWr15tw1mXmzp1qhk8eLCdVB46tPRa+wDyw0+LNxGgrSfNWupt+FYfWJdcDtRue9yO3xWN9dU431KnrgONchg/fvxhfb7Dhw8PSodTf63jglXXAaCyeDu5pjG6+rSapY8IN25MlgOupdvS5fjEtufZciVQ1wSAyuIteCWbVqyGnJVDF4NotEH//v2PONnGiTEA6XgN3jB9b0Onr+9pncrVGWecYZYvX25HKiiA9QGIuXPnBmsB4Ej+gzcYWhavxrTU9A3K5UF9tZdeeqktf/nll3ZUwvnnn2+XASCO9+/j7Wg0Fjf6YQqN433sscfsyAVGJwCIKlpXQ0ehsbgLFy5s/e4GjVL44IMPbN+vPuUGAFFFafGm6tPVqIdyGEYWpg87KHy3bdsW1CSHk02bNo2P+gKIVZzg3fJgImX3BUtOTXLIWehLcspJeCRDeLwuAETRxwsAntHHCwCeEbwA4BnBCwCeEbwA4BnBCwCeEbwA4BnBCwCeEbwA4BnBCwCeEbwA4BnBCwCeEbwA4BnBCwCeEbwA4BnBCwCeEbwA4BnBCwCeEbwA4BnBCwCeEbwA4NkRP3bZ0NAQlAAA7dG5c+egdDhavADgGT/vDgCe0eIFAM8IXgDwjOAFAM8IXgDwjOAFAM8IXgDwjOAFAM8IXgDwjOAFAM8IXgDwjOAFAM8IXgDwrGbatGl3BuWS09LC9/cAyE1VVVVQKl0l1eJV0IYnAMhVOeRIyQRvrjdQ9MZt6wTAn7jnYFumXOS6vQ9F72qI3iileCMBKE/RbodS6YYoavC6kCV8AeRbqtAthfAtSleDgjUuXFPVA0CuSjlnvLd4owfslsP1xb5RAJS/cMs2VWu3WK1fr7+5lip0JRrAI0eONKNHjza1tbV2GQAyaWpqMqtXrzbr1q2zy3GBWwrhW9TgfWHHPrO9odlc27+76RI69uuuu86cffbZwRIA5Oadd94xTz75ZLCUDNe4EJZiBG/RhpO9uKPOrKlrNDuaDprHtu419UEmX3TRRYQugHZRhihLwqINv2IqSvCqpbu6rsGWO1dXmX1NzebxLXvN/uYWc+aZZ9p6AGiPcJZEuzWLHcLeg9e2dPc32vLUXl3N5f26J8P3YLN5ItHyHThwoF0HAO0RlyWl0ur1ErzuFUahuzoUulN6djZDO9eYy2z4GtvyBYB8ySZoXT75VPDgdQe0cF9Da+ie3KNLIni72LLWJ8O3h10GgELIFK4+w7egwesOZEeiJfv+nnpbHt2tkzmjZ5cjDlLhe3bvrsESABRGuoD1Fb4FCV7tfPgA3ty13zQ0t5geNVVmeiJ0u1UfOXxD20/u0TlYAoD8SBWm0ZxyUtXnU96DN7rDXzUcNBsONNnyWb26mr61h/5loQ8OAMJyyZxC5lNegzduRxfuO2DngzvXmBFdkp9CS3VABDGAfGpv1hQqkwraxysbEy1eGdq5NraLQQhcAIVUahmTt+BNdWAanyuDQl0MEt2e8AVQCJmyJlP2FCKb8hK8mXcsuf6RzXvtFFaIgwKAqHSBmymH8p1TBe9q6Be0dDc0NJlOiaK+m8F1P0QRwgDyKZdA9Zk/7Q7edDurdUcpbRP0MWE3XOzlHXX2exkcnwcMoPJEMyZV5mTKs3xpV/Bms5Ondu+SWDB2HO+WxmYzqmut7ff931/vMa/t3G/e2V1v6hPr8nlQAOCEsyWbnMkm19qr3S3eTPSJtAndky3dRXvrTf/aGnNOn25mUKIlvKKuwSzed8Bsakx2PaTqggCAjqTNwZvLq4I+CtwvEbjyQSJ819U3mJN6dDEzh/Y2fz2kt+lSVWXe2FVvXtqxz24DAPmWKrPi6nPJt7bIe4s3bqc0fle/MjGhW6Llm1j9xYGD5rUddea+jbvMv2/cbWZt22tW7m+w3REAkC8uj8K5FFcXJ9P69ih4V4PoALomwveCPl3N9wb1MuO7dTJ9gxawdK+uNsd3rTXn9+kW1ABA/kXDNNsQzrc2BW+qnYyrj9b1rakyF/btZv5yYA/bzfA/hvQyNw7qab6ZCN2xiUAGgHzKNlyzyS8n03Vl4qXFm632HgwAhJVqphQ0eNO9WhCyAIohXf74yqWcg7etOxy33tX5OlgAlSld1mTKn1Tr25NbBWvx5rpT2r49BwIAUW3JFR855KWPl0AFUMp8Z1RegjeXnda24e0JZQA+RHMnl+zJd04VpMWbzU6250YAgGxF8yWbrCl0HhW8qyGXAy70wQKoLLlkjs/8ySl4CcZ4dXV1ZtWqVWb79u1BTXraTtvrcuUo1+MFOqq2ZqKXk2vl4JZbbjE/+clPgqXcfPHFF+Zb3/qWmTt3blCTnrbT9rpcKs8++6wZNWpU2knhVwy5Hi+Aw7U7eKOJn8srgLYNT8WiAHvzzTfNrFmz0oZhMVx11VXmxhtvjJ26d+8ebAUglbbmTHTbXC6bSUFbvHE7ms+dz5c5c+YEJWNefvnloFQafvjDH5qf/exnsdMxxxwTbAUgV8XMp6J0NZRS+Kqf8q677rIty/POO8+Wy7XvFUB2ip1BJdXHW4wbw/VTXn311eayyy6z5Xnz5tl5HHVLPP744+aXv/yl+f3vf5+xn1XXpe20vS5XyBNS0f+Vat/0wvLaa6+Zu+++226r/uRU+5Xr8QKlpJQaeWFVd9xxR9Z7FncQ0brwctw6N0WX3aQnt086qbZlyxYbLvX19eaMM86wLd8HHngg2OIQBdsNN9wQLB2i/taHH37Y/OY3vzFXXHFFUGvssagFHTZp0iQzZswY25+sbo2xY8cGaw6nMPzxj3+cdhtHQaquB11n1COPPGKmT58eLCVPjM2cOdMsXbo0qEnSft13332HdV/kerxAqbn11ltNVVXVEZNEl53wcrp1TlxdJt5avArVUrNo0SJ7Uu3SSy+1J6qOOuooc/vtt9u6aMtOywohBdTTTz9t1qxZY5YsWWLDRyEUpeB0XRjqQ9b2CxYsMDNmzIgNyFR+97vf2dZm3OT827/9m71O7Yv2yf0v/W/tszsWBbRCVxTI2k6T69fWOtfNkuvxAuWqGNnktash1QEWK5QVsKKhUY5auxI+4SYvvviinf/rv/6rOfnkk21ZYa0Wn8Io6sEHH7ShpYB0rUgF+49+9CPbYsyWAlVBFzeJAlLln/70p3Zf3EgH/a9//Md/tGV3LK+++qpt6f793//9Ya1gtahVp3V6MZJcjxcoZaWWPUXr49UBu6kY1Kd577332lZh+O21QibuJJu2VX3c2/4JEyYEpSSFoULMtaSjJk+eHJQyU2vUtUyjk3zyySd2LmplhyfXf71x40Y7X7x4sZ2rayW67bJly1rXSS7HC5SDYmdOWEmdXPNp9uzZdr5z584j3sK78FELMezYY48NSodLNaxr0KBBQelwI0aMCEr5oxcK9QlHpzhx20X7oiXX4wWQnYod1fDEE0/YroC4cDnttNPs/Pnnn7dzUetPb+nDrWDH9aE6AwYMsPNUn+wKt1Lba+DAgXZ+//33x7aKNenEmwwdOtTOXZ9z3OROluVyvECpKoXWbZwjgrehoaFdU2NjY2w5bl14cnU+6Gy96woIfyAhPLmTbK7P0w01e/TRR+3cUTD953/+Z7CUpP5V9eOqf1b/K0yjChT6+aKuEb2A3HPPPUd86k7L4ZA899xz7fy3v/3tEYGq/QzX5XK8QKkKZ0t4CueQK0eXo+vaMqVSM23atDuDsnXw4MGgVBzqcy20hx56yPZ3/vM//7Pp3bt3UHu4bt26maeeesp2F5x55pm2Zbxp0yY7zExn9/VKunDhQvPv//7vraMCLr74YjN+/Hhb1ncpfPjhh7YlumvXLtuloRawQs8N5fre975n+vfvb8tRK1eutN0h6baRTp062a4L/R/9v71799rAdf9L3SVqxWo7XY/6nHUMK1asMPv27TNr1661+/8P//APNlRdOOd6vEAp+uMf/2iHe0UniZbDcwmXnWzrnJqamqB0OG/jeFV2y64cN8WNn80nhZLCRQGvYVjpaIyvWr0amqVWrIJJl3EjCkQt2wsvvNAOvdLZfvdWXfS/7rzzztbRE/KrX/3Kzv/pn/7JBlg+xvGKWuY6IRb+XzpGfeQ4enldt0ZduBcAUQtfx6LjdHI9XqDU6DmsYEw1SbgsqcoSXZa4ukwqLnjzQYGkUFVfbjioUtEIiq1bt9qTUnGjHPLJ/a9s9k3HoGPJtF+5Hi9QKgjeRNktu3LcVA7BC6A8lGrwVuxwMgAoFoIXADwjeAHAM4IXADwjeAHAM4IXADwjeAHAM4IXADwrmeBtyyBkAMikFLOFFi8AeEbwAoBnBC8AeEbwAoBnBC8AeEbwAoBnBC8AeEbwAoBnBC8AeOY9eKuatpma3W+aTtufMp22PJCY/rfptO1RU7PzFVPdsCHYCgA6Lq/BW7NvvqndPstUH/jUmIO7gtqElgOmqvGrRCC/HlQAQMflLXgVutX7FiVKBxP/tbtp7j7ZNB11tWkc+ANzsOfZpqWWX68FUBm8BG9V09ZE6H5syy2dBpumvt82B3tMMS01ybBt7jrWHOx3ZWI+3i4DQEfmJ3hdS7eqS6Kle0pr4EYd7DktKAFAx+UleKsbN9t5S+ehprnLCFsGgErlp4+3OXkiraW2r50DQCXzdnINAJDkJ3iruidnTTvtHAAqmZfg1UgGqTqwwX6AAgAqmZfgbe55euJvTWI6aGp3PG+qDm639VG1O18MSgDQcflp8dYOMM3dgjG6LQds+FY3fJ5cDtTs+GOiNbwlWAKAjsvbybWDvc4xzT1OTi7Yjwh/nSwHqpriW8EA0NF4C1452GNqUAKAyuU1eMOq6xYf+nayrQ8GtQDQ8fkP3urk0LJ4RXsdAABvvCdd44AbTOPAHyamWxPTLfbbyRoH3GyaBt6cmH8/2AoAOi6amADgWVGCt9OW3yWm3x/Wx1u75UFTU/fnYAsA6LiK0+KN7eetNi3VvYMyAHRcRQnexv7fi+nj/SvT3HVMsAUAdFz08QKAZwQvAHhG8AKAZwSvZ3v27DHz58+3cwCVqeqOO+5oCcoZtbQcuWm0LrwcLbtlVw5P0tzcbB544AFbLqQnn3zSvPHGG8HS4W6++WYzdWrhvlPiq6++Mr/4xS/Mz3/+czNs2LCgNilu3W233WbnUddcc40588wzTa9evYIaAFG33HKLqa5Oti+rqqqOmML1TqqyRJclri6Tim3xTps2zQZcdJo4cWKwRelQyIb38a//+q/NqlWrzD333GO2beOL5YFyU7HB2717d9uqjE6l2ILs06fPYfs4efJkc+utt5qhQ4ea+++/3xw4cCDYEkA5oI83jRUrVpjnnnvOdk28/fbbRwSc+mlVr/Xabt26dcGaQ9R94K5Dfbv5CskuXbqYa6+91nz++ed2PwGUj4oN3rq6OhuK0ckF45/+9Cdz9913m65du9qW5ccff2x+/etft67XW3y91Vf9cccdZ+vuuusuG66OAlF9ttpW2yxfvtw8/vjjwdr2U+tcXSYEL1BeKjZ433//fRuK0UkhqSB7+umnbX/qN7/5TfONb3zDvrXv3bt3a7AqQEeNGmVuv/12ezLu8ssvt32vDz74oA1ntYYV3Oqfvemmm+w2mk+aNMlePl/UZQKgvHByLTL179/frF+/3owYMcJs2LDBBq2mRYsWmR49epiNGzfaUF2yZInp1q1b63pNu3btstet8P7yyy9tWSMPws4666yglB9quQMoL5xci0zqO92xY4fd5rPPPjts0mXU7eDG4Cpgw+sVyueff769DhfCnTt3tnOnZ8+eQan91DWilvv48cEPiQIoC5xci6Eg00mrK6+80lx33XWHTep2UECrRayuhuh6TWo1jx492l5X9IRb3Am4tlB3xuzZs82JJ55I8AJlhuCNoSBTsD722GM2KNWyVL/vvffe29raveCCC8yjjz5quxjciTmNXtAoB1H4qvX7zDPP2Mu669ByrtSaDndp6H/oRJ9a2Ndff71tYQMoHzXTpk27MygXnT7BppNUhbZs2TI7T3Wiq7a21n6QQn28jzzyiJkzZ459S3/RRReZsWPH2m2OOeYYM2jQIPP666+bZ5991m6jERAKW3fCa8yYMWbz5s32RJzWKyjPPvts2z88Y8aMI8YMK9S1XXjdCy+8YMN/4cKFrZOcccYZ5jvf+Q6fXAPSUGPIfbJM8+gUrndSlSW6LHF1mVTkR4Zzobf0e/futS3YVNTXq77bVC3PbK4DQP7xkeEypTDNFJhan+7tfjbXAaByELwA4BnBCwCeEbwA4NkRJ9caGhqC0pHcSbCwuDpx9enmcdPDDz9s1wNAe91444325FfcJJnmUXH1qbaV6AeoHFq8AOAZw8kAdFgMJwMAWAQvAHhG8AKAZwQvAHhG8AKAZwQvAHhG8AKAZwQvAHhG8AKAZwQvAHhG8AKAZwQvAHhWcV+S89BDDwUlAMV20003BaXCKNUvyeHbyQB0WHw7GQDAIngBwDOCFwA8I3gBwDOCFwA8I3gBwLPiBe/yJcb86SVjXnrWmA/mGdPUGKwAgI6tOMGr0F23OhG2DcnlbVuNeeetZBkAOrjiBO+Gz5PzMROMOee8ZHl/nTE7tifLANCBFSd4G4NuhT59jJn7ZrIsdDcAqADFP7n27SuCAgBUhuIHLwBUmOIHr0Y1ePbVV18dMR04cCBY2z66rhUrVgRLAHCkiuxq+MUvfmHmzp172LR3795gbfts2LDBLF68OFg6RIH85JNPBksAKlnFdjVcd911h039+/cP1gBAYdVMmzbtzqDsz6pPkvOvvjDm05XJckLL0KPN5df/92CpcF544QVz2WWXBUuHmz9/vnn33XfNsmXLTI8ePUy/fv1s/bZt28xrr71mFi1aZFuvxxxzjKmtrbXr3GXWrl1r9u3bZ5qamsykSZPsOnn77bfNggULzPr16+1lGxoazJIlS8yoUaPsenVzPP3002bMmDF2ruuI2wdt98Ybb5gPP/zQ/q8BAwaY7t2723UAjvTcc8+1fl+u5tEpXO+kKkt0WeLqMqnYFq/e9ocnUUB+/fXX5pxzzjFTpkwxjz/+uNmzZ4+dVB47dqxdJ3PmzLFzXWb58uW2/sQTTzRLly619WEnnHCCOfXUU83QoUPtdi5gdb2iMFe4dunSxQaruz63D+vWrbPbPfbYY6ZPnz523YgRI+w6AOXHf/Au/nNQiLH8yNAqFIVXeJJHH33UhqcoBNVqVQhqOvbYY03v3r3tOhecostce+21ZtiwYWbkyJHm6quvtvVh6sYYOHCgbZ1qu169eplrrrnGLFy40K5Xa/i0006zZYle3wcffGBbymoJDx8+3G6j6xPVAygvfoN38yZj1gefWoujT695omALT87mzZvtCTJNgwcPbg26/fv3t9Zrm5tvvtnWS+fOnYNSMrCzoaB955137AgIhWi4jznd9bl90HTGGWfYEAdQXvwG75pPg0JpOv/88+186tSpdtLbeoWywnfLli1m4sSJtn706NF2El3GdTuoD/att7L7zgkFrfp4n3nmmdYWtxO9vuOOO85uv3v3brsv2oeTTz7ZDBo0iOAFypDf4N26JSiUpiuvvNJ89tln5rbbbrOThoUp/BS+F154obnnnnts/f3332+DWFS/atUqW//rX//a1mVr/Pjxtt833OKWHTt22Ov727/9Wxu4Clm1fFWnoHbr1OoFUH78/srwc8l+UdUmlpLzxJ/kVi2mOVF44Iuv7VIxKWxTdRmkWpfuMqnopN7kyZNtADsK1Z///Oc2jPP5v4BKxK8MS9++QaG0pQu1VOtyDUKdFFOrORy6Ufn6XwBKi9/gHTcxKECt1rgREDppR78t0LH5Dd5BQ4w5dkSwEENfE1khNFQs2rcrOnFG8AIdm9/glcmnGXPWN4wZEgodBe5JpxozZXpQAQAdl//glX79jTltqjHfvjL5JTnTzzXm6OHG1CQ/ggsAHVlxghcAKhjBCwCeEbwA4FnFBe+zzz5rP6qbbtI28stf/jJ2vSatE31qTcuap/OTn/yk9Xolen2aNNh73rx5wRaHrjvV5P5n3Dpdl771LJW7777bbhOWy20TLkdF14Uv76bo/mV7rEBH4PeTa8GyK4cnaW5uNg888IAtF8r27dvN1q1bgyVjfve739n5D3/4QzsXfc/tUUcdZcNV348QXufom8b0nbwKhG9961vmvPPOS7nv+h5ffSLtN7/5jbniiuQvbihMfvrTn5pzzz3XLsuLL75o7r33XvvNZ/qYsLtufURZ344Wpf+v/Uh3XS+//LL9Ossw3Qb6gh1x/0tyuW30P8PHExZdl83+ZXusQC745FqJUGjoie4mfdWjpnCdtnGi69ykIAh78803Y1uAdXV19jse4uhLbsLX+aMf/cgGuK4rTEEU3s5N4SCKuy755JPgS+dD9FNH+srL6P/K9bbJRbb7l82xAuWOPt48ufHGG82DDz5oW41h+r5e99252VDwuC9ILxTt56WXXmq++93v2lZndJ+BbOidnD5pmW7S7xvq11twOII3A3U16G1wdFJLNkwhpoB9+OGHg5pkv+Vdd91lbr/99qAmvS+++MJeXl+0HqafDIr+f22bioL097//vS1PmDDBzh31IetXMvS2fvr05AdW1AL2Kd3+5XqsKB59M1/0PEGYfiVFj/3wd00jieDNYNasWTakolNcGPzd3/2dbUEqLER9pGoJuz7UqOeff972I7tp5syZ5qqrrjqi31T9w9H/r1Zr2I9//GPbl6pJ/bf6XblHHnnEvk0PUytF/8P1marvVftRaNnuXzbHitKhF++48CV00yN4M1Bwrlmz5ogpGhiiOj3Y/uVf/sX29yq0s23tyt/8zd/YAI72Z+oEVPT//+xnPwvWJilA3c8RaZ/1/12L1lFLUy3q8Jfz6ISX+nnTjYDIh2z2T7I5VpSWaPgSupkRvHmmUNHXPaqFpzP76U5G6ZeOFSpu0lu3tp5E0skrtazVilS4xp3omz17tp3ry9RdK/uJJ56wdfo11nyIdsE42ewfypcLX0I3OwRvnilo1XLVgy9uqFWh6Qnwq1/9ygZ/uBWrQFTI6oVBPzWkL2B3k/ZVYZjLSTZdj7oookH76quv2nn4xzvDUu0fyp/uW32JP6GbGcGbgU72qHUWncIfdIhSy9UNl8oH/QZb3D6kCsrrr7/eBqOeBK4vWiGnk2o606wXhPCkflVxLeJs6GSiuijUUtdtoX5t/dy8AlXdCtHhdmFx++fkeqxAOSJ4M1C4KEyik05S+aKREXH7EP6wQ5Q+KadRFnfeeadtlap7wZ1Ui3In2dQiTtVVEKX+bPXH7ty509xwww32JJgur9bsrbfeGmyVWnT/nLYcK1BuKu6Ta8g/BadapOlauUAx8Mk1dFhqMRO6QPYIXgDwjOAFAM8IXgDwjOAFAM8IXgDwjOAFAM8IXgDwjOAFAM8IXgDwjOAFAM8IXgDwrOK+JOehhx4KSgCK7aabbgpKhVGqX5LDt5MB6LD4djIAgEXwAoBnBC8AeEbwAoBnBC8AeEbwAoBnBC8AeEbwAoBnBC8AeEbwAoBnBC8AeEbwAoBnBC8AeEbwAoBnBC8AeEbwAoBnBC8AeEbwAoBnBC8AeEbwAoBnBC8AeEbwAoBnBC8AeEbwAoBnBC8AeEbwAoBnBC8AeEbwAoBnBC8AeEbwAoBnBC8AeEbwAoBnBC8AeEbwAoBnBC8AeEbwAoBnBC8AeEbwAoBnBC8AeEbwAoBnBC8q25LfGvPMlEPTvDuMqd8SrCwS7YP2pdS8dVPy9sqGuy1TKdVj9ITgRWVSuD453pgFPzPmqBOMGTI9Oa35gzEv/UWwEVrtXGHMyv9jzKJ/DSrQHgQvKtPbtxnTsMeY/77GmBkPGTM90ZLT9J1FifndwUZotfx/GdN9mDF1Xxnz+fNBJdqK4EXlUett3SxjTv6fxnQdGFQGtDzkrGAhQSHzwoWH3jrrrbbecosru7fN2m7Tu8l1TrgrQ9u6bgzN3eU0ZfsWvlj0TmDCrcYcfUGi5Zt4oYoKH+eqh4PKkOjtWOEIXlSeXZ8m52P+MjlPRQHyyuXGdO6d7IbYvjTZNbF9WXL9ns+Sb79Vr/UNu4156VuHwlUBE+7K+Po9Yz765+Q6dWdseCVZr0nblWog6XZQS3fSTGPG3pB80dKLl6MXlPBxLvy/D18fdzuueDBYWZkIXlSuaGs3SgEy8ipjvvlMshvi0teM6Ts+WBnoOy5Zr/XfftGYxj3GfPpoMnyX/L/GnPHLQ10ZV8xNzhVECia3rOnse0o3jJbel7wddHuNvTHZ5aCuB9Fx6sUnepxh2dyOFYbgReXpclRyHu0WiNq50phxQbeCoxZbWKdEK85xQa6W8NfvJ8snhlqxbv3WhcmAfniQMfdXJac3/ypZV2r0ArFlgTE9j012F2jqNyHZ9SCpjjMcrNncjhWG4EXlUR/uwDMSb+1/FFREuK6CTr0SofPnZNlp2BUUMkgX7p37Jq/7kueOnErNov8nua+b5hnz5/8rOalLRV0ParmnOs7GxDZOe27HDorgRWXSyAW15tzJINea+9PVxjw2Khm+42825uPfJOtFJ5DWPp0sZ+LCfc4PkqGk6/vwzuR1qK9UdJJq8LTk9OXrybpSo+M96cfGXP3B4ZNOsq165PDj1O2p41Sfr1q5TtztqO6JCkbwojIpMBQgOuGjt/k6+aNp7xfGXPBo8u2y+iOPvyZZr+4AjWEdlAjqbKnPV10Rz56d7Fb45PeJFmK/5HV/++XE2/T5yXpNeuvuWo+lQgGp7g/3QhGmk2x6sVDYuuN8ckLyWHTyUX3fTtztqOCuYFV33HFHS1DOqKXlyE2jdeHlaNktu3J4kubmZvPAAw/YMuCVWqXhYWRRCpi2nhBSK7B+W/zlXbeG6/8tZ9kcS3tuxza45ZZbTHV1sn1ZVVV1xBSud1KVJboscXWZ0OIFJF3oSnvCInqyKUzrOkLoSjbH4jF0SxnBCwCeEbwA4BnBCwCeEbwA4BnBCwCeEbwA4BnBCwCeEbwA4FnJBK/79BoA5FMpZgstXgDwjOAFAM+KGrz6conoF0xs3rw5KAFA20WzJC5viqVowRu+AdwNomnu3LlBLQC0nbIknC1OuFwsJdHVEO78fumll8ycOXOCJQDInTJEWeKU2gm2on0fr5unmkaNGmXGjh1ramtrW7cNc8vh+lRlJ64OQHHFtUBTtVBdOXoZt9zU1GRWrVpl1qxZY+tSTRKeu7KkKkt0WeLqMvEavG4eLYfr9GXo0fWpyuFlN4+rc8JliS4DKLx0YebK4XmquuhyXDnVl6CH61zZSVWW6LLE1WVS9OCVuLDNtBwuh5fj5hIuS3QZgD/pAs2V4+ZuCi+Hy+mWwyHs5uGyk6os0WWJq8ukZIJX3Lq4bbKtl/ByuN6JqwPgV7oQ0zy83i2H17t5pnpXR/BG6sNTtC68nG1ZwvXhOYDS48IrOheVw/XZluOWXZ2El6P1Trgs0WWJq8ukKMEbnbspvJyqHF5287iypCoDKC3pgs8tR8tuHq1PVw4vx80lVVmiyxJXl0nJBG+mspunq3fl8NyJLgMoHakCLjxPVZeqPlM5bi6pyhJdlri6TIoevKJyeHLCfb9unqqcbg6gfLggSzdPVRbXlytufXg7ceXoXFKVJboscXWZlMQHKMLiDjo8T1fONAEoPXHP1bgpvG1cOTyXcLnUlEyL183dFF525eg8Wifp6gCUrrjQTFUXXZ9qXXTZidbFrZNwWaLLEleXSUkGryu7eVxddO7KTqZlAKUjU8Bp2dWlm2dTJ3HbOanKEl2WuLpMvAevqBy3Llzf3nlYXB2A0pIu1Nozj9ZJuF6yKUt0WeLqMvEWvOKWs5m7soSXo/VxcwmXAZSXuPCLziVcF60Pr8tm7oSX061z4uoyKYmTa27HsznguG3C82jZLQMobdHnbLQcnktcnWSzTbGVRItX4tZlWu9kUwZQHuKCU9IFanRdpvVxcyduWye6LHF1mZR08IbnonJ0OSzdOgDlI9vwUzlu21RzSbdO4rZ1ossSV5dJQYNXUoWhK6er0zy8XuK2iYqrA1Be0oVcdO5oOd026eokXJZMyxJXl0m7g1ei9eHlVOuic0m1LryNxNVHt0klbru23HAActOe5154O1eOXjZaH7ddunUSt60TXXZS1adT9JNrcQeaau6E66Nlt5xKeLtstgeQH7k+96LbRcth0fq47aKXKaacWrwS96oVrQsvZ7Mu1Tap5mHhurj1AMpbpvCMhmx07sTVp9pG0q1z4uqyUfDglVTL4fpM5VTrnbi6sEzr23oDAsisvc+/TKHnynF1kmlbyXVZ4uqyUZCuhmx3JtV24XpXjtZFL+vqwlNY3PrwBKBw4p5z4Sks2/WOK8fVRaWqj8p2u7bKS4tXovXh5bjLxK3P9jrSbQegY4qGYaqgTbVdum0km+uISlWfiZeTa9nuXLqDVdkth8vilsMTgPKV7jkdXo5bFxZdTiXb7fKlYC1eSddKlVTrM20r2WwDoPzFhWI2ARuuS1V2clkflqo+k5yDV1IFXKZwzBSWqcphma4DQMfU1kBMVXaidZmWnVT12Sho8Eq0LtM22WwvqerjpNu2PTcegNzk67mYbRiGl+Muk257J65OUtVno6R/+kfSHXR4Sie6bXgC4E/cc9BN6WSzbbQ+1XaloE0tXsmlJRqty/ay2V4OQOXKFLjtCepsL5urooxqyPZgtByuc8vRegCVI1UORJcluuxku12h5L3FK3Hrsq1zct0+Kpdtfd/oQCUq1HMybtt0l892+1yvIxdtbvH6OLDoelcXty4qum26CUDhxT33Uk3ppNs2ri4sbl22dU66ddlqc4tXcm2xSlx9Nq+EubxaAqgs2YRhLgFb6OBtVx9vW3Yurl51mQ7GbZPNtgA6tlzyINU2qS6X7voy/a9stavF6+Sr5evku3Ubvb583XgA2q7Qz8u2BGhbLtMWBR/VkO4A27KuLdz15ft6AbRdoZ6X6a4v0zpf8hK8mXY43fpM69wEAKlkkxVtXSeZ1ucqby3e9uy41mVz+bgJQOWIywBN6WTaJpvL51te+nidbPpms+2/zXc/L4DKkW1YZrNdIYI3r3282R5ELttlsy0A5JIZuWxXCHlt8Tq5tFbb27LNZ8u4UDcyUMlK6Tmay+ULmQcFGdWgHc52p3PZNo67fD4mAPkX91xr69RWuVy+vf8rGwUdTpbLzruDLfQBA6gMbckUX/lT0OCVthxI+AbzdUMAKG/tzQ2fWVOQPt5UCjlSoS3X7fOGBpBUas/VYuRAwVu8YTrAQh2ku+5cJgD+xT0XM02FUMjrzsRr8DrFPGAAla0U8qcoweu4G4AQBlBIpZY1RQ3esPANUyo3DoDyVOp54vXkWr7l42QdIQ/4w3M2qWRavG0RfkVr6wTAn7jnYK5TR1DWwQsA5YjgBQDPCF4A8IzgBQDPCF4A8IzgBQDPCF4A8IzgBQDPCF4A8IzgBQDPCF4A8IzgBQDPCF4A8IzgBQDPCF4A8IzgBQDPCF4A8IzgBQDPCF4A8IzgBQDPCF4A8IzgBQDPCF4A8IzgBQDPCF4A8IzgBQDPCF4A8IzgBQDPCF4A8IzgBQDPCF4A8IzgBQDPCF4A8IzgBQDPCF4A8IzgBQDPCF4A8IzgBQDPCF4A8IzgBQDPCF4A8IzgBQDPCF4A8IzgBQDPCF4A8IzgBQDPCF4A8IzgBQDPCF4A8IzgBQDPCF4A8IzgBQDPCF4A8IzgBQDPCF4A8IzgBQDPCF4A8IzgBQDPCF4A8IzgBQDPCF4A8IzgBQDPCF4A8IzgBQDPCF4A8IzgBQDPCF4A8Kxq5syZLUEZAOABLV4A8IzgBQDPCF4A8IzgBQDPCF4A8IzgBQDPCF4A8IzgBQDPCF4A8IzgBQDPCF4A8IzgBQDPCF4A8IzgBQDP+FpIAG3UYqoO1puq5gZjmhtNVcvBRFVzsK7IqqpNS1VNomnZybRUdzYtNV1VmVxXAmjxAshJVUuTqW7cZWr2bzLVDTtNVVNdInwbSyd0JbEv2iftm/bR7mtin7XvpYDgBZC16sbdprp+iw20cmNDOLHvOoZiI3gBZGRbuQe2JsJrX1BTvnQM9liK2PoleAGkpT7c6gPbkt0JHYSOJXlMDUGNXwQvgJRsS7dhR2n13+ZL4ph0bMVo+RK8AFKqathZMqE75/3Fpq7+QLCUJzoJp2P0rGyHk23fvt28/vrrZvPmzUFN7i666CIzduzYYAlAmE5ClUqfrgL3gcdeNBefe7oZN+rYoDZ/Wmp7mOZOvYOlwivbFm97Q1deffVVG+AoL19//bX54IMPgiUUgt5+l0ro7t5bZxYsWmHLC5etMZu25P85q2P12eVQti3e++67z86vvfZaM3jwYFsOa+96lKampiYze/Zs89lnn5nrr7/eHHXUUcEa5JMd81oCQ8aWrFxn3nx3YbB0yPjRx5rzpp9sOtXWBjXt11LbPdHq7RMsFRZ9vCgrK1eutKEr7733np0j31q8he7KNevN//fgM4dNf3r7w2CtMSeOG2n+6r9dYiZPHGWXjxs+xPy3y2aYb37j9LyGriSP2U87lOBF2dizZ4956623giVjA3jVqlXBEvJFHwMupPAJsk1bdgSlQ1asXm8aE+9sRNv27tndnDJpjF0ed/wxZsjAwr3LKfSxOwQvysb8+fPtfNy4ceass86yZfXT19f7ebJUikKObVWQPveneea5V+eZtes3ml17kv3I5511ivnLqy6wZVn7+Vfmo6Wf2hNqG77abMNXrd7hRxe2W9DXuF6CF2Vh3bp1tptBTj31VDNp0iRz3HHH2eUFCxbYOfKkgB+UUGt289Yd5rMNm8wLr71n59K3Vw/Tv9+h/tXZcz4073ywxJbf/XCZbQGfO22y6d61i60rGE8fEqmZMmXKnUG5rLgn28SJE03Pnj1tOcytX758uS1HJyfV5VE61KJVF8O+fftsS3fkyJGmurra9OnTx96/GuUwbNgw07u3v+FAHVl1057E3/z3dW7bscu8+Pr7tjzl5PGJMD1ohg8bZC698EwzqH9fW3/qiWNM1y6dTf2BRtu9sP7LzWZfXb3plWjxDh7Qz25TSPr+spbawucBLV6UvI8//tgOHVQLd/z48UGtsaNRzjjjDFvWiTaNeEAeFOgDE0tXJk+K6gTZaSeNNd+9/Dx7kuzzL782Tzz3pj2xNi/Ruj1x/Ei77tRE8J495UR7GY1scH3DOvnm+oDzztOHRTp88Gq42MyZM4+YUB7UmnXvUCZPnmy6dtX3qh5y0kknmUGDBtlgXrp0aVCLUqOgVKtV1L3w5rxFts4NF1P3gyxevsa8/GZyjLbWue4GDR/bv7/etprVXbFkxTpbX65o8aJkqQX74YfJoUVq2Q4ZMsSWwxTEp59+ui2/++67fCAmH6ryHwsa+qUWrD55JgpPWRa0glWvYWOiYFbAbt+R/PpGdUuo5fvV5u3m0Vmv2zoFckFavgU49jgEL0qWG7OrFu2ECRNMbYpxm+rz1UgHYWxv+9lfbighBxoaE8FdY8f0upEPGgWR7w9QiK9jJ3hRksJjdtXF0KtXL1tOZerUqXbO2N48qO4UFPJHLdP3P1puRyuIhobp5NoJ45IjU1T/f556xZbVrdC7Vw9zVL/kyVLX/aCPDmvkgy47asSwvIeuVYBjj0PwoiQtWrTIztWSPf744205HQXzjBkzbFljeznR1nb6jbJ8U0iq5So6uTb99BPs0LDxo4bb1uugYMSC61bQ9mrhupNrdfsPfeiikMPKCnHscQhelByN2dVIBtGY3VRdDFEKaTe2ly6Htkv+MGT+TQpat+rD1egFfYhCJ9nUetUohr+9+Wo72kH9vxrhoA9QuJNrahnrQxSFVqhjj+JLcviSnJKiluqsWbPa/c1zwn3bdoX6kpxwmIZddcnZdkyvAjdKLeRvnTelMF0LIT6/JKdsg/cPf/hDXp6cfMNVadHXPYY/4NIeOil31VVXZd1ixiH2lyfqtwRL+eM+Mjx00FE2aJeuXGdbwOpuGJaoc6MW9KGKnbv32pB2oVxozV0HmpYqP48VvgidL0IHYhXqi9B1ksx1G+hXJXTyLOp/fP9y28JVUGtEQ+Fbu36/CL1sgxdA4dlf4y3g9xfoayHdSAdHoxr0iTZfWqo7meYuA4IlPwheACnZLocD2xLp1AF/7FKqqhOh299bF4PDqAYAKSmQmjv3swHV4Sh0E8fmO3SF4AWQlsa22lahpw8X+JDsXtAx+Rm3G0XwAsjItny7DLAnocqdPZGmYylCS9cheAFkTWf+7bCr2sJ/mCHf7DjdxL77HL2QCsELICe29dupjznYbYhp7tzXBprthiilfuDEvmifbNgm9tHua2Kfi9nKDWNUAwB4RosXADwjeAHAM4IXADwjeAHAM4IXADwjeAHAM2/Bq69xDE/19fXBmrbR5VP9ttYXX3xh/4dv2p/2HldHpC8312+otVU2l023TXv+NzLTT/Drsa95e+mxUgnPIW/B+/jjj5tly5a1Ts8//7ydt1VdXZ39ba04+umYrVu3Bkv+aH+0Xzicfi34lVeSP2SYDT2Jwy+q//Ef/5H2hVTrtI2T6+XRdvptPP0Evx73mr/22mvBmtR0X8ydOzdYSv4ajLt/1q5dm7cvwi9lXrsazjnnnNZJvwywcePGdoUvysPy5ctN9+7d7TuRtvjBD36Q9ldCtE7bpJLp8mi7d99911x88cXm5JNPNn/xF39hfyOvPfTDpmeeeWaw1HHVTJky5c6gXFB6FUv8r2ApkfjV1WbYsGH297VOOukk+/Mseku4ePFi+6p34MAB+4TVE6ampsa+mqp+x44dZsCAAXb90qVLTd++fe12epuj39fS9a5fv96+Zfnyyy9br6t///7Bf062iHQZbde1a1fTs2dPW6/L6EcWP/30U/t/Nm3aZOt69+5tX6H37t1rW29aN2TIkCP2V/MTTzzRdOvWzV4fkt0+ug3Hjx9v34mMGDEiWJPsAnC3n7tf9UTWC7JaQLpPtb1+uFKPg9WrV5uWlpbW+0vb6P7o0aOH+eijj+y2up9SXb5Lly62buHChfa+Dz8utJ/al+hjAul9/vnn9rbq1y/5K8Hhx37c80wNLT2/9I5U95HW6T5pbGw0nTt3ts8xPW/1s03adsuWLfYn+/UYCd8vuuySJUtan3suK3Qf63J6XOh69dxVXakp6sk13ZD6VVi9TVG/jt6ODhw40Jxwwgm2TiGoO0QBqztF9Z06dTL79+8PrsHYZdXrxteTz9EDQk86rdOd61rWmmtZ9frZn7ffftveQfLWW2/Zudb16dPHhoDrOnD7onXHHnts7P7iSCtWrDAjR460L1R6IXP9d9HbTy1i3a8qH3300XZSWdxtr/tEL8COglh1Wud+lTjd5XU/68mq+13r9DhQ4Gpfnn32WVundcXopipX3/jGN+x98uKLL9qg1Yus6Hm2c+fO1ttUzzPdznrujBo1yga11rn7SHV64dXzSKEqmutFdPTo0fYx9F//9V/2xVrXo67LuKzQ/anLqF7rd+3aZa+r1BR9VIMLLD0JxowZY29gvXLprYv7qW49ufQqqBtRd1CvXr1svbjtdUOH+4b0dkUtYK07++yzW0NVcy2rXuu1nR4wupMV3vq/WqfrPeuss+xlHD1otE5Tuv1Fkp4kaskec8wx9h2Nbq81a5K/rxW9/fTk1P2qskJYk8phuh5RgOrJpxfX4cOH2zon3eV1P+s+1Iu1qKxWuBoAamFpn8SFATLTc+g73/mOmTx5sr393M/q63nm3t3o9lZZ63Uf6/msVqjuH3cfqU73Q5R7zum+1ztjhaquR8/N8HNP95/oevSY03YKcveYKTVFDV73yuZufPeEcNxbBN3AumMVvDoppyd0JuHriv7KbHhZT1AFrkTfkkT3JyrV/iJJIasfI9XJE016B6G3hE6m2zeOHgcKUF23yrn+grBe6NWida1aPbbksssus48Ftd50wgi5UcDNmDHDtjxdq1fPV3dbq0tQQZgvqR47CvYLLrjAlvWOqq3nFQqtaMGrG0S/Euw60nWn6EnpQlWtGvXTiLbVW1W9sqmVpFezTPSW0j0A1FWhV0vRXMui9XpLpFdV9QXpldLdUWpRhUMiKrq/upzbXyRvW/Xlff/73zczZ85snRRuuq2it59ehN39lY6e4Oqy0GV1v+VCrbOGhgZ7AkctbLWO9LjS/1U4qE5PWr1AIDM9R/Ui5e63bdu22bleDN3zTbepprh3IG3lHjv6/+457H5tXI8jhbLetShb9I6mFHkNXtfy0aS+P/UPubcCulPUgtHQH61Xq8ZRK+X++++3Q1XU5ZDtE04n7nRdelIptEV3hp7sqtd16hVST0Q9WLQ/equkdXpR0IMlFe3vxIkTW/e3VO/gYtmwYYPtxwt3C4luM933uv10X6hVottPt/vu3buDrdLT40QvwHFvTdNRAOhEnO53/U+1btWvrEn7pH5KvaPSz/4jM52Y1HPJ3Z7qx73iiivsOt23CkbVu+dHNi+s2dBjR89VNa5mz559WOtX/bx6TCkr9JjSfV6KSvL7eHUHxb2FTFWfTluuK9f/05b9wiHFuP3i/if3Y9uluu0KdZsq8N2Luv6Hwv+2225r/V+lfl/yRegAyoq6E/SOVO969K5UXVo6sV1OJ0UJXgBlR+dg3CgU9fnmq//Yl6IPJwOAXKl/3524K7fQFYIXADwjeAHAM4IXADwjeAHAM4IXADwjeAHAM4IXADwjeAHAM4IXALwy5v8HABkMtPUBy8wAAAAASUVORK5CYII=;imageBorder=none;strokeWidth=2;movable=1;resizable=1;rotatable=1;deletable=1;editable=1;locked=0;connectable=1;" parent="1" vertex="1">
          <mxGeometry x="310" y="840" width="350" height="633" as="geometry" />
        </mxCell>
        <mxCell id="myNyhjmuBwBBh0yOWU_x-9" value="" style="endArrow=classic;html=1;rounded=0;strokeWidth=5;fillColor=#008a00;strokeColor=#005700;jumpStyle=arc;" parent="1" edge="1">
          <mxGeometry width="50" height="50" relative="1" as="geometry">
            <mxPoint x="670" y="140" as="sourcePoint" />
            <mxPoint x="610" y="1170" as="targetPoint" />
            <Array as="points">
              <mxPoint x="740" y="130" />
              <mxPoint x="750" y="1170" />
            </Array>
          </mxGeometry>
        </mxCell>
        <mxCell id="myNyhjmuBwBBh0yOWU_x-10" value="" style="endArrow=classic;html=1;rounded=0;strokeWidth=5;fillColor=#d80073;strokeColor=#A50040;jumpStyle=arc;" parent="1" edge="1">
          <mxGeometry width="50" height="50" relative="1" as="geometry">
            <mxPoint x="510" y="1260" as="sourcePoint" />
            <mxPoint x="320" y="720" as="targetPoint" />
            <Array as="points">
              <mxPoint x="240" y="1240" />
              <mxPoint x="250" y="800" />
            </Array>
          </mxGeometry>
        </mxCell>
        <mxCell id="myNyhjmuBwBBh0yOWU_x-13" value="" style="endArrow=classic;html=1;rounded=0;strokeWidth=5;fillColor=#1ba1e2;strokeColor=#006EAF;jumpStyle=arc;" parent="1" edge="1">
          <mxGeometry width="50" height="50" relative="1" as="geometry">
            <mxPoint x="600" y="1260" as="sourcePoint" />
            <mxPoint x="650" y="730" as="targetPoint" />
            <Array as="points">
              <mxPoint x="690" y="1220" />
              <mxPoint x="710" y="800" />
            </Array>
          </mxGeometry>
        </mxCell>
        <mxCell id="myNyhjmuBwBBh0yOWU_x-14" value="" style="endArrow=classic;html=1;rounded=0;strokeWidth=5;fillColor=#008a00;strokeColor=#005700;jumpStyle=arc;" parent="1" edge="1">
          <mxGeometry width="50" height="50" relative="1" as="geometry">
            <mxPoint x="-580" y="720" as="sourcePoint" />
            <mxPoint x="-630" y="340" as="targetPoint" />
            <Array as="points">
              <mxPoint x="-720" y="600" />
              <mxPoint x="-730" y="430" />
            </Array>
          </mxGeometry>
        </mxCell>
        <mxCell id="myNyhjmuBwBBh0yOWU_x-15" value="" style="endArrow=classic;html=1;rounded=0;strokeWidth=5;fillColor=#d80073;strokeColor=#A50040;jumpStyle=arc;" parent="1" edge="1">
          <mxGeometry width="50" height="50" relative="1" as="geometry">
            <mxPoint x="-460" y="740" as="sourcePoint" />
            <mxPoint x="-150" y="730" as="targetPoint" />
            <Array as="points">
              <mxPoint x="-280" y="800" />
              <mxPoint x="-160" y="800" />
            </Array>
          </mxGeometry>
        </mxCell>
        <mxCell id="myNyhjmuBwBBh0yOWU_x-16" value="" style="endArrow=classic;html=1;rounded=0;strokeWidth=5;fillColor=#1ba1e2;strokeColor=#006EAF;jumpStyle=arc;" parent="1" edge="1">
          <mxGeometry width="50" height="50" relative="1" as="geometry">
            <mxPoint x="-310" y="700" as="sourcePoint" />
            <mxPoint x="320" y="120" as="targetPoint" />
            <Array as="points">
              <mxPoint x="-220" y="700" />
              <mxPoint x="-220" y="60" />
              <mxPoint x="260" y="60" />
            </Array>
          </mxGeometry>
        </mxCell>
        <mxCell id="myNyhjmuBwBBh0yOWU_x-17" value="" style="endArrow=classic;html=1;rounded=0;strokeWidth=5;fillColor=#1ba1e2;strokeColor=#006EAF;jumpStyle=arc;" parent="1" edge="1">
          <mxGeometry width="50" height="50" relative="1" as="geometry">
            <mxPoint x="320" y="190" as="sourcePoint" />
            <mxPoint x="110" y="860" as="targetPoint" />
            <Array as="points">
              <mxPoint x="250" y="280" />
              <mxPoint x="240" y="730" />
            </Array>
          </mxGeometry>
        </mxCell>
        <mxCell id="myNyhjmuBwBBh0yOWU_x-18" value="" style="endArrow=classic;html=1;rounded=0;strokeWidth=5;fillColor=#008a00;strokeColor=#005700;jumpStyle=arc;" parent="1" edge="1">
          <mxGeometry width="50" height="50" relative="1" as="geometry">
            <mxPoint x="310" y="260" as="sourcePoint" />
            <mxPoint x="-290" y="850" as="targetPoint" />
            <Array as="points">
              <mxPoint x="260" y="760" />
              <mxPoint x="130" y="800" />
              <mxPoint x="-200" y="820" />
            </Array>
          </mxGeometry>
        </mxCell>
        <mxCell id="myNyhjmuBwBBh0yOWU_x-19" value="" style="endArrow=classic;html=1;rounded=0;strokeWidth=5;fillColor=#1ba1e2;strokeColor=#006EAF;jumpStyle=arc;" parent="1" edge="1">
          <mxGeometry width="50" height="50" relative="1" as="geometry">
            <mxPoint x="-620" y="250" as="sourcePoint" />
            <mxPoint x="-150" y="840" as="targetPoint" />
            <Array as="points">
              <mxPoint x="-780" y="440" />
              <mxPoint x="-720" y="800" />
            </Array>
          </mxGeometry>
        </mxCell>
        <mxCell id="myNyhjmuBwBBh0yOWU_x-20" value="" style="endArrow=classic;html=1;rounded=0;strokeWidth=5;fillColor=#d80073;strokeColor=#A50040;jumpStyle=arc;" parent="1" edge="1">
          <mxGeometry width="50" height="50" relative="1" as="geometry">
            <mxPoint x="-630" y="460" as="sourcePoint" />
            <mxPoint x="-620" y="890" as="targetPoint" />
            <Array as="points">
              <mxPoint x="-690" y="530" />
              <mxPoint x="-680" y="860" />
            </Array>
          </mxGeometry>
        </mxCell>
      </root>
    </mxGraphModel>
  </diagram>
</mxfile>
